<?xml version="1.0" encoding="utf-8"?>
<!-- Generator: Adobe Illustrator 16.0.4, SVG Export Plug-In . SVG Version: 6.00 Build 0)  -->
<!DOCTYPE svg PUBLIC "-//W3C//DTD SVG 1.1//EN" "http://www.w3.org/Graphics/SVG/1.1/DTD/svg11.dtd">
<svg version="1.1" id="Layer_1" xmlns="http://www.w3.org/2000/svg" xmlns:xlink="http://www.w3.org/1999/xlink" x="0px" y="0px"
	 width="100px" height="40px" viewBox="0 0 100 40" enable-background="new 0 0 100 40" xml:space="preserve">
<g>
	<path fill="#3a3a3a" d="M39.881,6.213v17.16h9.945v3.315h-9.945v6.825h-4.173v-6.825H4.896v-1.56L33.211,6.213H39.881z
		 M35.708,23.412V8.748L13.282,23.412H35.708z"/>
	<path fill="#3a3a3a" d="M57.82,30.511c-2.379-2.38-3.003-6.201-3.003-10.219c0-3.939,1.092-7.644,3.433-9.984
		c2.769-2.769,7.604-4.836,17.121-4.836c7.488,0,12.598,1.287,15.874,2.574v3.822c-4.057-1.794-9.517-2.964-15.874-2.964
		c-7.254,0-11.506,1.404-13.689,3.588c-1.561,1.56-2.574,3.979-2.574,7.839v0.468l0.039-0.039c2.496-2.925,6.708-4.368,15.835-4.368
		c9.399,0,14.235,1.014,16.614,3.393c1.209,1.248,1.872,3.237,1.872,5.383c0,2.027-0.663,3.899-2.067,5.304
		c-2.301,2.34-6.396,3.822-17.16,3.822C64.958,34.294,60.473,33.162,57.82,30.511z M88.008,28.17c0.78-0.779,1.17-1.754,1.17-3.002
		s-0.39-2.302-1.17-3.082c-1.561-1.599-5.616-2.301-13.144-2.301c-6.436,0-11.896,0.585-13.924,2.613
		c-0.702,0.701-1.248,1.755-1.248,2.925s0.429,2.146,1.17,2.886c1.833,1.834,5.851,2.691,13.378,2.691S86.058,30.121,88.008,28.17z"
		/>
</g>
</svg>
