<?xml version="1.0" encoding="utf-8"?>
<!-- Generator: Adobe Illustrator 18.1.0, SVG Export Plug-In . SVG Version: 6.00 Build 0)  -->
<!DOCTYPE svg PUBLIC "-//W3C//DTD SVG 1.1//EN" "http://www.w3.org/Graphics/SVG/1.1/DTD/svg11.dtd">
<svg version="1.1" id="Layer_1" xmlns="http://www.w3.org/2000/svg" xmlns:xlink="http://www.w3.org/1999/xlink" x="0px" y="0px"
	 viewBox="103 101 818 592" enable-background="new 103 101 818 592" xml:space="preserve">
<g>
	<path fill="#4C8AE5" d="M362,350.1c-1.2,0-2.2-0.8-2.4-2c-0.3-1.7-0.2-12.5-0.1-18.4l-2.6,0c-2.1,0-5.1-0.2-6.4-2.6
		c-1.7-2.9,0.3-6.7,3.5-12.2c3-5.1,4.7-11,5.7-15.1c0.3-1.2,0.5-2.4,0.8-3.6c1.1-5.6,2.3-11.3,6.1-16.5c4.2-5.8,10-10.6,16.6-13.5
		c4.8-2.1,10.7-3.4,16.3-3.4h7.3c1.4,0,2.5,1.1,2.5,2.5c0,1.4-1.1,2.5-2.5,2.5h-7.3c-4.8,0-10.2,1.1-14.2,2.9
		c-5.7,2.6-10.9,6.8-14.6,11.9c-3.1,4.3-4.1,9.3-5.2,14.6c-0.3,1.2-0.5,2.5-0.8,3.7c-1,4.5-2.9,11-6.2,16.6c-2.2,3.7-3.3,6-3.4,7
		c0.3,0.1,0.8,0.2,2,0.2l5.2,0c0.7,0,1.3,0.3,1.8,0.7c0.5,0.5,0.7,1.1,0.7,1.8c-0.1,8.9-0.2,18.8,0,20c0.2,1.4-0.7,2.6-2.1,2.9
		C362.3,350.1,362.2,350.1,362,350.1z"/>
</g>
<g>
	<path fill="#4C8AE5" d="M443.1,302.9c-1.1,0-2.2-0.8-2.4-1.9c-0.3-1.2-0.5-2.5-0.8-3.7c-1.1-5.3-2.1-10.3-5.2-14.6
		c-3.6-5.1-8.8-9.3-14.6-11.9c-4.1-1.8-9.4-2.9-14.2-2.9c-1.4,0-2.5-1.1-2.5-2.5s1.1-2.5,2.5-2.5c5.6,0,11.5,1.2,16.3,3.4
		c6.5,2.9,12.4,7.7,16.6,13.5c3.7,5.2,4.9,10.9,6.1,16.5c0.2,1.2,0.5,2.4,0.8,3.6c0.3,1.3-0.5,2.7-1.9,3
		C443.5,302.9,443.3,302.9,443.1,302.9z"/>
</g>
<path fill="#4C8AE5" d="M282.4,305.3h-17.2c-1.4,0-2.5-1.1-2.5-2.5s1.1-2.5,2.5-2.5h17.2c2,0,3.7-1.7,3.7-3.7v-60.1
	c0-2-1.7-3.7-3.7-3.7h-57.2c-1.4,0-2.5-1.1-2.5-2.5s1.1-2.5,2.5-2.5h57.2c4.8,0,8.7,3.9,8.7,8.7v60.1
	C291.1,301.4,287.2,305.3,282.4,305.3z"/>
<path fill="#4C8AE5" d="M199.3,305.3h-16.4c-4.8,0-8.7-3.9-8.7-8.7v-60.1c0-4.8,3.9-8.7,8.7-8.7h21.1c1.4,0,2.5,1.1,2.5,2.5
	s-1.1,2.5-2.5,2.5h-21.1c-2,0-3.7,1.7-3.7,3.7v60.1c0,2,1.7,3.7,3.7,3.7h16.4c1.4,0,2.5,1.1,2.5,2.5S200.7,305.3,199.3,305.3z"/>
<path fill="#4C8AE5" d="M267.2,225.9h-42.1c-1.4,0-2.5-1.1-2.5-2.5c0-1.4,1.1-2.5,2.5-2.5h42.1c1.4,0,2.5,1.1,2.5,2.5
	C269.7,224.7,268.6,225.9,267.2,225.9z"/>
<path fill="#4C8AE5" d="M202.8,312h-25.4c-1.4,0-2.5-1.1-2.5-2.5s1.1-2.5,2.5-2.5h25.4c1.4,0,2.5,1.1,2.5,2.5S204.2,312,202.8,312z"
	/>
<path fill="#4C8AE5" d="M378.2,412.2l-1.3-0.6l-3.3-1.3c0-0.1,0.1-0.2,0.1-0.2c4.4-10.2,12.4-29.1,4.2-40.6
	c-1.6-2.2-4.3-4.1-7.1-6.1c-5.2-3.7-11.1-7.9-11.3-15.6c0-1.4,1.1-2.5,2.5-2.5c1.4-0.1,2.5,1.1,2.5,2.5c0.1,5.1,4.5,8.2,9.2,11.6
	c3,2.2,6.2,4.4,8.3,7.3c9.8,13.6,1.3,33.9-3.5,45.1c-0.4,1.6-1.6,4.5-4.1,10.7c-1.9,4.8-3.8,9.5-4.9,14.2c-0.9,3.6-0.6,6.3,0.7,8.1
	c3,3.9,11.9,4.3,20.4,4.6c10.7,0.4,21.8,0.9,27.3,7.7c2.3,2.9,4.2,6,5.5,9.4l0.1,0.2l1.3,4.1l12.3,41.6c0.2,0.7,4.6,15.6,26.8,11
	l0.1,0c5.9-1,11.9-2,17.8-3c11.9-2,24.2-4.1,36.3-6c9.3-1.4,19.1-2.7,27.4-0.7c1.1,0.3,3.1,0.8,4.6,1.2c-0.9-1.1-2.3-2.3-3.1-2.7
	c-3.2-1.8-7.5-2.5-13-2.1c-1.3,0.1-2.6-0.9-2.7-2.3s1-2.6,2.3-2.7c6.5-0.4,11.7,0.5,15.8,2.7c1.1,0.6,6.9,4.8,6.5,8.8
	c-0.1,0.8-0.5,2.8-3.2,3.7l-0.7,0.3l-0.7-0.2c0,0-5-1.3-7-1.8c-7.4-1.8-16.6-0.6-25.4,0.8c-12.1,1.9-24.4,4-36.2,6
	c-5.9,1-11.9,2-17.8,3c-3.2,0.7-6.1,1-8.8,1c-15.2,0-22.1-9.6-23.7-15.5L420,472l-1.3-4c-1.1-2.9-2.6-5.5-4.7-7.9
	c-4.1-5.1-14-5.5-23.6-5.8c-10.2-0.4-19.8-0.8-24.2-6.6c-2.3-3-2.8-7.1-1.6-12.3c1.2-5,3.1-9.9,5.1-14.9c3.4-8.4,3.9-9.9,3.9-10.1"
	/>
<path fill="#4C8AE5" stroke="#231F20" stroke-width="5" stroke-linecap="round" stroke-miterlimit="10" d="M330.8,341.7"/>
<g>
	<path fill="#4C8AE5" d="M295.1,180.9c-1.4,0-2.5-1.1-2.5-2.5c0-1.4,1.1-2.5,2.5-2.5l10.2,0c0.4,0,0.8-0.2,1.1-0.4
		c0.3-0.3,0.4-0.6,0.4-1c0-0.4-0.2-0.7-0.4-1c-0.3-0.3-0.7-0.4-1.1-0.4c0,0,0,0,0,0l-10.2,0c0,0,0,0,0,0c-1.4,0-2.5-1.1-2.5-2.5
		c0-1.4,1.1-2.5,2.5-2.5l10.2,0c1.8,0,3.4,0.7,4.6,1.9c1.3,1.2,1.9,2.8,2,4.6c0,1.7-0.7,3.4-1.9,4.6c-1.2,1.2-2.9,1.9-4.6,1.9
		L295.1,180.9C295.1,180.9,295.1,180.9,295.1,180.9z"/>
	<path fill="#4C8AE5" d="M295.1,172.8c-1.4,0-2.5-1.1-2.5-2.5c0-1.4,1.1-2.5,2.5-2.5l10.2,0c0.4,0,0.8-0.2,1.1-0.4
		c0.3-0.3,0.4-0.6,0.4-1c0-0.4-0.2-0.7-0.4-1c-0.3-0.3-0.7-0.4-1.1-0.4l-10.2,0c0,0,0,0,0,0c-1.4,0-2.5-1.1-2.5-2.5
		c0-1.4,1.1-2.5,2.5-2.5l10.2,0c1.7,0,3.4,0.7,4.6,1.9c1.3,1.2,1.9,2.8,2,4.6c0,1.7-0.7,3.4-1.9,4.6c-1.2,1.2-2.9,1.9-4.6,1.9
		L295.1,172.8C295.1,172.8,295.1,172.8,295.1,172.8z"/>
	<path fill="#4C8AE5" d="M305.4,188.6c-1.4,0-2.5-1.1-2.5-2.5c0-1.4,1.1-2.5,2.5-2.5c0.4,0,0.8-0.2,1.1-0.4c0.3-0.3,0.4-0.6,0.4-1
		c0-0.4-0.2-0.7-0.4-1c-0.3-0.3-0.7-0.4-1.1-0.4l-10.2,0c0,0,0,0,0,0c-1.4,0-2.5-1.1-2.5-2.5c0-1.4,1.1-2.5,2.5-2.5l10.2,0
		c1.7,0,3.4,0.7,4.6,1.9c1.3,1.2,1.9,2.8,2,4.6c0,1.7-0.7,3.4-1.9,4.6C308.8,188,307.1,188.6,305.4,188.6
		C305.4,188.6,305.4,188.6,305.4,188.6z"/>
	<path fill="#4C8AE5" d="M295,164.6c-1.4,0-2.5-1.1-2.5-2.5c0-1.4,1.1-2.5,2.5-2.5l10.2,0c0.4,0,0.8-0.2,1.1-0.4
		c0.3-0.3,0.4-0.6,0.4-1c0-0.4-0.2-0.7-0.4-1c-0.3-0.3-0.7-0.4-1.1-0.4c0,0,0,0,0,0l-13.8,0.1c0,0,0,0,0,0c-1.4,0-2.5-1.1-2.5-2.5
		c0-1.4,1.1-2.5,2.5-2.5l13.8-0.1c0,0,0,0,0,0c1.7,0,3.4,0.7,4.6,1.9c1.2,1.2,1.9,2.8,2,4.6c0,1.7-0.7,3.4-1.9,4.6
		c-1.2,1.2-2.9,1.9-4.6,1.9L295,164.6C295.1,164.6,295.1,164.6,295,164.6z"/>
</g>
<path fill="#4C8AE5" d="M309.7,645.2c-0.4,0-0.7-0.1-1.1-0.3l-82.3-40c-0.9-0.4-1.5-1.4-1.4-2.4l7.2-144.9c0-0.9,0.6-1.7,1.4-2.1
	c0.8-0.4,1.8-0.3,2.5,0.2l80.7,56.5c0.7,0.5,1.1,1.2,1.1,2v25.3c0,1.4-1.1,2.5-2.5,2.5c-1.4,0-2.5-1.1-2.5-2.5v-24l-76-53.2
	L230,601.1l80.8,39.3c1.2,0.6,1.8,2.1,1.2,3.3C311.5,644.7,310.6,645.2,309.7,645.2z"/>
<path fill="#4C8AE5" d="M391.6,598.5c-0.1,0-0.1,0-0.2,0c-1.4-0.1-2.4-1.3-2.3-2.6l7.9-128.2l-80.4,48.7c-1.2,0.7-2.7,0.3-3.4-0.8
	c-0.7-1.2-0.3-2.7,0.8-3.4l84.5-51.2c0.8-0.5,1.8-0.5,2.6,0c0.8,0.5,1.3,1.4,1.2,2.3l-8.2,133C394.1,597.5,393,598.5,391.6,598.5z"
	/>
<path fill="#4C8AE5" d="M272.1,324c-1.4,0-2.5-1.1-2.5-2.5v-2.3c0-6.2,5-11.2,11.2-11.2c2.2,0,4.5,0.1,6.7,0.1
	c4.3,0.1,8.7,0.2,12.9-0.2c2.7-0.3,4.6-1.1,5.8-2.6c2.5-3.2,1.7-9.3,1-14.7c-0.2-1.7-0.4-3.3-0.5-4.8c-1.1-14.9-3.4-29.9-5.6-44.4
	c-1.6-10.3-3.2-21-4.4-31.5c-0.5-4.6-0.9-9.4-1.4-13.9l-0.3-3c0-5.2,4.2-9.4,9.4-9.4c1.4,0,2.5,1.1,2.5,2.5s-1.1,2.5-2.5,2.5
	c-2.4,0-4.3,1.9-4.4,4.3l0.2,2.6c0.4,4.5,0.8,9.2,1.3,13.8c1.2,10.5,2.8,21.1,4.4,31.3c2.2,14.6,4.5,29.8,5.6,44.8
	c0.1,1.4,0.3,2.9,0.5,4.6c0.8,6.4,1.8,13.6-2.1,18.5c-2,2.6-5.1,4.1-9.2,4.5c-4.5,0.4-9.1,0.3-13.5,0.2c-2.2-0.1-4.4-0.1-6.5-0.1
	c-3.4,0-6.2,2.8-6.2,6.2v2.3C274.6,322.9,273.5,324,272.1,324z"/>
<g>
	<path fill="#4C8AE5" d="M345.1,180.9C345.1,180.9,345.1,180.9,345.1,180.9l-10.2,0c-1.7,0-3.4-0.7-4.6-1.9
		c-1.2-1.2-1.9-2.9-1.9-4.6c0-1.7,0.7-3.4,1.9-4.6c1.2-1.2,2.9-1.9,4.6-1.9c0,0,0,0,0,0l10.2,0c1.4,0,2.5,1.1,2.5,2.5
		c0,1.4-1.1,2.5-2.5,2.5c0,0,0,0,0,0l-10.2,0c0,0,0,0,0,0c-0.4,0-0.8,0.2-1.1,0.4c-0.3,0.3-0.4,0.6-0.4,1c0,0.4,0.1,0.7,0.4,1
		c0.3,0.3,0.7,0.4,1.1,0.4l10.2,0c1.4,0,2.5,1.1,2.5,2.5C347.6,179.8,346.5,180.9,345.1,180.9z"/>
	<path fill="#4C8AE5" d="M345.1,172.8C345.1,172.8,345.1,172.8,345.1,172.8l-10.2,0c-1.7,0-3.4-0.7-4.6-1.9
		c-1.2-1.2-1.9-2.9-1.9-4.6c0-1.7,0.7-3.4,1.9-4.6c1.2-1.2,2.9-1.9,4.6-1.9c0,0,0,0,0,0l10.2,0c1.4,0,2.5,1.1,2.5,2.5
		c0,1.4-1.1,2.5-2.5,2.5c0,0,0,0,0,0l-10.2,0c0,0,0,0,0,0c-0.4,0-0.8,0.2-1.1,0.4c-0.3,0.3-0.4,0.6-0.4,1c0,0.4,0.2,0.7,0.4,1
		c0.3,0.3,0.7,0.4,1.1,0.4l10.2,0c1.4,0,2.5,1.1,2.5,2.5C347.6,171.7,346.5,172.8,345.1,172.8z"/>
	<path fill="#4C8AE5" d="M334.8,188.6C334.8,188.6,334.8,188.6,334.8,188.6c-1.7,0-3.4-0.7-4.6-1.9c-1.2-1.2-1.9-2.9-1.9-4.6
		c0-1.7,0.7-3.4,2-4.6c1.2-1.2,2.9-1.9,4.6-1.9c0,0,0,0,0,0l10.2,0c1.4,0,2.5,1.1,2.5,2.5c0,1.4-1.1,2.5-2.5,2.5c0,0,0,0,0,0
		l-10.2,0c0,0,0,0,0,0c-0.4,0-0.8,0.2-1.1,0.4c-0.3,0.3-0.4,0.6-0.4,1c0,0.4,0.2,0.7,0.4,1c0.3,0.3,0.7,0.4,1.1,0.4
		c1.4,0,2.5,1.1,2.5,2.5C337.3,187.5,336.2,188.6,334.8,188.6z"/>
	<path fill="#4C8AE5" d="M345.2,164.6C345.2,164.6,345.2,164.6,345.2,164.6l-10.2,0c-1.7,0-3.4-0.7-4.6-1.9
		c-1.2-1.2-1.9-2.9-1.9-4.6c0-3.6,2.9-6.4,6.5-6.4c0,0,0,0,0,0l13.8,0.1c1.4,0,2.5,1.1,2.5,2.5c0,1.4-1.1,2.5-2.5,2.5c0,0,0,0,0,0
		l-13.8-0.1c-0.9,0-1.5,0.6-1.5,1.5c0,0.4,0.2,0.7,0.4,1c0.3,0.3,0.7,0.4,1.1,0.4l10.2,0c1.4,0,2.5,1.1,2.5,2.5
		C347.7,163.5,346.5,164.6,345.2,164.6z"/>
</g>
<path fill="#4C8AE5" d="M386.2,381.5c-18,0-34.3-8.1-46-22.8c-12.8-16.1-12.7-32.2-11.3-53.1c0.9-12.4,1.7-22.5,2.5-32.3
	c0.7-9.2,1.5-18.7,2.3-30.1l0-0.2c0.7-5.1,1.4-10.2,2.1-15.3c0.8-6.1,1.7-12.4,2.6-18.5c0.5-4.5,0.9-9.3,1.3-13.8l0.2-2.5
	c-0.1-2.4-2-4.3-4.4-4.3c-1.4,0-2.5-1.1-2.5-2.5c0-1.4,1.1-2.5,2.5-2.5c5.2,0,9.4,4.2,9.4,9.4l0,0.2l-0.2,2.6
	c-0.4,4.6-0.8,9.4-1.4,14c-0.9,6.2-1.8,12.5-2.6,18.6c-0.7,5.1-1.4,10.2-2.1,15.2c-0.8,11.4-1.6,20.9-2.3,30.1
	c-0.8,9.8-1.6,19.9-2.5,32.3c-1.4,19.8-1.5,34.9,10.2,49.6c10.8,13.7,25.4,20.9,42.1,20.9c29.5,0,53.5-24,53.5-53.5l0.8-20.3
	c0.1-1.4,1.2-2.5,2.6-2.4c1.4,0.1,2.5,1.2,2.4,2.6l-0.8,20.2C444.7,355.3,418.5,381.5,386.2,381.5z"/>
<path fill="#4C8AE5" d="M278.5,219.4c-0.1,0-0.1,0-0.2,0c-1.4-0.1-2.4-1.3-2.3-2.6l3.3-53.4c0-6.4,5.3-11.6,11.8-11.6
	c1.4,0,2.5,1.1,2.5,2.5c0,1.4-1.1,2.5-2.5,2.5c-3.8,0-6.8,2.9-6.8,6.7l0,0.2L281,217C280.9,218.3,279.8,219.4,278.5,219.4z"/>
<path fill="#4C8AE5" stroke="#231F20" stroke-width="5" stroke-linecap="round" stroke-miterlimit="10" d="M429.1,151.7"/>
<path fill="#4C8AE5" d="M358,181.3C357.9,181.3,357.9,181.3,358,181.3c-1.4,0-2.5-1.2-2.5-2.6l0.3-15.4c0-3.7-3-6.6-6.8-6.6
	c-1.4,0-2.5-1.1-2.5-2.5c0-1.4,1.1-2.5,2.5-2.5c6.5,0,11.8,5.2,11.8,11.7l-0.3,15.4C360.4,180.2,359.3,181.3,358,181.3z"/>
<path fill="#4C8AE5" d="M333,188.6h-28.5c-1.4,0-2.5-1.1-2.5-2.5s1.1-2.5,2.5-2.5H333c1.4,0,2.5,1.1,2.5,2.5S334.4,188.6,333,188.6z
	"/>
<path fill="#4C8AE5" d="M330.9,157.8h-20.5c-1.4,0-2.5-1.1-2.5-2.5c0-1.4,1.1-2.5,2.5-2.5h20.5c1.4,0,2.5,1.1,2.5,2.5
	C333.4,156.7,332.3,157.8,330.9,157.8z"/>
<path fill="#4C8AE5" d="M316.4,156.6c-1.4,0-2.5-1.1-2.5-2.5v-4.3h-6.6v2.4c0,1.4-1.1,2.5-2.5,2.5c-1.4,0-2.5-1.1-2.5-2.5v-4.9
	c0-1.4,1.1-2.5,2.5-2.5h11.6c1.4,0,2.5,1.1,2.5,2.5v6.8C318.9,155.4,317.8,156.6,316.4,156.6z"/>
<path fill="#4C8AE5" d="M319.5,183.7c-7,0-12.7-5.7-12.7-12.7s5.7-12.7,12.7-12.7s12.7,5.7,12.7,12.7S326.4,183.7,319.5,183.7z
	 M319.5,163.4c-4.2,0-7.7,3.4-7.7,7.7s3.4,7.7,7.7,7.7s7.7-3.4,7.7-7.7S323.7,163.4,319.5,163.4z"/>
<path fill="#4C8AE5" d="M303.7,241.1c-0.3,0-0.6,0-0.8-0.1c-1.3-0.5-2-1.9-1.5-3.2c2.3-6.5,8.5-10.9,15.4-10.9h5.5
	c4.4,0,8.1-3.6,8.1-8.1c0-5.5-2.3-5.8-7.3-6.5c-2.5-0.3-5.3-0.7-7.8-2.1c-4-2.1-5.6-6.9-6.1-9.5c-0.5-2.3-0.5-4.7-0.5-6.9
	c0-1.1,0-2.2,0-3.3c0-0.6-0.1-1.2-0.2-1.7c-0.2-1.4,0.8-2.6,2.1-2.8c1.4-0.2,2.6,0.8,2.8,2.1c0.1,0.6,0.2,1.3,0.2,2.1
	c0.1,1.2,0.1,2.4,0,3.6c0,2.1,0,4,0.4,5.8c0.7,3,2,5.3,3.6,6.1c1.7,0.9,3.9,1.2,6.1,1.5c4.9,0.7,11.6,1.6,11.6,11.5
	c0,7.2-5.9,13.1-13.1,13.1h-5.5c-4.8,0-9.1,3-10.7,7.5C305.7,240.5,304.7,241.1,303.7,241.1z"/>
<path fill="#4C8AE5" d="M423.5,305.8c-32.4-1.1-32.7-27.3-32.9-50.4c-0.2-15.5-0.3-31.5-9.2-40.5c-2-2.1-5-3.7-8.1-5.5
	c-6.6-3.7-14.8-8.3-13.4-18.7c0.9-6.2,3.7-11.5,6.4-16.6c0.7-1.3,1.4-2.7,2.1-4c3.8-7.6,3.9-16.6,0.3-24.6
	c-3.4-7.6-9.7-13.2-17.4-15.4c-13-3.6-31.9,2.9-36.9,16.9l-4.7-1.7c2.8-7.7,9.1-14,18-17.8c8.2-3.5,17.3-4.3,25-2.2
	c9.1,2.6,16.6,9.2,20.6,18.1c4.2,9.3,4,19.8-0.4,28.8c-0.7,1.4-1.4,2.8-2.1,4.1c-2.6,5-5.1,9.7-5.8,15c-1,6.7,3.5,9.6,10.8,13.7
	c3.3,1.8,6.7,3.7,9.3,6.3c10.3,10.5,10.5,27.5,10.6,44c0.2,23.9,0.4,44.5,28.1,45.4L423.5,305.8z"/>
<path fill="#4C8AE5" stroke="#231F20" stroke-width="5" stroke-linecap="round" stroke-miterlimit="10" d="M286.9,352.7"/>
<g>
	<path fill="#4C8AE5" d="M280.1,350.9c-1.3,0-2.6-0.6-3.6-1.7c-1.7-1.8-2.3-4.2-2.9-6.2c-0.1-0.4-0.2-0.8-0.3-1.1
		c-0.1-0.3-0.2-0.6-0.3-0.9c-0.1-0.2-0.1-0.5-0.2-0.7c-0.4-1.3,0.3-2.7,1.6-3.1c1.3-0.4,2.7,0.3,3.1,1.6c0.1,0.3,0.2,0.6,0.3,1
		c0.1,0.2,0.1,0.5,0.2,0.7c0.1,0.4,0.2,0.8,0.4,1.2c0.4,1.6,0.9,3.2,1.7,4.2c0.2-0.5,0.4-2.1-0.2-4.8c-0.6-2.9-2.2-6.7-4.6-8.3
		c-0.5-0.3-1.1-0.6-2-0.9c-0.2-0.1-0.6-0.1-0.9-0.1c-1.3-0.1-3.4-0.4-4.7-2.6c-0.8-1.5-0.9-3-0.4-4.5c0.5-1.5,1.7-2.6,3.3-3.2
		l0.3-0.1c0.2-0.1,6.1-1.3,11.6,2.7c5.1,3.7,8.1,10.4,9,20.1c0.1,1.4-0.9,2.6-2.3,2.7c-1.4,0.1-2.6-0.9-2.7-2.3
		c-0.8-8-3.2-13.7-7-16.5c-3.2-2.3-6.6-2-7.3-1.9c-0.2,0.1-0.2,0.2-0.2,0.2c0,0,0,0.1,0,0.3c0.2,0,0.6,0.1,0.8,0.1
		c0.5,0.1,1.1,0.1,1.8,0.3c1.4,0.4,2.5,0.9,3.4,1.6c4.4,3,6.1,9,6.6,11.4c1.7,7.7-1.2,10-3.1,10.7
		C281.1,350.8,280.6,350.9,280.1,350.9z"/>
	<path fill="#4C8AE5" d="M276,367.6c-1.1,0-2.1-0.7-2.4-1.8c-2-6.9-6.8-23-7-23.6c-0.3-1.3,0.5-2.7,1.9-3c1.3-0.3,2.7,0.5,3,1.9
		c0.2,0.8,4.2,14.4,6.9,23.3c0.4,1.3-0.4,2.7-1.7,3.1C276.4,367.6,276.2,367.6,276,367.6z"/>
	<path fill="#4C8AE5" d="M294.8,343.5c-1.2,0-2.3-0.9-2.5-2.1c-0.4-2.7-1-5.8-2.3-8.7c-1.4-3.3-4.6-8.9-9.3-9.3
		c-0.7,0-2.3,0.4-3.3,1.2c-1.1,0.9-2.6,0.7-3.5-0.3c-0.9-1.1-0.7-2.6,0.3-3.5c1.9-1.5,4.8-2.5,6.9-2.4c5.5,0.4,10.3,4.8,13.5,12.3
		c1.5,3.4,2.2,7.1,2.7,9.9c0.2,1.4-0.7,2.6-2.1,2.9C295.1,343.5,295,343.5,294.8,343.5z"/>
	<path fill="#4C8AE5" d="M309,374c-1.2,0-2.2-0.8-2.4-2c-0.8-3.6-2.6-10.3-4.3-16.8c-1.8-6.7-3.7-13.7-4.5-17.5
		c-1.3-6.1-4-13.3-7.8-15c-1.5-0.7-3.2-0.4-5.1,0.7c-1.2,0.7-2.7,0.3-3.4-0.9c-0.7-1.2-0.3-2.7,0.9-3.4c4.2-2.5,7.6-1.9,9.7-1
		c6.5,2.9,9.5,12.9,10.6,18.6c0.8,3.7,2.6,10.6,4.4,17.2c1.8,6.9,3.6,13.3,4.4,17.1c0.3,1.4-0.6,2.7-1.9,3
		C309.3,374,309.1,374,309,374z"/>
	<path fill="#4C8AE5" d="M272.1,358.5c-0.1,0-0.3,0-0.4,0c-7.7-1.2-13.2-7.8-13.2-15.6c0-8.1,6-15.2,13.7-16.2
		c1.4-0.2,2.6,0.8,2.8,2.1c0.2,1.4-0.8,2.6-2.1,2.8c-5.2,0.7-9.4,5.8-9.4,11.3c0,5.3,3.8,9.8,9,10.6c1.4,0.2,2.3,1.5,2.1,2.9
		C274.4,357.6,273.3,358.5,272.1,358.5z"/>
	<path fill="#4C8AE5" stroke="#231F20" stroke-width="5" stroke-linecap="round" stroke-miterlimit="10" d="M287.3,354"/>
</g>
<path fill="#4C8AE5" d="M529.2,281.1c-0.1,0-0.2,0-0.3,0c-0.1,0-0.2,0-0.3,0c-5.2,0-9.5-4.2-9.5-9.5c0-5.2,4.2-9.4,9.3-9.5l26.7-2.5
	c5.2,0,9.5,4.2,9.5,9.5c0,5.2-4.2,9.4-9.3,9.5l-25.9,2.5C529.3,281.1,529.2,281.1,529.2,281.1z M528.6,267.2c-2.5,0-4.5,2-4.5,4.5
	c0,2.5,2,4.5,4.5,4.5c0.1,0,0.2,0,0.3,0c0,0,0,0,0,0l26.3-2.5c2.5,0,4.5-2,4.5-4.5c0-2.4-1.9-4.4-4.4-4.5L528.6,267.2z"/>
<path fill="#4C8AE5" d="M562.2,271.6c-1.4,0-2.5-1.1-2.5-2.5c0-2.4-1.9-4.4-4.4-4.5l-26.5,2.5c-1.4,0.1-2.6-0.9-2.7-2.3
	c-0.1-1.4,0.9-2.6,2.3-2.7l26.8-2.5c5.2,0,9.5,4.2,9.5,9.5C564.7,270.5,563.6,271.6,562.2,271.6z"/>
<path fill="#4C8AE5" d="M532.7,309.9c-0.1,0-0.2,0-0.3,0c-0.1,0-0.2,0-0.3,0c-5.2,0-9.5-4.2-9.5-9.5c0-5.2,4.2-9.4,9.3-9.5l20.8-1.9
	c5.2,0,9.5,4.2,9.5,9.5c0,5.2-4.2,9.4-9.3,9.5l-20,1.9C532.8,309.9,532.8,309.9,532.7,309.9z M532.1,295.9c-2.5,0-4.5,2-4.5,4.5
	s2,4.5,4.5,4.5c0.1,0,0.2,0,0.3,0c0,0,0,0,0,0l20.3-1.9c2.5,0,4.5-2,4.5-4.5c0-2.4-1.9-4.4-4.4-4.5L532.1,295.9z"/>
<path fill="#4C8AE5" d="M525.6,296.2c-0.1,0-0.2,0-0.3,0c-0.1,0-0.2,0-0.3,0c-5.2,0-9.5-4.2-9.5-9.5c0-5.2,4.2-9.4,9.3-9.5l31.4-3.5
	c5.2,0,9.5,4.2,9.5,9.5c0,5.2-4.2,9.4-9.3,9.5l-30.6,3.4C525.8,296.2,525.7,296.2,525.6,296.2z M525.1,282.3c-2.5,0-4.5,2-4.5,4.5
	c0,2.5,2,4.5,4.5,4.5c0.1,0,0.2,0,0.3,0l31-3.5c2.5,0,4.5-2,4.5-4.5c0-2.4-1.9-4.4-4.3-4.5L525.1,282.3z"/>
<path fill="#4C8AE5" d="M531.1,260.8c-0.6,0-1.3-0.2-1.8-0.7c-1-1-1-2.6,0-3.5l18.4-18.7l-10.8-3.2c-1.3-0.4-2.1-1.8-1.7-3.1
	c0.4-1.3,1.8-2.1,3.1-1.7l14.8,4.4c0.8,0.2,1.5,0.9,1.7,1.8c0.2,0.9,0,1.8-0.6,2.4l-21.3,21.7C532.4,260.6,531.8,260.8,531.1,260.8z
	"/>
<path fill="#4C8AE5" d="M272.1,225.9h-8.1c-1.4,0-2.5-1.1-2.5-2.5c0-1.4,1.1-2.5,2.5-2.5h8.1c2.1,0,3.9-1.8,3.9-4
	c0-1.4,1.1-2.5,2.5-2.5c1.4,0,2.5,1.1,2.5,2.5C281,221.8,277,225.9,272.1,225.9z"/>
<path fill="#4C8AE5" d="M161.7,326.4c-1.4,0-2.5-1.1-2.5-2.5v-4.9c0-1.4,1.1-2.5,2.5-2.5h47.4c1.4,0,2.5,1.1,2.5,2.5
	c0,1.4-1.1,2.5-2.5,2.5h-44.9v2.4C164.2,325.3,163.1,326.4,161.7,326.4z"/>
<path fill="#4C8AE5" d="M530,202.8c-15.8,0-28.7-12.9-28.7-28.7c0-10.7,6-20.5,15.5-25.5v-18.6c0-1.4,1.1-2.5,2.5-2.5h8.1
	c0.1,0,0.2,0,0.3,0h13.1c1.4,0,2.5,1.1,2.5,2.5v18.6c9.4,4.9,15.5,14.7,15.5,25.5C558.7,190,545.8,202.8,530,202.8z M521.8,132.6
	v17.6c0,1-0.6,1.9-1.5,2.3c-8.5,3.8-14,12.3-14,21.6c0,13.1,10.6,23.7,23.7,23.7c13.1,0,23.7-10.6,23.7-23.7c0-9.3-5.5-17.8-14-21.6
	c-0.9-0.4-1.5-1.3-1.5-2.3v-17.6H521.8z"/>
<path fill="#4C8AE5" d="M519.3,142.1c-1.4,0-2.5-1.1-2.5-2.5v-19.5c0-1.4,1.1-2.5,2.5-2.5c7.2,0,14.6,0,21.5,0.1
	c1.4,0,2.5,1.1,2.5,2.5v13.1c0,1.4-1.1,2.5-2.5,2.5s-2.5-1.1-2.5-2.5v-10.6c-5.4,0-11,0-16.5,0v17
	C521.8,141,520.7,142.1,519.3,142.1z"/>
<path fill="#4C8AE5" stroke="#231F20" stroke-width="5" stroke-linecap="round" stroke-miterlimit="10" d="M530,263.4"/>
<path fill="#4C8AE5" stroke="#231F20" stroke-width="5" stroke-linecap="round" stroke-miterlimit="10" d="M530,203.3"/>
<path fill="#4C8AE5" d="M530,265.9c-1.4,0-2.5-1.1-2.5-2.5v-19.1c0-1.4,1.1-2.5,2.5-2.5c1.4,0,2.5,1.1,2.5,2.5v19.1
	C532.5,264.8,531.4,265.9,530,265.9z"/>
<path fill="#4C8AE5" d="M530,237.1c-1.4,0-2.5-1.1-2.5-2.5v-31.3c0-1.4,1.1-2.5,2.5-2.5c1.4,0,2.5,1.1,2.5,2.5v31.3
	C532.5,236,531.4,237.1,530,237.1z"/>
<path fill="#4C8AE5" d="M551.4,512.2c-1.7,0-3.3-0.6-4.6-1c-0.7-0.3-1.4-0.5-1.9-0.6c-2.1-0.4-4.6-0.6-7.3-0.7
	c-1.4,0-2.5-1.2-2.4-2.6c0-1.4,1.2-2.5,2.6-2.4c3,0.1,5.7,0.3,8.1,0.8c0.9,0.2,1.8,0.5,2.6,0.8c0.4,0.2,0.9,0.3,1.4,0.5
	c-0.7-0.6-1.6-1.1-2.1-1.3c-3.3-1.4-7.6-2-13.3-1.7c-1.4,0.1-2.6-1-2.6-2.4c-0.1-1.4,1-2.6,2.4-2.6c6.4-0.3,11.5,0.4,15.5,2.1
	c0.1,0,7,3.4,6.7,7.5c-0.1,0.8-0.5,2.7-3.3,3.5C552.5,512.2,552,512.2,551.4,512.2z"/>
<path fill="#4C8AE5" stroke="#231F20" stroke-width="5" stroke-linecap="round" stroke-miterlimit="10" d="M622.4,138.4"/>
<path fill="#4C8AE5" d="M749.8,446.8c-5.1,0-11.3-1.8-17.9-7.5c-8.5-7.3-12.5-19.5-10.8-32.4c1.8-13.8,9.8-25.6,20.7-30.9
	c1.3-0.6,2.6-1.2,4.1-1.8c4.5-1.9,9.2-3.8,11-7.6c2.4-5.2,0.5-11.4-1.5-17.9c-1.8-5.9-3.6-11.9-2.5-17.8c1.2-6.3,6.5-5.8,9.4-5.6
	c0.9,0.1,2.3,0.2,2.7,0c0.2-0.9-0.6-3.4-2.3-7.3c-0.3-0.8-0.6-1.4-0.8-1.9l-1.8-4.9c-1.1-3.1-2.3-6.2-3.4-9.3
	c-0.6-1.6-1.2-3.3-1.8-4.9l-0.2-0.7c-2.6-6.8-4.8-12.6-10.9-16.2c-4.4-2.5-9.6-3.6-14.4-3.2c0.3,5.1,0.5,11.5-1.6,17
	c-1.8,4.7-6.4,8.2-10.7,8.1c-3.6-0.1-6.5-2.6-7.8-6.9c-2.8-9,5.2-18.1,12-21.1c0.9-0.4,1.9-0.8,2.9-1.1c0-2,0-3.9,0-5.9
	c0-9.9,0.1-20.2-6.5-27c-3.2-3.3-7.3-5.5-11.7-7.7c-4.4-2.3-9-4.6-12.8-8.4c-5.4-5.5-8.4-12.6-10.2-17.5c-2.4-6.6-3.8-13.5-4.9-20
	c-0.2-1.4,0.7-2.7,2-2.9c1.4-0.2,2.7,0.7,2.9,2c1.1,6.3,2.4,12.9,4.7,19.2c2.6,7.1,5.4,12,9,15.7c3.2,3.2,7.2,5.3,11.5,7.5
	c4.5,2.3,9.2,4.7,13,8.7c7.9,8.3,7.9,20,7.9,30.4c0,1.7,0,3.3,0,4.9c5.7-0.5,11.8,0.8,17.1,3.9c7.7,4.4,10.4,11.7,13.1,18.7l0.2,0.7
	c0.6,1.6,1.2,3.3,1.8,4.9c1.2,3.1,2.3,6.2,3.4,9.3l1.8,4.9c0.1,0.4,0.4,0.9,0.7,1.6c2.1,4.8,3.9,9.4,1.9,12.2
	c-1.8,2.6-4.9,2.3-7.2,2.1c-3.6-0.3-3.8,0-4.1,1.5c-0.9,4.7,0.7,9.9,2.4,15.4c2.2,7.2,4.5,14.6,1.2,21.5c-2.6,5.6-8.5,8-13.7,10.1
	c-1.4,0.6-2.7,1.1-3.8,1.6c-9.4,4.5-16.3,14.9-17.9,27c-1.5,11.3,1.9,21.7,9.1,28c7,6,14,7.8,20.9,5.1c14.9-5.8,25.6-29.9,27.3-44.3
	c2.5-21,6.5-43.3,18.9-63.7c3.3-5.5,10.2-15.8,10.5-16.2c1.5-2.3,4-3.4,6.6-2.8c2.3,0.5,4,2.2,4.4,4.5c0.5,2.9-2.1,7.1-3.3,8.9
	c-0.7,1.2-1.3,2.2-2,3.2c-0.7,1.1-1.5,2.2-2.5,4c-0.7,1.2-2.2,1.6-3.4,0.9c-1.2-0.7-1.6-2.2-0.9-3.4c1.1-1.9,1.9-3.2,2.7-4.3
	c0.7-1,1.2-1.8,1.8-2.9l0.2-0.2c1.4-1.9,2.6-4.5,2.6-5.3c0-0.2-0.2-0.4-0.5-0.4c-0.5-0.1-1,0.2-1.4,0.7c-0.1,0.1-7.1,10.6-10.4,16
	c-11.9,19.6-15.8,41.3-18.2,61.7c-1.9,16.1-13.6,41.8-30.5,48.4C755.6,446.2,752.9,446.8,749.8,446.8z M724.4,278.1
	c-0.4,0.1-0.7,0.3-1.1,0.4c-5.1,2.3-11.2,9.2-9.3,15.1c0.7,2.2,1.8,3.4,3.2,3.4c2.2,0.1,4.9-2.1,5.9-4.8
	C724.7,287.9,724.6,282.5,724.4,278.1z"/>
<path fill="#4C8AE5" d="M820.7,338.7c-0.4,0-0.8-0.1-1.2-0.3c-1.2-0.7-1.6-2.2-0.9-3.4c1-1.8,1.5-2.9,2-4.1c0.4-1,0.9-1.9,1.5-3.1
	c0.2-0.5,0.6-1,0.9-1.5c0.7-1.1,2-3.1,1.8-4c0-0.3-0.2-0.4-0.5-0.5c-0.5-0.1-1,0.2-1.4,0.7c-1.6,2.4-4.8,7.7-6.2,10.3
	c-0.6,1.2-2.1,1.7-3.4,1.1c-1.2-0.6-1.7-2.1-1.1-3.4c1.5-2.9,4.7-8.3,6.5-10.8c1.5-2.3,4-3.4,6.6-2.8c2.3,0.5,4,2.2,4.4,4.5
	c0.5,2.7-1.2,5.4-2.5,7.5c-0.3,0.5-0.6,0.9-0.8,1.3c-0.6,1-0.9,1.8-1.3,2.8c-0.5,1.2-1.1,2.6-2.2,4.6
	C822.4,338.2,821.6,338.7,820.7,338.7z"/>
<path fill="#4C8AE5" d="M882.5,450.7c-0.3,0-0.6,0-0.7,0l-43.2-0.7c-1.4,0-2.5-1.2-2.5-2.5c0-1.4,1.2-2.5,2.5-2.5l43.3,0.7
	c0.1,0,0.2,0,0.2,0c0,0,3.3,0.3,5.6-1.9c1.9-1.7,2.8-4.6,2.8-8.5c0-2.7,0-10,0-20c-0.1-21.7-0.2-57.9-0.2-87v-18.1
	c0-0.8,0-1.6,0.1-2.5c0.3-7.7,0-12.5-5.7-14.3c-2.6-0.8-5.9-0.8-9-0.7c-0.8,0-1.6,0-2.4,0l-75.6,0c-1.4,0-2.5-1.1-2.5-2.5
	s1.1-2.5,2.5-2.5c0,0,0,0,0,0l75.6,0c0.7,0,1.5,0,2.3,0c3.4-0.1,7.2-0.1,10.6,1c9.7,3.1,9.4,12.4,9.1,19.2c0,0.8-0.1,1.6-0.1,2.3
	v18.1c0,29.1,0.1,65.3,0.2,87c0,10,0,17.3,0,20c0,5.4-1.5,9.6-4.5,12.3C887.9,450.3,884.1,450.7,882.5,450.7z"/>
<path fill="#4C8AE5" d="M838.5,450c-7.9,0-14.2-2.5-18.8-7.5c-11-12-8.9-35.2-7.4-52.1c0.3-3.1,0.6-6.1,0.7-8.5
	c0.7-12.2,4.1-26,9.7-38.9c0.4-0.9,0.8-2,1.3-3c1.1-2.7,2.3-5.5,3.4-7.4c0.3-0.6,0.7-1.1,1.1-1.7c0.5-0.8,1.8-2.7,1.7-3.4
	c-0.3-0.7-0.5-0.9-0.5-0.9c0,0,0,0,0,0c-0.3,0-1.1,0.5-1.6,1c-1.7,2.5-4,7-5.1,9.6c-0.5,1.3-2,1.9-3.3,1.3c-1.3-0.5-1.8-2-1.3-3.3
	c1.3-2.9,3.9-7.9,5.7-10.6c0.1-0.1,0.2-0.3,0.3-0.4c0.5-0.5,3.3-3.1,6.4-2.4c1.3,0.3,3,1.2,4.1,4c1.1,2.9-0.9,5.7-2.3,7.9
	c-0.3,0.5-0.7,1-0.9,1.3c-0.9,1.7-2,4.4-3.1,7c-0.4,1.1-0.9,2.1-1.3,3.1c-5.4,12.3-8.6,25.5-9.3,37.1c-0.1,2.5-0.4,5.5-0.7,8.7
	c-1.4,15.1-3.4,37.9,6.1,48.3c3.6,3.9,8.5,5.8,15.1,5.8c1.4,0,2.5,1.1,2.5,2.5S839.9,450,838.5,450z"/>
<path fill="#4C8AE5" d="M552,506.7c-1.2,0-2.2-0.8-2.4-2c-0.2-1.1,0.3-2.1,1.2-2.6c0-0.1,0.1-0.3,0.1-0.4c-0.6-2-4.5-5-22.2-4.5
	l-0.7,0c-8.9,0.2-16.5,1.2-25.3,2.3c-4.4,0.6-9,1.2-14.1,1.7c-1.5,0.2-3,0.4-4.6,0.6c-9,1.2-19.3,2.6-26.2-5.2
	c-6.5-7.4-7.6-14.9-8.8-23.6l-0.1-0.7c-0.1-1-0.3-2.1-0.4-3.1c-1.2-9.2-2.5-18.7-7.2-26.5c-5.1,3.1-13,3.6-17.5-0.4
	c-3-2.7-4-6.1-2.6-9c1.5-3.2,5.4-5.1,9.7-4.6c4.1,0.5,7.8,2.7,11.3,6.6c1.2-1.4,2.2-2.8,3.1-4.2c3.1-4.6,6.4-9.3,14.6-10
	c1.7-0.1,3.9,0,6.3,0.1c5.9,0.3,14,0.8,16-3.3c0.3-0.6,0.6-1.2,1-1.7c1.2-2.7,0.1-7-0.9-10.9c-0.6-2.4-1.2-4.6-1.3-6.7l0-0.1
	c0-4.5,2.3-7.7,5.8-8.1l0.3,0c0.9,0,2.1,0,3.3,0.4c0.6,0.1,1-0.1,1.1-0.2c0.1-0.1,0-0.3,0-0.4c-1.3-3.3-2.5-6-3.7-8.6
	c-1.6-3.5-3.1-6.8-4.6-11.2c-0.9-2.4-7.3-16.5-8.6-18.8c-0.7-1.2-0.3-2.7,0.9-3.4c1.2-0.7,2.7-0.3,3.4,0.9c1.6,2.7,8,17,9,19.6
	c1.5,4.3,2.9,7.5,4.4,10.9c1.2,2.7,2.5,5.5,3.8,8.9l0,0.1c0.7,2,0.3,3.9-1,5.3c-1.4,1.6-3.7,2.2-6,1.7l-0.2-0.1
	c-0.5-0.2-1-0.2-1.7-0.2c-0.9,0.2-1.2,1.9-1.2,3c0.1,1.5,0.6,3.5,1.1,5.7c1.2,4.8,2.6,10.2,0.4,14.6l-0.2,0.4l-0.2,0.2
	c-0.1,0.2-0.3,0.6-0.5,0.9c-3.5,7-13.5,6.5-20.8,6c-2.2-0.1-4.2-0.2-5.6-0.1c-5.9,0.4-8,3.5-10.9,7.8c-1.2,1.8-2.5,3.7-4.2,5.6
	c5.6,8.8,7,19.1,8.3,29.1c0.1,1,0.3,2.1,0.4,3.1l0.1,0.7c1.1,8.2,2,14.7,7.6,21c5.2,5.9,13.6,4.7,21.8,3.6c1.6-0.2,3.2-0.4,4.8-0.6
	c5-0.5,9.6-1.1,14-1.7c8.6-1.1,16.6-2.1,25.8-2.3l0.7,0c7.6-0.2,25.4-0.6,27.3,8.8l0.1,0.3l0,0.3c0,2.2-0.9,4.7-3.3,5.2
	C552.3,506.7,552.1,506.7,552,506.7z M429.4,433.4c-1.9,0-3.4,0.8-3.8,1.7c-0.6,1.2,0.8,2.7,1.4,3.2c2.6,2.4,7.8,1.9,11.2,0
	c-2.6-3.1-5.2-4.7-8.1-5C429.9,433.4,429.6,433.4,429.4,433.4z"/>
<path fill="#4C8AE5" d="M477.3,385.5c-5,0-9.1-4.1-9.1-9.1s4.1-9.1,9.1-9.1c5,0,9.1,4.1,9.1,9.1S482.3,385.5,477.3,385.5z
	 M477.3,372.4c-2.2,0-4.1,1.8-4.1,4.1s1.8,4.1,4.1,4.1c2.2,0,4.1-1.8,4.1-4.1S479.5,372.4,477.3,372.4z"/>
<path fill="#4C8AE5" d="M495.7,385.5c-5,0-9.1-4.1-9.1-9.1s4.1-9.1,9.1-9.1c5,0,9.1,4.1,9.1,9.1S500.7,385.5,495.7,385.5z
	 M495.7,372.4c-2.2,0-4.1,1.8-4.1,4.1s1.8,4.1,4.1,4.1c2.2,0,4.1-1.8,4.1-4.1S498,372.4,495.7,372.4z"/>
<path fill="#4C8AE5" d="M474.3,589.7c-1.4,0-2.5-1.1-2.5-2.5s1.1-2.5,2.5-2.5c5.6,0,10.4-4.9,10.4-10.6c0-5.7-4.7-10.4-10.4-10.4
	h-48.6c-5.5,0-11.7,4.4-11.7,10.4c0,1.4-1.1,2.5-2.5,2.5s-2.5-1.1-2.5-2.5c0-8.2,7.8-15.4,16.7-15.4h48.6c8.5,0,15.4,6.9,15.4,15.4
	C489.6,582.7,482.7,589.7,474.3,589.7z"/>
<path fill="#4C8AE5" d="M474.3,589.7C474.3,589.7,474.3,589.7,474.3,589.7l-38.6-0.2c-1.4,0-2.5-1.1-2.5-2.5c0-1.4,1.1-2.5,2.5-2.5
	c0,0,0,0,0,0l38.6,0.2c1.4,0,2.5,1.1,2.5,2.5C476.8,588.6,475.6,589.7,474.3,589.7z"/>
<path fill="#4C8AE5" d="M504.7,638.6c-1.2,0-2.3-0.9-2.5-2.2c-0.2-1.4,0.8-2.6,2.2-2.8l2.7-0.3l9.1-85.2c0.1-1.4,1.4-2.4,2.8-2.2
	c1.4,0.1,2.4,1.4,2.2,2.8l-9.3,87.2c-0.1,1.2-1,2.1-2.2,2.2l-4.6,0.5C504.9,638.6,504.8,638.6,504.7,638.6z"/>
<path fill="#4C8AE5" d="M486.2,636.2c-0.1,0-0.1,0-0.2,0l-4.3-0.3c-0.7,0-1.3-0.4-1.7-0.9c-0.4-0.5-0.6-1.2-0.6-1.9l6.5-71.2
	c0.1-1.4,1.3-2.4,2.7-2.3c1.4,0.1,2.4,1.3,2.3,2.7l-6.3,68.6l1.7,0.1c1.4,0.1,2.4,1.3,2.3,2.7C488.6,635.2,487.5,636.2,486.2,636.2z
	"/>
<path fill="#4C8AE5" d="M581.7,598c-0.6,0-1.2-0.2-1.6-0.6c-1.1-0.9-1.2-2.5-0.3-3.5l1.7-1.9l-67.9-72.4c-0.9-1-0.9-2.6,0.1-3.5
	c1-0.9,2.6-0.9,3.5,0.1l71,75.7l-4.6,5.3C583.1,597.7,582.4,598,581.7,598z"/>
<path fill="#4C8AE5" d="M564.6,619.4L515,568.5c-1-1-0.9-2.6,0-3.5c1-1,2.6-0.9,3.5,0l45.8,47l0.4-0.5c0.9-1,2.5-1.2,3.5-0.3
	c1,0.9,1.2,2.5,0.3,3.5L564.6,619.4z"/>
<path fill="#4C8AE5" d="M518.5,550.5c-0.2,0-0.4,0-0.6-0.1c-1.3-0.3-2.2-1.7-1.8-3c0.7-2.8,0.8-5.8,0.2-8.7c-1.1-5.2-4-9.7-8.3-12.7
	c-4.3-3-9.5-4-14.6-3l-5.1,1.1c-1.3,0.3-2.7-0.6-3-1.9s0.6-2.7,1.9-3l5.2-1.1c6.5-1.3,13,0,18.5,3.8c5.4,3.7,9.1,9.3,10.4,15.8
	c0.7,3.6,0.7,7.3-0.2,10.9C520.6,549.7,519.6,550.5,518.5,550.5z"/>
<path fill="#4C8AE5" d="M432,563.7l-0.6-5c1.5-0.2,3-0.4,4.6-0.7c0.9-0.2,1.7-0.3,2.6-0.5l5.5-0.9c7.7-1.3,15.7-2.6,23.6-3.8
	c0.8-0.1,1.6-0.3,2.5-0.4c5.5-1,13.1-2.3,17.5,1.4c2.1,1.8,3.2,4.4,3.2,7.8h-5c0-1.9-0.5-3.1-1.4-3.9c-2.6-2.2-9.2-1.1-13.5-0.3
	c-1,0.2-1.9,0.3-2.7,0.4c-7.8,1.1-15.8,2.5-23.5,3.7l-5.5,0.9c-0.8,0.1-1.6,0.3-2.5,0.4C435.3,563.2,433.7,563.5,432,563.7z"/>
<path fill="#4C8AE5" d="M561.1,528.2h-22.9c-6,0-10.9-4.9-10.9-10.9c0-1.4,1.1-2.5,2.5-2.5c1.4,0,2.5,1.1,2.5,2.5
	c0,3.2,2.6,5.9,5.9,5.9h22.9c3.2,0,5.9-2.6,5.9-5.9s-2.6-5.9-5.9-5.9h-5.6c-1.4,0-2.5-1.1-2.5-2.5s1.1-2.5,2.5-2.5h5.6
	c6,0,10.9,4.9,10.9,10.9S567.1,528.2,561.1,528.2z"/>
<g>
	<g>
		<path fill="#4C8AE5" d="M498.1,675.5c-0.9,0-1.8-0.1-2.8-0.3c-4.4-1-8.6-4.4-10.9-9c-2.6-5.1-2.4-11-2-15.1
			c0.1-1.5,0.2-2.5,0.3-3.4c0.2-2.2,0.3-3.9,1.4-12.8c0.2-1.4,1.4-2.4,2.8-2.2c1.4,0.2,2.4,1.4,2.2,2.8c-1,8.8-1.2,10.5-1.4,12.7
			c-0.1,0.9-0.2,1.9-0.3,3.4c-0.3,3.4-0.5,8.4,1.5,12.3c1.7,3.3,4.6,5.8,7.6,6.4c1.2,0.3,2.3,0.2,3.7,0.1c0.7-0.1,1.5-0.1,2.3-0.1
			c2,0,4.1,0,6.1,0c1.4,0,2.5,1.1,2.5,2.5c0,1.4-1.1,2.5-2.5,2.5c0,0,0,0,0,0c-2,0-4.1,0-6.1,0c-0.6,0-1.3,0.1-2,0.1
			C499.7,675.4,498.9,675.5,498.1,675.5z"/>
		<g>
			<g>
				<path fill="#4C8AE5" d="M536.1,656.5h-4.2c-1.4,0-2.5-1.1-2.5-2.5s1.1-2.5,2.5-2.5h4.2c0.4,0,0.7-0.3,0.7-0.7
					c0-0.2-0.1-0.4-0.2-0.5c-0.1-0.1-0.2-0.2-0.5-0.2c0,0,0,0,0,0l-23.5,0c-1.4,0-2.5-1.1-2.5-2.5s1.1-2.5,2.5-2.5l23.5,0
					c0,0,0,0,0,0c1.5,0,2.9,0.6,4,1.7c1.1,1.1,1.7,2.5,1.7,4C541.8,653.9,539.3,656.5,536.1,656.5z"/>
				<g>
					<path fill="#4C8AE5" d="M536.1,662.8h-4.2c-1.4,0-2.5-1.1-2.5-2.5s1.1-2.5,2.5-2.5h4.2c0.4,0,0.7-0.3,0.7-0.7
						c0-0.4-0.3-0.7-0.7-0.7c-1.4,0-2.5-1.1-2.5-2.5s1.1-2.5,2.5-2.5c3.1,0,5.7,2.5,5.7,5.7C541.8,660.3,539.3,662.8,536.1,662.8z"
						/>
					<g>
						<path fill="#4C8AE5" d="M536.1,669.2h-4.2c-1.4,0-2.5-1.1-2.5-2.5s1.1-2.5,2.5-2.5h4.2c0.4,0,0.7-0.3,0.7-0.7
							c0-0.4-0.3-0.7-0.7-0.7c-1.4,0-2.5-1.1-2.5-2.5s1.1-2.5,2.5-2.5c3.1,0,5.7,2.5,5.7,5.7C541.8,666.7,539.3,669.2,536.1,669.2z"
							/>
						<path fill="#4C8AE5" d="M536.1,675.5h-38c-1.4,0-2.5-1.1-2.5-2.5s1.1-2.5,2.5-2.5h38c0.4,0,0.7-0.3,0.7-0.7
							c0-0.4-0.3-0.7-0.7-0.7c-1.4,0-2.5-1.1-2.5-2.5s1.1-2.5,2.5-2.5c3.1,0,5.7,2.5,5.7,5.7C541.8,672.9,539.3,675.5,536.1,675.5z"
							/>
					</g>
				</g>
			</g>
		</g>
	</g>
	<path fill="#4C8AE5" d="M511.9,650.1c-5.3,0-9.7-4.6-9.7-10v-4c0-1.4,1.1-2.5,2.5-2.5s2.5,1.1,2.5,2.5v4c0,2.7,2.2,5,4.7,5
		c1.4,0,2.5,1.1,2.5,2.5S513.3,650.1,511.9,650.1z"/>
</g>
<g>
	<path fill="#4C8AE5" d="M427.9,674.9c-0.1,0-0.3,0-0.4,0c-1.4-0.2-2.3-1.5-2-2.9L440,587c0.2-1.4,1.5-2.3,2.9-2
		c1.4,0.2,2.3,1.5,2,2.9l-14.6,84.9C430.1,674,429,674.9,427.9,674.9z"/>
	<path fill="#4C8AE5" d="M420.9,674.9c-0.1,0-0.3,0-0.4,0c-1.4-0.2-2.3-1.5-2-2.9L433,587c0.2-1.4,1.5-2.3,2.9-2
		c1.4,0.2,2.3,1.5,2,2.9l-14.6,84.9C423.1,674,422.1,674.9,420.9,674.9z"/>
</g>
<g>
	<path fill="#4C8AE5" d="M480.2,674.9c-1.2,0-2.3-0.9-2.5-2.1l-14.6-84.9c-0.2-1.4,0.7-2.7,2-2.9c1.4-0.2,2.7,0.7,2.9,2l14.6,84.9
		c0.2,1.4-0.7,2.7-2,2.9C480.5,674.9,480.3,674.9,480.2,674.9z"/>
	<path fill="#4C8AE5" d="M473.2,674.9c-1.2,0-2.3-0.9-2.5-2.1l-14.6-84.9c-0.2-1.4,0.7-2.7,2-2.9c1.4-0.2,2.7,0.7,2.9,2l14.6,84.9
		c0.2,1.4-0.7,2.7-2,2.9C473.5,674.9,473.4,674.9,473.2,674.9z"/>
</g>
<path fill="#4C8AE5" d="M611.6,473.6h-94.8c-1.4,0-2.5-1.1-2.5-2.5v-77.5c0-1.4,1.1-2.5,2.5-2.5h94.8c1.4,0,2.5,1.1,2.5,2.5v77.5
	C614.1,472.4,613,473.6,611.6,473.6z M519.3,468.6h89.8v-72.5h-89.8V468.6z"/>
<path fill="#4C8AE5" d="M584.1,520.2h-14.6c-1.4,0-2.5-1.1-2.5-2.5s1.1-2.5,2.5-2.5h14.6c1.4,0,2.5,1.1,2.5,2.5
	S585.5,520.2,584.1,520.2z"/>
<path fill="#4C8AE5" d="M820.3,655.9l-0.7-0.3c-2.6-0.9-3.1-2.9-3.2-3.7c-0.3-4.1,5.4-8.2,6.5-8.8c4.1-2.3,9.3-3.2,15.8-2.7
	c1.4,0.1,2.4,1.3,2.3,2.7c-0.1,1.4-1.3,2.4-2.7,2.3c-5.5-0.4-9.8,0.3-13,2.1c-0.8,0.4-2.2,1.7-3.1,2.7c1.6-0.4,3.5-0.9,4.6-1.2
	c8.3-2,18-0.7,27.3,0.7l10.2,0.9c5.8-0.1,10.5-4.8,10.5-10.6c0-1.4,1.1-2.5,2.5-2.5s2.5,1.1,2.5,2.5c0,8.6-7,15.6-15.6,15.6l-0.2,0
	l-10.6-1c-8.8-1.4-18-2.6-25.4-0.8c-2,0.5-7,1.8-7,1.8L820.3,655.9z"/>
<path fill="#4C8AE5" d="M820.9,647.8c-0.6,0-1.1-0.1-1.7-0.2c-2.8-0.8-3.3-2.7-3.3-3.5c-0.3-4.1,6.7-7.5,6.7-7.5
	c4-1.8,9.1-2.5,15.5-2.1c1.4,0.1,2.4,1.2,2.4,2.6c-0.1,1.4-1.3,2.5-2.6,2.4c-5.6-0.3-10,0.3-13.3,1.7c-0.6,0.2-1.4,0.8-2.1,1.3
	c0.5-0.1,0.9-0.3,1.4-0.5c0.9-0.3,1.7-0.6,2.6-0.8c2.4-0.4,5.1-0.7,8.1-0.8c0,0,0,0,0.1,0c1.4,0,2.5,1.1,2.5,2.4
	c0,1.4-1.1,2.5-2.4,2.6c-2.7,0.1-5.1,0.3-7.3,0.7c-0.5,0.1-1.2,0.3-1.9,0.6C824.2,647.2,822.6,647.8,820.9,647.8z"/>
<path fill="#4C8AE5" d="M834.1,663.8h-22.9c-6,0-10.9-4.9-10.9-10.9s4.9-10.9,10.9-10.9h5.6c1.4,0,2.5,1.1,2.5,2.5s-1.1,2.5-2.5,2.5
	h-5.6c-3.2,0-5.9,2.6-5.9,5.9s2.6,5.9,5.9,5.9h22.9c3.2,0,5.9-2.6,5.9-5.9c0-1.4,1.1-2.5,2.5-2.5s2.5,1.1,2.5,2.5
	C845,658.9,840.1,663.8,834.1,663.8z"/>
<path fill="#4C8AE5" d="M668.2,409.9c-1.2,0-2.3-0.9-2.5-2.2c-0.2-1.4,0.8-2.6,2.2-2.8c0,0,0.1,0,0.1,0c0-0.5-0.2-1.5-0.6-2.2
	c-8.7-17.3-28.3-28.2-48.9-27.1c-1.4,0.1-2.6-1-2.6-2.4c-0.1-1.4,1-2.6,2.4-2.6c22.5-1.2,44.1,10.8,53.6,29.9
	c0.3,0.7,1.9,4.2,0.5,6.9c-0.7,1.4-2.1,2.3-3.9,2.5C668.4,409.9,668.3,409.9,668.2,409.9z"/>
<path fill="#4C8AE5" d="M667.1,421.3c-0.6,0-1.3,0-2-0.1c-1.4-0.2-2.3-1.4-2.2-2.8s1.4-2.3,2.8-2.2c1.9,0.2,2.7,0,2.8-0.2
	c0.2-0.3-0.2-1.8-0.7-2.7c-5.6-8.3-13.7-14.6-23.6-18.2c-1.3-0.5-2-1.9-1.5-3.2c0.5-1.3,1.9-2,3.2-1.5c10.9,4,19.9,11,26.1,20.2
	l0.1,0.2c0.4,0.8,2.6,4.9,0.5,8C671.6,420.5,669.8,421.3,667.1,421.3z"/>
<path fill="#4C8AE5" d="M666.8,434.1c-0.6,0-1.3,0-2-0.1c-1.4-0.2-2.3-1.4-2.2-2.8c0.2-1.4,1.4-2.3,2.8-2.2c2.1,0.3,2.9-0.1,2.9-0.2
	c0.2-0.3,0-1.6-0.5-2.7c-5.6-8.2-13.7-14.5-23.6-18.2c-1.3-0.5-2-1.9-1.5-3.2c0.5-1.3,1.9-2,3.2-1.5c10.9,4,19.9,11,26.1,20.2
	l0.1,0.2c0.3,0.5,2.4,4.8,0.2,8C671.4,433.3,669.5,434.1,666.8,434.1z"/>
<path fill="#4C8AE5" d="M666.3,387.2c-2.2,0-4.2-1-5.8-1.8c-0.5-0.3-1-0.5-1.5-0.7c-1.3-0.5-1.9-2-1.3-3.3s2-1.9,3.3-1.3
	c0.6,0.3,1.2,0.6,1.8,0.9c2,1,3.3,1.6,4.4,1.1c0.4-0.2,0.5-0.4,0.5-0.4c0.1-0.3-0.1-1.1-0.6-1.8c-5.2-7-12.1-12.1-21.1-15.5
	c-1.3-0.5-1.9-1.9-1.4-3.2c0.5-1.3,1.9-1.9,3.2-1.5c9.9,3.8,17.5,9.4,23.3,17.2c1.4,1.9,2,4.1,1.5,6c-0.4,1.6-1.6,3-3.2,3.7
	C668.2,387,667.2,387.2,666.3,387.2z"/>
<path fill="#4C8AE5" d="M707.2,312.1c-0.8,0-1.6-0.4-2.1-1.1c-3.4-5-8-9.2-13.2-12c-5.5-3-11.6-4.5-17.9-4.5c-0.7,0-1.5,0-2.3,0.1
	c-1.4,0.1-2.6-0.9-2.7-2.3c-0.1-1.4,0.9-2.6,2.2-2.7c1-0.1,1.9-0.1,2.8-0.1c7.1,0,14.1,1.8,20.3,5.1c6,3.3,11.2,8,15,13.6
	c0.8,1.1,0.5,2.7-0.7,3.5C708.1,312,707.7,312.1,707.2,312.1z"/>
<path fill="#4C8AE5" d="M678.5,440.7l-3.4-0.7l-5.9-8.9c-0.8-1.1-0.5-2.7,0.7-3.5c1.1-0.8,2.7-0.5,3.5,0.7l4.6,6.8l10.8-6.7
	c-1.3-1.9-2.7-3.8-4-5.7c-4.1-5.8-8.3-11.8-12.3-17.7c-3.8-5.6-7.8-11.2-11.7-16.7c-4.6-6.5-9.3-13.2-13.9-20
	c-4.6-6.8-9.7-14.9-12.6-23.7c-3.8-11.9,2.1-25.4,13.3-30.2c3-1.3,6.6-2,9.7-2c1.4,0,2.5,1.1,2.5,2.5c0,1.4-1.1,2.5-2.5,2.5
	c-2.5,0-5.4,0.6-7.8,1.6c-8.7,3.7-13.5,14.7-10.5,24c2.7,8.2,7.5,15.9,12,22.4c4.5,6.7,9.3,13.4,13.9,19.9
	c3.9,5.5,7.8,11.1,11.7,16.7c4.1,5.9,8.3,11.9,12.3,17.6c1.8,2.6,3.7,5.2,5.5,7.9l-0.7,3.6L678.5,440.7z"/>
<path fill="#4C8AE5" d="M698,457.6c-0.6,0-1.1-0.2-1.6-0.5l-20.8-16.4c-1.1-0.9-1.3-2.4-0.4-3.5c0.9-1.1,2.4-1.3,3.5-0.4l15.3,12.1
	l-4.1-19c-0.3-1.3,0.6-2.7,1.9-3c1.3-0.3,2.7,0.6,3,1.9l5.6,25.9c0.2,1-0.2,2.1-1.1,2.7C698.9,457.4,698.4,457.6,698,457.6z"/>
<path fill="#4C8AE5" d="M548.1,264.7c-0.6,0-1.3-0.2-1.8-0.7c-1-1-1-2.6,0-3.5c0.2-0.2,19.4-19.2,24.2-26.7c0.4-0.7,0.5-1.4,0.2-2.3
	c-0.4-1.3-1.5-2.5-2.8-3l-26.6-6.9c-2.3-0.9-4.9,0.3-5.8,2.6c-0.9,2.3,0.3,4.9,2.6,5.8c1.3,0.5,1.9,1.9,1.4,3.2
	c-0.5,1.3-1.9,1.9-3.2,1.4c-4.9-1.9-7.3-7.4-5.4-12.2c1.9-4.8,7.3-7.2,12.1-5.5l26.6,6.9c2.7,1.1,5,3.4,5.9,6.1
	c0.8,2.3,0.5,4.6-0.7,6.5c-5.1,8-24.1,26.8-24.9,27.6C549.4,264.4,548.8,264.7,548.1,264.7z"/>
<path fill="#4C8AE5" d="M409.8,456.3c-0.5,0-1-0.1-1.4-0.4c-6-4.1-9.8-11-10.2-18.5c-0.4-7.7,2.2-13.6,8.5-19.2
	c5.7-5,8.7-8.8,9.7-15.5c0.2-1.5,0.3-3.1,0.3-4.6c0-1.9-0.4-3.9-1-5.8c-0.6-1.8-0.7-3.8-0.3-5.6c1.3-5.6,6.9-9,12.4-7.8
	c3.3,0.6,5.4,3.5,7.3,6c0.8,1,2.3,3.1,2.9,3.1l0,0c0,0,0.6-0.1,1.7-1.5c1.6-1.9,2.1-5.5,2.6-9c0.4-2.4,0.7-4.9,1.5-7
	c2.2-6,6.6-8.9,11-11.3c2.5-1.6,83.8-54.1,84.6-54.7c1.2-0.7,2.7-0.4,3.5,0.7c0.7,1.2,0.4,2.7-0.7,3.5
	c-84.5,54.6-84.8,54.8-84.9,54.8c-4.6,2.5-7.3,4.6-8.8,8.6c-0.6,1.6-0.9,3.7-1.2,6c-0.6,4.1-1.2,8.4-3.7,11.4
	c-1.9,2.3-3.7,3.4-5.7,3.3c-3-0.1-5-2.6-6.8-5.1c-1.3-1.8-2.8-3.8-4.3-4.1l-0.1,0c-2.9-0.7-5.8,1.1-6.5,4c-0.2,1-0.2,2,0.1,2.9
	c0.8,2.4,1.2,4.8,1.3,7.3c0,1.8-0.1,3.7-0.3,5.4c-1.2,8.9-6,13.9-11.3,18.5c-5.1,4.5-7.1,9.1-6.8,15.2c0.3,5.9,3.3,11.4,8.1,14.6
	c1.1,0.8,1.4,2.3,0.6,3.5C411.4,455.9,410.6,456.3,409.8,456.3z"/>
<path fill="#4C8AE5" d="M501.1,310.5c-1.2,0-2.3-0.9-2.5-2.1c-3.2-19.6,6.2-33.2,14.4-45.1c1.4-2,2.6-3.8,3.9-5.7
	c1.5-2.3,3.3-4.5,5-6.6c1.9-2.3,3.7-4.5,5.2-6.9c1.6-2.5,2.5-6.4-0.1-8.9c-0.3-0.2-0.7-0.5-1.6-0.4c-8.2,0.6-27.8,21.9-38.9,36
	c-10.1,12.8-20.6,24.8-38,31.1c-12.7,4.6-26.3,5.3-37.3,1.9c-1.3-0.4-2.1-1.8-1.6-3.1c0.4-1.3,1.8-2.1,3.1-1.7
	c9.9,3.1,22.4,2.4,34.1-1.8c16.2-5.8,26.2-17.3,35.8-29.5c4.9-6.2,29.7-37,42.5-37.9c2.1-0.2,4,0.5,5.4,1.8c4,3.8,4.3,9.7,0.9,15.2
	c-1.7,2.7-3.6,5.1-5.5,7.4c-1.7,2.1-3.3,4.1-4.7,6.2c-1.3,1.9-2.6,3.9-4,5.8c-8.1,11.7-16.5,23.8-13.6,41.5c0.2,1.4-0.7,2.6-2.1,2.9
	C501.4,310.5,501.2,310.5,501.1,310.5z"/>
<path fill="#4C8AE5" d="M660.9,591.5c-11.8,0-22.4-3.3-29.2-9.4c-6.8-6.1-9.7-14.9-8.5-25.4c0.1-0.9,0.2-1.9,0.4-2.9
	c0.9-7.1,2.2-16.7-2.3-21.4c-1.5-1.6-4.1-2-6.8-2.5c-3.1-0.6-6.5-1.2-9-3.7c-7.8-7.9,0.9-18,8.6-27c5.2-6,10.6-12.2,10.3-16.7
	c-0.3-5.4-1.6-10.6-3-16.1c-2.1-8.3-4.3-16.8-2.7-25.9c2.1-11.9,9.4-14.3,15.2-14.3l0.2,0c0.2,0,4.4,0.4,9.9,2.9
	c0.6,0.3,1.1,0.5,1.7,0.7c1.2,0.5,2.4,1.1,3.5,1.6c1.7,0.8,3.4,1.8,5,2.8c1.6,1,3.1,1.9,4.5,2.6c0.6,0.3,1.2,0.6,1.8,1
	c2,1.1,3.2,1.8,4.4,1.3c0.4-0.2,0.5-0.3,0.5-0.4c0.1-0.3,0-1.1-0.5-1.8c-5.6-8.3-13.7-14.6-23.7-18.3c-1.3-0.5-2-1.9-1.5-3.2
	c0.5-1.3,1.9-2,3.2-1.5c10.9,4,19.9,11,26.1,20.2c1.3,2,1.8,4.2,1.2,6.1c-0.5,1.6-1.7,2.9-3.4,3.6c-3.5,1.4-6.5-0.3-8.7-1.6
	c-0.5-0.3-1-0.6-1.5-0.8c-1.6-0.8-3.3-1.8-4.9-2.8c-1.6-0.9-3.2-1.9-4.6-2.6c-1.1-0.5-2.3-1-3.4-1.5c-0.6-0.3-1.1-0.5-1.7-0.8
	c-4.2-1.9-7.6-2.4-8.2-2.5c-3.6,0-8.6,1.2-10.2,10.2c-1.4,8.1,0.5,15.7,2.6,23.8c1.4,5.5,2.9,11.2,3.2,17.1
	c0.3,6.4-5.4,13.1-11.5,20.2c-8.1,9.4-13.1,15.9-8.9,20.2c1.4,1.4,3.8,1.8,6.4,2.3c3.2,0.6,6.8,1.2,9.4,3.9
	c6.3,6.4,4.8,17.5,3.7,25.6c-0.1,1-0.3,1.9-0.4,2.8c-1.1,8.9,1.3,16,6.9,21.1c8.3,7.5,23.7,10.1,39.2,6.6
	c11.6-2.6,26.1-11.8,29.4-22.1c1.4-4.4,2.3-10.1,2.6-16.3c0.1-1.4,1.2-2.4,2.6-2.4c1.4,0.1,2.4,1.2,2.4,2.6
	c-0.3,6.7-1.3,12.6-2.9,17.5c-3.9,12.1-19.9,22.4-33.1,25.4C670.4,591,665.6,591.5,660.9,591.5z"/>
<path fill="#4C8AE5" d="M689.5,449.3c-0.8,0-1.7-0.4-2.1-1.2c-0.7-1.2-0.3-2.7,0.8-3.4l5.6-3.4c1.2-0.7,2.7-0.3,3.4,0.8
	c0.7,1.2,0.3,2.7-0.8,3.4l-5.6,3.4C690.4,449.2,689.9,449.3,689.5,449.3z"/>
<path fill="#4C8AE5" d="M508.7,396.7c-1.4,0-2.5-1.1-2.5-2.5c0-7.3,5.9-13.2,13.2-13.2c0,0,31.9-0.1,60.7-0.1
	c8.1,0,13-3.6,19.8-10.6c5.6-5.9,14.7-11.4,22.4-10.4c4.4,0.6,7.9,3.1,10.3,7.4l3,5.8c0.6,1.2,0.2,2.7-1.1,3.4s-2.7,0.2-3.4-1.1
	l-3-5.7c-1.6-2.8-3.7-4.4-6.5-4.8c-5.9-0.8-13.6,4.1-18.2,8.9c-6.1,6.4-12.5,12.1-23.4,12.1c-28.8,0-60.7,0.1-60.7,0.1
	c-4.5,0-8.2,3.7-8.2,8.2C511.2,395.5,510,396.7,508.7,396.7z"/>
<path fill="#4C8AE5" d="M555.9,483.4C555.9,483.4,555.8,483.4,555.9,483.4c-9.9,0-22.8,0-32.7,0c-1.4,0-2.5-1.1-2.5-2.5
	c0-1.4,1.1-2.5,2.5-2.5c0,0,0,0,0,0c9.9,0,22.8,0,32.7,0c1.4,0,2.5,1.1,2.5,2.5C558.4,482.3,557.2,483.4,555.9,483.4z"/>
<path fill="#4C8AE5" stroke="#231F20" stroke-width="5" stroke-linecap="round" stroke-miterlimit="10" d="M567.9,379.4"/>
<path fill="#4C8AE5" d="M504.7,638.6c-1.4,0-2.5-1.1-2.5-2.5c0-3.7-3-6.6-6.6-6.6s-6.6,3-6.6,6.6c0,1.4-1.1,2.5-2.5,2.5
	s-2.5-1.1-2.5-2.5c0-6.4,5.2-11.6,11.6-11.6s11.6,5.2,11.6,11.6C507.2,637.4,506.1,638.6,504.7,638.6z"/>
<g>
	<g>
		<path fill="#4C8AE5" d="M595.2,632.4c-1.3,0-2.7-0.1-4.1-0.4c-5.6-1.2-10-5.2-12.9-8.1c-1.4-1.4-2.5-2.6-3.7-3.8
			c-2-2.1-4-4.2-7.7-7.7c-1-1-1-2.5-0.1-3.5c1-1,2.5-1,3.5-0.1c3.8,3.6,5.8,5.8,7.8,7.9c1.1,1.2,2.2,2.4,3.6,3.7
			c2.4,2.4,6.1,5.8,10.4,6.7c3.6,0.8,7.4,0.1,9.8-1.8c0.9-0.7,1.6-1.7,2.4-2.8c0.4-0.6,0.9-1.2,1.4-1.9c1.3-1.6,2.6-3.2,3.9-4.7
			c0.9-1.1,2.5-1.2,3.5-0.3c1.1,0.9,1.2,2.5,0.3,3.5c-1.3,1.5-2.6,3.1-3.9,4.7c-0.4,0.5-0.8,1-1.2,1.6c-0.9,1.2-1.9,2.7-3.4,3.9
			C602.5,631.3,598.9,632.4,595.2,632.4z"/>
		<g>
			<g>
				<path fill="#4C8AE5" d="M595.2,600.1c-0.6,0-1.1-0.2-1.6-0.6c-1.1-0.9-1.2-2.5-0.3-3.5l14.6-17.4c0.9-1.2,2.3-1.9,3.8-2
					c1.5-0.2,3,0.3,4.1,1.3c1.2,1,1.9,2.3,2,3.8c0.1,1.5-0.3,3-1.3,4.1l-2.7,3.3c-0.9,1.1-2.5,1.2-3.5,0.3c-1.1-0.9-1.2-2.5-0.3-3.5
					l2.7-3.3c0.1-0.2,0.2-0.4,0.1-0.5c0-0.1-0.1-0.3-0.2-0.5c-0.2-0.1-0.4-0.2-0.5-0.2c-0.1,0-0.3,0.1-0.4,0.2l-14.6,17.4
					C596.7,599.8,595.9,600.1,595.2,600.1z"/>
				<g>
					<path fill="#4C8AE5" d="M616.9,594c-0.6,0-1.1-0.2-1.6-0.6c-1.1-0.9-1.2-2.5-0.3-3.5l2.7-3.3c0.2-0.3,0.2-0.7-0.1-0.9
						c-0.2-0.1-0.4-0.2-0.5-0.1c-0.1,0-0.3,0.1-0.4,0.2c-0.9,1.1-2.5,1.2-3.5,0.3c-1.1-0.9-1.2-2.5-0.3-3.5c1-1.2,2.3-1.9,3.8-2
						c1.5-0.1,3,0.3,4.2,1.3c2.4,2,2.8,5.6,0.8,8l-2.7,3.3C618.4,593.7,617.6,594,616.9,594z"/>
					<g>
						<path fill="#4C8AE5" d="M621.9,598.1c-0.6,0-1.1-0.2-1.6-0.6c-1.1-0.9-1.2-2.5-0.3-3.5l2.7-3.3c0.1-0.2,0.2-0.4,0.1-0.5
							c0-0.1-0.1-0.3-0.2-0.5c-0.3-0.2-0.7-0.2-0.9,0.1c-0.9,1.1-2.5,1.2-3.5,0.3c-1.1-0.9-1.2-2.5-0.3-3.5c2-2.4,5.6-2.8,8-0.8
							c1.2,1,1.9,2.3,2,3.8c0.1,1.5-0.3,3-1.3,4.1l-2.7,3.3C623.3,597.8,622.6,598.1,621.9,598.1z"/>
						<path fill="#4C8AE5" d="M605.2,628.1c-0.6,0-1.1-0.2-1.6-0.6c-1.1-0.9-1.2-2.5-0.3-3.5l24.2-29.3c0.1-0.2,0.2-0.4,0.2-0.5
							c0-0.1-0.1-0.3-0.2-0.5c-0.2-0.1-0.4-0.2-0.5-0.1c-0.1,0-0.3,0.1-0.4,0.2c-0.9,1.1-2.5,1.2-3.5,0.3c-1.1-0.9-1.2-2.5-0.3-3.5
							c1-1.2,2.3-1.9,3.8-2c1.5-0.1,3,0.3,4.2,1.3c1.2,1,1.9,2.3,2,3.8c0.1,1.5-0.3,3-1.3,4.1l-24.1,29.3
							C606.6,627.8,605.9,628.1,605.2,628.1z"/>
					</g>
				</g>
			</g>
		</g>
	</g>
	<path fill="#4C8AE5" d="M588.2,603.2c-2.2,0-4.3-0.7-5.8-1.9l-3.1-2.5c-1.1-0.9-1.2-2.5-0.3-3.5c0.9-1.1,2.5-1.2,3.5-0.3l3.1,2.5
		c0.9,0.7,2.2,1,3.8,0.7c1.6-0.3,3.1-1.1,3.9-2.1c0.9-1.1,2.5-1.2,3.5-0.3c1.1,0.9,1.2,2.5,0.3,3.5c-1.6,2-4.1,3.4-6.9,3.8
		C589.6,603.1,588.9,603.2,588.2,603.2z"/>
</g>
<path fill="#4C8AE5" d="M568.4,613c-0.6,0-1.3-0.2-1.8-0.7c-4.5-4.5-4.5-11.9,0-16.5c4.5-4.5,11.9-4.5,16.5,0c1,1,1,2.6,0,3.5
	c-1,1-2.6,1-3.5,0c-2.6-2.6-6.8-2.6-9.4,0c-2.6,2.6-2.6,6.8,0,9.4c1,1,1,2.6,0,3.5C569.7,612.7,569.1,613,568.4,613z"/>
<path fill="#4C8AE5" d="M838.5,619.3c-4.8,0-8.3-2.2-10.4-6.5c-1.6-3.3-2.2-7.7-2.8-11.8l0-0.3c-1.4-10.1-2.9-16.2-11.4-16.2h-0.7
	c-7.4,0-13.4-5.9-13.4-13.1c0-4.3,0.5-9.1,6.8-11.1c0.7-0.2,1.4-0.4,2.1-0.6c2.9-0.8,5.3-1.5,6.7-3.6c1.7-2.5,1.7-6.2,1.8-9.8
	c0-1.1,0-2.2,0.1-3.3c0-0.7,0.1-1.5,0.2-2.1c0.2-1.4,1.5-2.3,2.8-2.1c1.4,0.2,2.3,1.5,2.1,2.8c-0.1,0.5-0.1,1.1-0.2,1.7
	c-0.1,1-0.1,2-0.1,3.1c0,4.1,0,8.8-2.6,12.6c-2.4,3.5-6.2,4.6-9.5,5.6c-0.7,0.2-1.3,0.4-2,0.6c-2.7,0.9-3.3,2.1-3.3,6.4
	c0,4.4,3.8,8.1,8.4,8.1h0.7c13.4,0,15.1,11.8,16.4,20.5l0,0.3c0.6,4,1.1,7.7,2.4,10.3c1.2,2.6,3,3.7,5.9,3.7c4.5,0,8.1-3.7,8.1-8.1
	c0-1.4,1.1-2.5,2.5-2.5s2.5,1.1,2.5,2.5C851.7,613.4,845.8,619.3,838.5,619.3z"/>
<path fill="#4C8AE5" d="M629.1,675.1c-1.6,0-3.3-0.2-5-0.8c-3.1-1-5.5-3.2-6.9-6.5c-2.3-5.4-1.2-12.7,0.9-16.8
	c4.7-9.2,14.1-16.8,22.4-23.2c8.1-6.2,16.7-11.1,25.1-14.5c1.4-9,1.6-17.4,0.9-24c-0.1-1.4,0.9-2.6,2.2-2.7c1.4-0.1,2.6,0.9,2.7,2.2
	c0.7,6.5,0.6,14.3-0.5,22.6c2.6-0.8,5.1-1.5,7.5-2c15.9-3.2,29.4,0.1,40.3,9.8c4,3.6,8.3,9.4,13.2,16.1
	c12.2,16.6,27.3,37.2,43.5,28.3c11.9-6.5,12.9-25,13.6-38.5c0.1-1.9,0.2-3.7,0.3-5.3c0.7-9.7,1.2-19.6,1.7-29.1
	c0.4-7.5,0.8-15.3,1.3-23c0.1-1.7,0.2-3.4,0.3-5.2c0.1-2.4,0.3-4.9,0.4-7.4c0.1-1.4,1.3-2.4,2.7-2.3c1.4,0.1,2.4,1.3,2.3,2.7
	c-0.2,2.4-0.3,4.9-0.4,7.3c-0.1,1.7-0.2,3.5-0.3,5.2c-0.5,7.6-0.9,15.4-1.3,22.9c-0.5,9.6-1,19.5-1.7,29.2c-0.1,1.6-0.2,3.4-0.3,5.3
	c-0.8,14.7-1.9,34.8-16.2,42.6c-3.6,1.9-7,2.8-10.4,2.8c-15.6,0-29.2-18.4-39.5-32.6c-4.6-6.2-8.9-12.1-12.5-15.3
	c-9.6-8.6-21.7-11.5-36-8.6c-3.1,0.6-6.2,1.5-9.4,2.7c-2.1,11.5-6.3,23.6-13.5,34.6l-0.4,0.6C651,660.5,641.5,675.1,629.1,675.1z
	 M664.6,619.3c-7,3.1-14.2,7.4-21,12.6c-7.9,6.1-16.8,13.2-21,21.5c-1.6,3.1-2.3,8.7-0.7,12.6c0.8,1.9,2,3.1,3.8,3.6
	c1.2,0.4,2.3,0.5,3.4,0.5c9.7,0,18-12.7,23.1-20.6l0.4-0.6C658.7,639.6,662.5,629.2,664.6,619.3z"/>
<path fill="#4C8AE5" stroke="#231F20" stroke-width="5" stroke-miterlimit="10" d="M790.4,517.4"/>
<g>
	<g>
		<path fill="#4C8AE5" d="M794,536.9c-1.4,0-2.5-1.1-2.5-2.5c0-1.4,1.1-2.5,2.5-2.5l10.2,0c0.4,0,0.8-0.2,1.1-0.4
			c0.3-0.3,0.4-0.6,0.4-1c0-0.4-0.2-0.7-0.4-1c-0.3-0.3-0.7-0.4-1.1-0.4c0,0,0,0,0,0l-10.2,0c0,0,0,0,0,0c-1.4,0-2.5-1.1-2.5-2.5
			c0-1.4,1.1-2.5,2.5-2.5l10.2,0c0,0,0,0,0,0c1.7,0,3.4,0.7,4.6,1.9c1.3,1.2,1.9,2.8,1.9,4.6c0,1.7-0.7,3.4-1.9,4.6
			c-1.2,1.2-2.9,1.9-4.6,1.9L794,536.9C794.1,536.9,794.1,536.9,794,536.9z"/>
		<path fill="#4C8AE5" d="M794,528.7c-1.4,0-2.5-1.1-2.5-2.5c0-1.4,1.1-2.5,2.5-2.5l10.2,0c0.4,0,0.8-0.2,1.1-0.4
			c0.3-0.3,0.4-0.6,0.4-1c0-0.4-0.2-0.7-0.4-1c-0.3-0.3-0.7-0.4-1.1-0.4c0,0,0,0,0,0l-10.2,0c0,0,0,0,0,0c-1.4,0-2.5-1.1-2.5-2.5
			c0-1.4,1.1-2.5,2.5-2.5l10.2,0c0,0,0,0,0,0c1.7,0,3.4,0.7,4.6,1.9c1.3,1.2,1.9,2.8,2,4.6c0,1.7-0.7,3.4-1.9,4.6
			c-1.2,1.2-2.9,1.9-4.6,1.9L794,528.7C794,528.7,794,528.7,794,528.7z"/>
		<path fill="#4C8AE5" d="M804.3,544.6c-1.4,0-2.5-1.1-2.5-2.5c0-1.4,1.1-2.5,2.5-2.5c0.4,0,0.8-0.2,1.1-0.4c0.3-0.3,0.4-0.6,0.4-1
			c0-0.4-0.2-0.7-0.4-1c-0.3-0.3-0.7-0.4-1.1-0.4c0,0,0,0,0,0l-10.2,0c0,0,0,0,0,0c-1.4,0-2.5-1.1-2.5-2.5c0-1.4,1.1-2.5,2.5-2.5
			l10.2,0c1.7-0.1,3.4,0.7,4.6,1.9c1.3,1.2,1.9,2.8,2,4.6c0,1.7-0.7,3.4-1.9,4.6C807.7,543.9,806.1,544.6,804.3,544.6
			C804.3,544.6,804.3,544.6,804.3,544.6z"/>
		<path fill="#4C8AE5" d="M794,520.6c-1.4,0-2.5-1.1-2.5-2.5c0-1.4,1.1-2.5,2.5-2.5l10.2,0c0.4,0,0.8-0.2,1.1-0.4
			c0.3-0.3,0.4-0.6,0.4-1c0-0.8-0.7-1.5-1.5-1.5c0,0,0,0,0,0l-13.8,0.1c0,0,0,0,0,0c-1.4,0-2.5-1.1-2.5-2.5c0-1.4,1.1-2.5,2.5-2.5
			l13.8-0.1c0,0,0,0,0,0c3.6,0,6.5,2.9,6.5,6.4c0,1.7-0.7,3.4-1.9,4.6c-1.2,1.2-2.9,1.9-4.6,1.9L794,520.6
			C794,520.6,794,520.6,794,520.6z"/>
	</g>
	<path fill="#4C8AE5" d="M802.8,655.7C802.8,655.7,802.8,655.7,802.8,655.7c-14.4,0-29-4.2-42.4-12c-14.2-8.3-23.1-20.5-26.2-36.1
		c-6.1-30.5,11.1-70.6,30.9-96.8c8.3-11,12.7-24.1,12.7-37.9c0-17.8-7.5-34.3-21.2-46.4c-8.9-7.9-19.1-11.1-30-14.5
		c-7.2-2.2-14.7-4.6-21.8-8.4c-3.6-1.9-17.9-11.3-17.8-19.6c0-2,0.9-4.9,4.9-7c2.3-1.2,13.7-7.6,9.8-16c-0.6-1.4-2.6-3.8-4.7-6.4
		c-5.3-6.6-11.8-14.8-10.5-21.4c0.5-2.6,2.1-4.6,4.6-6c4.1-2.3,8.7-0.3,12.9,1.5c2.6,1.1,5.6,2.4,7,1.8c0.5-0.2,1-0.9,1.4-2
		c1.2-3.3-2.6-9.9-5.1-14.2c-0.8-1.5-1.6-2.9-2.2-4c-0.6-1.2-0.1-2.7,1.2-3.3c1.2-0.6,2.7-0.1,3.3,1.2c0.5,1,1.2,2.3,2,3.7
		c3.3,5.8,7.4,12.9,5.4,18.4c-0.9,2.4-2.2,4.1-4.1,4.9c-3.4,1.5-7.2-0.2-10.9-1.7c-3.2-1.4-6.5-2.8-8.5-1.7c-1.7,0.9-2,1.9-2.2,2.6
		c-0.9,4.3,5.4,12.2,9.5,17.3c2.5,3.1,4.4,5.5,5.3,7.4c3,6.4,1.4,15.6-12,22.6c-2.1,1.1-2.2,2.2-2.2,2.6c0,4.3,9.8,12.3,15.2,15.1
		c6.7,3.6,13.9,5.8,20.9,8c10.9,3.4,22.2,6.9,31.8,15.5c14.8,13.2,22.9,31,22.9,50.2c0,14.9-4.7,29-13.7,40.9
		c-19.1,25.3-35.8,63.8-30,92.8c2.9,14.2,10.9,25.2,23.8,32.8c12.6,7.3,26.4,11.2,39.9,11.3c1.4,0,2.5,1.1,2.5,2.5
		C805.3,654.6,804.2,655.7,802.8,655.7z"/>
</g>
<path fill="#4C8AE5" d="M795.8,557.9c-1.4,0-2.5-1.1-2.5-2.5v-6.7c0-4.9,4-8.9,8.9-8.9h1.7c1.4,0,2.5,1.1,2.5,2.5
	c0,1.4-1.1,2.5-2.5,2.5h-1.7c-2.2,0-3.9,1.8-3.9,3.9v6.7C798.3,556.8,797.1,557.9,795.8,557.9z"/>
<path fill="#4C8AE5" stroke="#231F20" stroke-width="5" stroke-miterlimit="10" d="M854.8,517.4"/>
<g>
	<path fill="#4C8AE5" d="M851.1,536.9C851.1,536.9,851.1,536.9,851.1,536.9l-10.2,0c-1.7,0-3.4-0.7-4.6-1.9
		c-1.2-1.2-1.9-2.9-1.9-4.6c0-3.6,3-6.4,6.6-6.4l10.2,0c1.4,0,2.5,1.1,2.5,2.5c0,1.4-1.1,2.5-2.5,2.5c0,0,0,0,0,0l-10.2,0
		c0,0,0,0,0,0c-0.8,0-1.5,0.7-1.5,1.5c0,0.4,0.2,0.7,0.4,1c0.3,0.3,0.7,0.4,1.1,0.4l10.2,0c1.4,0,2.5,1.1,2.5,2.5
		C853.6,535.8,852.5,536.9,851.1,536.9z"/>
	<path fill="#4C8AE5" d="M851.1,528.7C851.1,528.7,851.1,528.7,851.1,528.7l-10.2,0c-1.7,0-3.4-0.7-4.6-1.9
		c-1.2-1.2-1.9-2.9-1.9-4.6c0-1.7,0.7-3.4,1.9-4.6c1.2-1.2,2.9-1.9,4.6-1.9c0,0,0,0,0,0l10.2,0c1.4,0,2.5,1.1,2.5,2.5
		c0,1.4-1.1,2.5-2.5,2.5c0,0,0,0,0,0l-10.2,0c0,0,0,0,0,0c-0.4,0-0.8,0.2-1.1,0.4c-0.3,0.3-0.4,0.6-0.4,1c0,0.4,0.2,0.7,0.4,1
		c0.3,0.3,0.7,0.4,1.1,0.4l10.2,0c1.4,0,2.5,1.1,2.5,2.5C853.6,527.6,852.5,528.7,851.1,528.7z"/>
	<path fill="#4C8AE5" d="M840.8,544.6C840.8,544.6,840.8,544.6,840.8,544.6c-1.7,0-3.4-0.7-4.6-1.9c-1.2-1.2-1.9-2.9-1.9-4.6
		c0-3.6,2.9-6.4,6.5-6.4c0,0,0,0,0,0l10.2,0c1.4,0,2.5,1.1,2.5,2.5c0,1.4-1.1,2.5-2.5,2.5c0,0,0,0,0,0l-10.2,0c0,0,0,0,0,0
		c-0.8,0-1.5,0.7-1.5,1.5c0,0.4,0.2,0.7,0.4,1c0.3,0.3,0.7,0.4,1.1,0.4c1.4,0,2.5,1.1,2.5,2.5C843.3,543.5,842.2,544.6,840.8,544.6z
		"/>
	<path fill="#4C8AE5" d="M851.2,520.6C851.2,520.6,851.2,520.6,851.2,520.6l-10.2,0c-1.7,0-3.4-0.7-4.6-1.9
		c-1.2-1.2-1.9-2.9-1.9-4.6c0-3.6,2.9-6.4,6.5-6.4c0,0,0,0,0,0l13.8,0.1c1.4,0,2.5,1.1,2.5,2.5c0,1.4-1.1,2.5-2.5,2.5c0,0,0,0,0,0
		l-13.8-0.1c0,0,0,0,0,0c-0.8,0-1.5,0.7-1.5,1.5c0,0.4,0.2,0.7,0.4,1c0.3,0.3,0.7,0.4,1.1,0.5l10.2,0c1.4,0,2.5,1.1,2.5,2.5
		C853.7,519.5,852.6,520.6,851.2,520.6z"/>
</g>
<path fill="#4C8AE5" d="M877.4,642.5c-1.3,0-2.4-1-2.5-2.2c-1.2-12.1-10.5-100.6-12.9-114.3l0-0.2c-0.4-3.4-2.4-13.2-7.2-13.2
	c-1.4,0-2.5-1.1-2.5-2.5s1.1-2.5,2.5-2.5c3.1,0,7.4,1.6,10.2,9.4c1.4,3.8,1.9,7.5,1.9,8.2c2.5,14.3,11.7,101.8,13,114.5
	c0.1,1.4-0.9,2.6-2.2,2.7C877.5,642.5,877.5,642.5,877.4,642.5z"/>
<path fill="#4C8AE5" d="M849.4,608.8c-1.4,0-2.5-1.1-2.5-2.5v-57.6c0-2.2-1.8-3.9-3.9-3.9h-2c-1.4,0-2.5-1.1-2.5-2.5
	s1.1-2.5,2.5-2.5h2c4.9,0,8.9,4,8.9,8.9v57.6C851.9,607.6,850.8,608.8,849.4,608.8z"/>
<path fill="#4C8AE5" d="M822.6,534.8c-6.9,0-12.5-5.6-12.5-12.5c0-6.9,5.6-12.5,12.5-12.5s12.5,5.6,12.5,12.5
	C835.1,529.2,829.5,534.8,822.6,534.8z M822.6,514.7c-4.2,0-7.5,3.4-7.5,7.5c0,4.2,3.4,7.5,7.5,7.5s7.5-3.4,7.5-7.5
	C830.1,518.1,826.7,514.7,822.6,514.7z"/>
<path fill="#4C8AE5" d="M796.6,512.7c-1.4,0-2.5-1.1-2.5-2.5V507c0-1.4,1.1-2.5,2.5-2.5h48.5c1.4,0,2.5,1.1,2.5,2.5v3.1
	c0,1.4-1.1,2.5-2.5,2.5s-2.5-1.1-2.5-2.5v-0.6h-43.5v0.7C799.1,511.6,798,512.7,796.6,512.7z"/>
<path fill="#4C8AE5" d="M836.9,541.6h-28.6c-1.4,0-2.5-1.1-2.5-2.5c0-1.4,1.1-2.5,2.5-2.5h28.6c1.4,0,2.5,1.1,2.5,2.5
	C839.4,540.4,838.2,541.6,836.9,541.6z"/>
<path fill="#4C8AE5" d="M837.8,509.6h-13.5c-1.4,0-2.5-1.1-2.5-2.5v-5.6c0-1.4,1.1-2.5,2.5-2.5h13.5c1.4,0,2.5,1.1,2.5,2.5v5.6
	C840.3,508.5,839.2,509.6,837.8,509.6z M826.8,504.6h8.5V504h-8.5V504.6z"/>
<path fill="#4C8AE5" d="M491,441c-3.2,0-5.8-2.6-5.8-5.8v-7.6c0-3.2,2.6-5.8,5.8-5.8c3.2,0,5.8,2.6,5.8,5.8v7.6
	C496.8,438.3,494.2,441,491,441z M491,426.6c-0.5,0-0.8,0.4-0.8,0.8v7.6c0,0.5,0.4,0.8,0.8,0.8c0.5,0,0.8-0.4,0.8-0.8v-7.6
	C491.8,427,491.4,426.6,491,426.6z"/>
<path fill="#4C8AE5" d="M463.1,169.6c-3.2,0-5.8-2.6-5.8-5.8v-6.6c0-3.2,2.6-5.8,5.8-5.8c3.2,0,5.8,2.6,5.8,5.8v6.6
	C469,167,466.3,169.6,463.1,169.6z M463.1,156.2c-0.5,0-0.8,0.4-0.8,0.8v6.6c0,0.5,0.4,0.8,0.8,0.8c0.5,0,0.8-0.4,0.8-0.8v-6.6
	C464,156.6,463.6,156.2,463.1,156.2z"/>
<path fill="#4C8AE5" d="M471,169.6c-3.2,0-5.8-2.6-5.8-5.8v-7.6c0-3.2,2.6-5.8,5.8-5.8c3.2,0,5.8,2.6,5.8,5.8v7.6
	C476.9,167,474.2,169.6,471,169.6z M471,155.2c-0.5,0-0.8,0.4-0.8,0.8v7.6c0,0.5,0.4,0.8,0.8,0.8c0.5,0,0.8-0.4,0.8-0.8v-7.6
	C471.9,155.6,471.5,155.2,471,155.2z"/>
<path fill="#4C8AE5" d="M478.9,169.6c-3.2,0-5.8-2.6-5.8-5.8v-7.6c0-3.2,2.6-5.8,5.8-5.8c3.2,0,5.8,2.6,5.8,5.8v7.6
	C484.7,167,482.1,169.6,478.9,169.6z M478.9,155.2c-0.5,0-0.8,0.4-0.8,0.8v7.6c0,0.5,0.4,0.8,0.8,0.8c0.5,0,0.8-0.4,0.8-0.8v-7.6
	C479.7,155.6,479.4,155.2,478.9,155.2z"/>
<path fill="#4C8AE5" d="M486.8,169.6c-3.2,0-5.8-2.6-5.8-5.8v-4.6c0-3.2,2.6-5.8,5.8-5.8c3.2,0,5.8,2.6,5.8,5.8v4.6
	C492.6,167,490,169.6,486.8,169.6z M486.8,158.2c-0.5,0-0.8,0.4-0.8,0.8v4.6c0,0.5,0.4,0.8,0.8,0.8c0.5,0,0.8-0.4,0.8-0.8v-4.6
	C487.6,158.6,487.3,158.2,486.8,158.2z"/>
<path fill="#4C8AE5" d="M482.3,437.7c-3.2,0-5.8-2.6-5.8-5.8v-6c0-3.2,2.6-5.8,5.8-5.8c3.2,0,5.8,2.6,5.8,5.8v6
	C488.1,435.1,485.5,437.7,482.3,437.7z M482.3,425.1c-0.5,0-0.8,0.4-0.8,0.8v6c0,0.5,0.4,0.8,0.8,0.8c0.5,0,0.8-0.4,0.8-0.8v-6
	C483.1,425.5,482.7,425.1,482.3,425.1z"/>
<path fill="#4C8AE5" d="M471.1,439.9c-3.2,0-5.8-2.6-5.8-5.8v-6c0-3.2,2.6-5.8,5.8-5.8c3.2,0,5.8,2.6,5.8,5.8v6
	C477,437.3,474.3,439.9,471.1,439.9z M471.1,427.2c-0.5,0-0.8,0.4-0.8,0.8v6c0,0.5,0.4,0.8,0.8,0.8c0.5,0,0.8-0.4,0.8-0.8v-6
	C472,427.6,471.6,427.2,471.1,427.2z"/>
<path fill="#4C8AE5" stroke="#231F20" stroke-width="5" stroke-linecap="round" stroke-miterlimit="10" d="M467.7,447.6"/>
<g>
	<path fill="#4C8AE5" d="M483.8,449.9h-4.4c-1.4,0-2.5-1.1-2.5-2.5s1.1-2.5,2.5-2.5h3c0.3-0.3,0.4-0.7,0.4-1.1
		c0-0.9-0.7-1.6-1.6-1.6h-7.6c-1.4,0-2.5-1.1-2.5-2.5s1.1-2.5,2.5-2.5h7.6c3.6,0,6.6,3,6.6,6.6c0,2.4-1.3,4.6-3.4,5.8L483.8,449.9z"
		/>
</g>
<path fill="#4C8AE5" d="M488.2,471.5c-12.6,0-22.9-10.3-22.9-22.9v-1c0-5.6,4.9-10.4,10.7-10.4c1.4,0,2.5,1.1,2.5,2.5
	s-1.1,2.5-2.5,2.5c-3,0-5.7,2.5-5.7,5.4v1c0,9.9,8,17.9,17.9,17.9c9.8,0,17.5-7.8,17.5-17.7c0-1.4,1.1-2.5,2.5-2.5s2.5,1.1,2.5,2.5
	C510.6,461.6,500.8,471.5,488.2,471.5z"/>
<path fill="#4C8AE5" d="M494.3,465.6c-1.4,0-2.5-1.1-2.5-2.5v-29.4c0-1.4,1.1-2.5,2.5-2.5s2.5,1.1,2.5,2.5v29.4
	C496.8,464.4,495.7,465.6,494.3,465.6z"/>
<path fill="#4C8AE5" d="M803.2,336.5c-0.1,0-0.1,0-0.2,0l-30.3-2c-1.3-0.1-2.3-1.2-2.3-2.5v-5c0-1.3,1.1-2.5,2.4-2.5l27.3-0.9
	c1.1-2.9,3.6-7.7,9.1-8.5c0.1,0,0.2,0,0.3,0c1.5,0,3.5,0.7,4.3,2.6c1.4,3.2-1.6,7.1-4,9.8c-0.5,0.5-1.1,0.8-1.8,0.8l-5.4,0.2
	c-0.4,0.2-0.9,0.2-1.4,0.1c-0.1,0-0.1,0-0.2,0l-25.8,0.9v0.3l28,1.8c1.4,0.1,2.4,1.3,2.3,2.7C805.6,335.5,804.5,336.5,803.2,336.5z
	 M809,320.2c-1.5,0.6-2.6,1.9-3.4,3.2l1.2,0C808.1,321.8,808.7,320.8,809,320.2z"/>
<path fill="#4C8AE5" d="M457.9,246c-1.4,0-2.5-1.1-2.5-2.5v-61.6c0-1.4,1.1-2.5,2.5-2.5s2.5,1.1,2.5,2.5v61.6
	C460.4,244.9,459.3,246,457.9,246z"/>
<path fill="#4C8AE5" d="M467.6,198.9c-1.3,0-2.4-1.1-2.5-2.4l-0.5-14.4c0-1.2-0.9-2.2-2.1-2.2c-1.2,0-2.1,0.9-2.1,2.1
	c0,1.4-1.1,2.5-2.5,2.5s-2.5-1.1-2.5-2.5c0-3.9,3.2-7.1,7.1-7.1c3.9,0,7.1,3.2,7.1,7.1l0.5,14.3
	C470.2,197.6,469.1,198.8,467.6,198.9C467.7,198.9,467.7,198.9,467.6,198.9z"/>
<path fill="#4C8AE5" d="M489.1,199.1c-1.4,0-2.5-1.1-2.5-2.5v-19.8c0-1.4,1.1-2.5,2.5-2.5s2.5,1.1,2.5,2.5v19.8
	C491.6,198,490.5,199.1,489.1,199.1z"/>
<g>
	<path fill="#4C8AE5" d="M852.2,341.6c-5.3,0-9.9-0.9-12.1-4.6c-0.3-0.6-0.4-1.2-0.3-1.9l1-4.2l-7.1-0.2c-1.4,0-2.5-1.2-2.4-2.6
		c0-1.4,1.3-2.4,2.6-2.4L844,326c0.7,0,1.4,0.4,1.9,1c0.5,0.6,0.6,1.4,0.5,2.1l-1.4,6c2.6,2.2,10,1.5,15.6,1
		c5.6-0.5,10.5-0.9,13.6,0.5c1.3,0.6,1.8,2,1.3,3.3c-0.6,1.3-2,1.8-3.3,1.3c-2-0.9-6.8-0.4-11.2-0.1
		C858,341.4,855,341.6,852.2,341.6z"/>
	<path fill="#4C8AE5" d="M872.5,339.5c-0.8,0-1.6-0.4-2.1-1.2c-1.6-2.6-6.1-5.2-8.4-6.6l-0.3-0.2c-5.3-3.1-11.3-3.6-16.9-1.4
		c-1.3,0.5-2.7-0.1-3.3-1.4c-0.5-1.3,0.1-2.7,1.4-3.3c6.9-2.8,14.7-2.2,21.2,1.7l0.3,0.2c2.9,1.7,7.9,4.6,10.1,8.2
		c0.7,1.2,0.4,2.7-0.8,3.4C873.4,339.4,873,339.5,872.5,339.5z"/>
	<path fill="#4C8AE5" d="M840.6,338.6c-0.1,0-0.1,0-0.2,0l-10.1-0.8c-1.4-0.1-2.4-1.3-2.3-2.7c0.1-1.4,1.3-2.4,2.7-2.3l10.1,0.8
		c1.4,0.1,2.4,1.3,2.3,2.7C843,337.6,841.9,338.6,840.6,338.6z"/>
</g>
<path fill="#4C8AE5" stroke="#231F20" stroke-width="5" stroke-linecap="round" stroke-miterlimit="10" d="M763.2,579.5"/>
<path fill="#4C8AE5" d="M882.2,357.2c-1.4,0-2.5-1.1-2.5-2.5c0-7-4-13.6-10.3-17.3c-1.2-0.7-1.6-2.2-0.9-3.4
	c0.7-1.2,2.2-1.6,3.4-0.9c7.9,4.6,12.8,12.9,12.8,21.6C884.7,356.1,883.5,357.2,882.2,357.2z"/>
<g>
	<g>
		<path fill="#4C8AE5" d="M890.4,483.5c-1.3,0-2.5-1.1-2.5-2.4c-0.3-10.4-7.6-12.6-19.6-14.9c-11-2.1-23.4-4.5-23.4-20.2
			c0-9.4,6.5-17.7,15.4-19.9c2.2-0.5,4.2-0.8,6.2-1c5.4-0.7,9-1.1,11.7-6.6c1.8-3.6,1.7-7.6,1.6-11.8l0-1.5c0-1.8,0-7.1,0-13.7
			c0.1-13,0.1-32.8-0.2-36.5c-0.1-1.4,0.9-2.6,2.3-2.7c1.4-0.1,2.6,0.9,2.7,2.3c0.3,3.9,0.2,22.9,0.2,36.9c0,6.6,0,11.8,0,13.6
			l0,1.5c0.1,4.7,0.2,9.5-2.1,14.2c-3.9,7.8-9.8,8.6-15.6,9.3c-1.8,0.2-3.7,0.5-5.6,0.9c-6.7,1.6-11.6,8-11.6,15.1
			c0,10.9,7.3,12.9,19.3,15.3c10.9,2.1,23.2,4.5,23.7,19.7C892.9,482.2,891.9,483.4,890.4,483.5
			C890.4,483.5,890.4,483.5,890.4,483.5z"/>
		<g>
			<g>
				<path fill="#4C8AE5" d="M827.3,405.7c-1.5,0-3-0.6-4.1-1.7c-1.1-1.1-1.7-2.6-1.7-4.1c0-3.2,2.6-5.8,5.8-5.9l19.7-0.1
					c1.4,0,2.5,1.1,2.5,2.5s-1.1,2.5-2.5,2.5h-2.2l-17.6,0.1c-0.5,0-0.8,0.4-0.8,0.8c0,0.3,0.2,0.5,0.2,0.6c0.1,0.1,0.3,0.2,0.6,0.2
					c0,0,0,0,0,0l4.4,0c0,0,0,0,0,0c1.4,0,2.5,1.1,2.5,2.5c0,1.4-1.1,2.5-2.5,2.5L827.3,405.7C827.3,405.7,827.3,405.7,827.3,405.7z
					"/>
				<g>
					<path fill="#4C8AE5" d="M827.3,412.4c-3.2,0-5.8-2.6-5.8-5.8c0-3.2,2.6-5.8,5.8-5.9c1.3,0,2.5,1.1,2.5,2.5s-1.1,2.5-2.5,2.5
						c-0.5,0-0.8,0.4-0.8,0.8c0,0.5,0.4,0.8,0.8,0.8c0,0,0,0,0,0l4.4,0c0,0,0,0,0,0c1.4,0,2.5,1.1,2.5,2.5c0,1.4-1.1,2.5-2.5,2.5
						L827.3,412.4C827.3,412.4,827.3,412.4,827.3,412.4z"/>
					<g>
						<path fill="#4C8AE5" d="M827.4,419.1c-3.2,0-5.8-2.6-5.8-5.8c0-3.2,2.6-5.8,5.8-5.9c0,0,0,0,0,0c1.4,0,2.5,1.1,2.5,2.5
							c0,1.4-1.1,2.5-2.5,2.5c-0.5,0-0.8,0.4-0.8,0.8c0,0.5,0.4,0.8,0.8,0.8c0,0,0,0,0,0l4.4,0c0,0,0,0,0,0c1.4,0,2.5,1.1,2.5,2.5
							c0,1.4-1.1,2.5-2.5,2.5L827.4,419.1C827.4,419.1,827.4,419.1,827.4,419.1z"/>
						<path fill="#4C8AE5" d="M827.4,425.7c-3.2,0-5.8-2.6-5.8-5.8c0-1.6,0.6-3,1.7-4.1c1.1-1.1,2.6-1.7,4.1-1.7c0,0,0,0,0,0
							c1.4,0,2.5,1.1,2.5,2.5c0,1.4-1.1,2.5-2.5,2.5c-0.3,0-0.5,0.2-0.6,0.2c-0.1,0.1-0.2,0.3-0.2,0.6c0,0.5,0.4,0.8,0.8,0.8l4.4,0
							c0,0,0,0,0,0c1.4,0,2.5,1.1,2.5,2.5c0,1.4-1.1,2.5-2.5,2.5L827.4,425.7C827.4,425.7,827.4,425.7,827.4,425.7z"/>
					</g>
				</g>
			</g>
		</g>
	</g>
	<path fill="#4C8AE5" d="M847.4,398.9c-1.4,0-2.5-1.1-2.5-2.5c0-1.4,1.1-2.5,2.5-2.5c1.3,0,2.5-0.6,3.5-1.7c1-1.1,1.6-2.5,1.5-4
		l0-28.2c0-1.4,1.1-2.5,2.5-2.5c0,0,0,0,0,0c1.4,0,2.5,1.1,2.5,2.5l0,28.2c0,2.6-1,5.3-2.8,7.3C852.7,397.7,850.1,398.9,847.4,398.9
		C847.4,398.9,847.4,398.9,847.4,398.9z"/>
</g>
<g>
	<path fill="#4C8AE5" d="M884.2,521l0.1-2.5L884.2,521c-2.2-0.1-4.8-0.2-6.5-2.2c-1.3-1.5-1.7-3.6-1.4-6.5c0.7-6.9,3.8-13.5,6.8-19
		l3.5-7c0.9-1.7,1.4-3.5,1.4-5.3c0-1.4,1.1-2.5,2.5-2.5s2.5,1.1,2.5,2.5c0,2.7-0.7,5.3-1.9,7.6l-3.5,7c-2.7,5.2-5.6,11.2-6.3,17.3
		c-0.2,2.1,0.2,2.6,0.2,2.7c0.3,0.4,1.8,0.4,2.9,0.5l0,2.5L884.2,521z"/>
</g>
<path fill="#4C8AE5" d="M436.2,267.6c-7,0-13.5-3.4-17.8-9.3c-3-4.1-3.8-9.6-1.9-13.8c1.7-3.8,5.2-6.2,10-6.8
	c5.6-0.7,7.6-3.9,10.2-11.4c1.1-3,0.5-6.7-0.1-10.6c-0.7-4.4-1.4-8.9,0.4-12.9c2.3-5.2,6.4-4.9,8.9-4.6c2,0.2,2.4,0.1,2.8-0.5
	c0.2-0.9-0.5-3.2-2.2-7.1c-0.3-0.8-0.6-1.4-0.8-1.8c-0.8-2.3-1.7-4.4-2.6-6.4c-0.8-2-1.7-4.1-2.5-6.4c-0.5-1.3,0.2-2.7,1.5-3.2
	c1.3-0.5,2.7,0.2,3.2,1.5c0.8,2.2,1.7,4.3,2.5,6.2c0.9,2.1,1.7,4.2,2.6,6.6c0.1,0.4,0.4,0.9,0.7,1.5c2.1,4.7,3.8,9.1,1.8,12
	c-2.2,3.1-5.3,2.8-7.4,2.6c-2.4-0.2-3-0.2-3.8,1.7c-1.2,2.7-0.6,6.3,0,10.2c0.7,4.3,1.4,8.8-0.1,13c-2.6,7.4-5.5,13.6-14.3,14.7
	c-3.1,0.4-5.1,1.7-6,3.8c-1.1,2.6-0.6,6.3,1.4,8.9c3.4,4.7,8.3,7.3,13.8,7.3c10.6,0,19.3-8.6,19.3-19.1c0-1.4,1.1-2.5,2.5-2.5
	s2.5,1.1,2.5,2.5C460.4,256.8,449.5,267.6,436.2,267.6z"/>
<circle fill="#4C8AE5" cx="639.7" cy="466.3" r="2.3"/>
<circle fill="#4C8AE5" cx="878.6" cy="482.5" r="2.3"/>
<circle fill="#4C8AE5" cx="899.7" cy="482.5" r="2.3"/>
<circle fill="#4C8AE5" cx="748.4" cy="309.7" r="2.3"/>
<circle fill="#4C8AE5" cx="730.3" cy="152" r="2.3"/>
<circle fill="#4C8AE5" cx="596.3" cy="173.1" r="2.3"/>
<circle fill="#4C8AE5" cx="658.1" cy="237" r="2.3"/>
<circle fill="#4C8AE5" cx="686.4" cy="237" r="2.3"/>
<circle fill="#4C8AE5" cx="747.1" cy="152" r="2.3"/>
<circle fill="#4C8AE5" cx="429.6" cy="186.5" r="2.3"/>
<circle fill="#4C8AE5" cx="374.7" cy="297.3" r="2.3"/>
<circle fill="#4C8AE5" cx="250.8" cy="285" r="2.3"/>
<circle fill="#4C8AE5" cx="337.4" cy="390.7" r="2.3"/>
<g>
	<path fill="#4C8AE5" d="M170.1,285.2c-1.4,0-2.5-1.1-2.5-2.5v-52.1c0-5.4,4.4-9.8,9.8-9.8h17.9c1.4,0,2.5,1.1,2.5,2.5
		s-1.1,2.5-2.5,2.5h-17.9c-2.7,0-4.8,2.2-4.8,4.8v52.1C172.6,284.1,171.5,285.2,170.1,285.2z"/>
	<path fill="#4C8AE5" d="M177.3,312c-15.3,0-27.7-12.4-27.7-27.7l0-0.2l1.6-20.8l2.5-27.4c0.1-1.4,1.3-2.4,2.7-2.3
		c1.4,0.1,2.4,1.3,2.3,2.7l-2.5,27.3l-1.6,20.7c0.1,12.5,10.2,22.6,22.7,22.6c1.4,0,2.5,1.1,2.5,2.5
		C179.8,310.9,178.7,312,177.3,312z"/>
	<path fill="#4C8AE5" stroke="#231F20" stroke-width="5" stroke-linecap="round" stroke-miterlimit="10" d="M229.4,207.7"/>
	<path fill="#4C8AE5" d="M125.2,284c-1.4,0-2.5-1.1-2.5-2.5c0-4.9-0.2-10-0.3-14.9c-0.6-16.6-1.1-33.8,4.2-49.7
		c5.6-16.6,16.8-19.5,31.1-23.1c7.8-2,15.4-4.9,17.8-12.6c1.7-5.5,0.3-12-1-18.3c-0.4-1.8-0.8-3.7-1.1-5.5
		c-2.6-15.3,0.2-26.7,8.7-35c6.4-6.2,16.7-10.2,26.3-10.2c10.1,0,20.2,4.3,26.9,11.4c5.6,6,8.6,13.5,11.5,20.7
		c0.4,1.1,0.9,2.3,1.4,3.4c0.7,1.8,1.6,3.7,2.4,5.5c1.3,2.9,2.7,5.9,3.7,9c0.7,2,0.3,3.9-1,5.3c-1.4,1.6-3.7,2.2-6,1.7
		c-0.1,0-0.2,0-0.2-0.1c-0.2-0.1-0.8-0.2-2.7-0.2c-0.9,0.2-1.2,1.9-1.2,3c0.1,1.6,0.6,3.3,1.2,5.1c1.2,3.7,2.5,7.8,0.3,12.1
		c-0.1,0.2-0.2,0.4-0.4,0.6c-0.1,0.2-0.3,0.6-0.5,0.9c-2.8,5.6-8.2,5.6-12.5,5.6c-4.4,0-6.4,0.2-7.5,2.5c-0.5,1.1-0.5,2.2,0.2,3.2
		c1,1.5,3.1,2.7,4.8,2.7c1.7,0,3.5-0.1,5.2-0.2c6.4-0.3,13.1-0.6,17.5,3.5c3,2.8,4.4,7.2,4.4,13.5c0,1.4-1.1,2.5-2.5,2.5l0,0
		c-1.4,0-2.5-1.1-2.5-2.5c0-4.8-0.9-8-2.8-9.8c-2.8-2.7-8.1-2.4-13.8-2.2c-1.8,0.1-3.6,0.2-5.4,0.2c-3.5,0-7.2-2.1-9.1-5.1
		c-1.6-2.5-1.7-5.3-0.4-8c2.6-5.3,7.8-5.3,11.9-5.3c4.2,0,6.7-0.1,8-2.8c0.3-0.6,0.6-1.2,1-1.7c1.1-2.4,0.2-5.1-0.7-8.1
		c-0.6-2-1.3-4.2-1.4-6.4c0,0,0-0.1,0-0.1c0-4.5,2.3-7.7,5.8-8.1c0.1,0,0.2,0,0.3,0c1.8,0,3.2,0.1,4.3,0.4c0.6,0.1,1-0.1,1.2-0.2
		c0.1-0.1,0-0.3,0-0.4c-0.9-2.8-2.2-5.6-3.5-8.5c-0.9-1.9-1.7-3.8-2.5-5.7c-0.5-1.1-0.9-2.3-1.4-3.4c-2.8-7.1-5.5-13.8-10.5-19.1
		c-5.8-6.2-14.5-9.8-23.3-9.8c-8.2,0-17.4,3.5-22.8,8.8c-7.2,7-9.6,17-7.3,30.6c0.3,1.7,0.7,3.5,1.1,5.3c1.4,6.6,3,14,0.9,20.8
		c-3.1,10.1-12.5,13.8-21.3,16c-14.3,3.6-22.9,5.8-27.6,19.8c-5,15.1-4.5,31.8-3.9,47.9c0.2,5,0.3,10.1,0.3,15.1
		C127.7,282.9,126.6,284,125.2,284z"/>
	
		<path fill="#4C8AE5" stroke="#231F20" stroke-width="5" stroke-linecap="round" stroke-linejoin="round" stroke-miterlimit="10" d="
		M200.2,177.3"/>
	<path fill="#4C8AE5" d="M147.4,306.7c-13.9,0-24.7-11.1-24.7-25.2c0-1.4,1.1-2.5,2.5-2.5c1.4,0,2.5,1.1,2.5,2.5
		c0,11.3,8.7,20.2,19.7,20.2c11.1,0,20.2-9.1,20.2-20.2c0-1.4,1.1-2.5,2.5-2.5s2.5,1.1,2.5,2.5C172.6,295.4,161.3,306.7,147.4,306.7
		z"/>
	<path fill="#4C8AE5" d="M206.6,236.4c-1.4,0-2.5-1.1-2.5-2.5c0-5.9-4.4-8.1-8.6-8.1c-1.4,0-2.5-1.1-2.5-2.5s1.1-2.5,2.5-2.5
		c8,0,13.6,5.4,13.6,13.1C209.1,235.3,208,236.4,206.6,236.4z"/>
	<path fill="#4C8AE5" d="M209.3,239.1c-2.9,0-5.2-2.3-5.2-5.2c0-1.4,1.1-2.5,2.5-2.5s2.5,1.1,2.5,2.5c0,0.4,0.7,0.1,0.9-0.1v-2.5
		c0-4.6-2.1-8.8-5.7-11.7c-1.1-0.8-1.3-2.4-0.4-3.5c0.8-1.1,2.4-1.3,3.5-0.4c4.9,3.8,7.7,9.5,7.7,15.6v2.6
		C215,237,212,239.1,209.3,239.1z"/>
	<path fill="#4C8AE5" d="M215.3,241.1c-1.4,0-2.7-0.5-3.7-1.5c-1-1-1-2.6,0-3.5c1-1,2.6-1,3.5,0c0.1,0.1,0.1,0.1,0.1,0.1
		c0.2,0,0.6-0.2,0.7-0.3v-8.5c0-5-2.5-9.6-6.7-12.3c-1.2-0.8-1.5-2.3-0.7-3.5c0.8-1.2,2.3-1.5,3.5-0.7c5.6,3.7,8.9,9.8,8.9,16.5v8.6
		C221,239,218,241.1,215.3,241.1z"/>
	<path fill="#4C8AE5" d="M221.3,238.1c-1.7,0-3.2-0.8-4.2-2.2c-0.8-1.1-0.6-2.7,0.6-3.5c1.1-0.8,2.7-0.6,3.5,0.6
		c0,0,0.1,0.1,0.2,0.1c0.2,0,0.2,0,0.3,0c0.1-0.1,0.5-0.5,0.5-2.7v-8.1c0-8-8.3-15.8-16.8-15.8h-20.6c-1.4,0-2.5-1.1-2.5-2.5
		s1.1-2.5,2.5-2.5h20.6c11.2,0,21.8,10.1,21.8,20.8v8.1C227,237.1,223.4,238.1,221.3,238.1z"/>
	<path fill="#4C8AE5" d="M156.2,238.7c0,0-0.1,0-0.1,0c-1.4-0.1-2.4-1.2-2.4-2.6c1-20,15.3-34.5,34-34.5c1.4,0,2.5,1.1,2.5,2.5
		s-1.1,2.5-2.5,2.5c-15.9,0-28.1,12.5-29,29.8C158.6,237.6,157.5,238.7,156.2,238.7z"/>
	<circle fill="#4C8AE5" cx="233.5" cy="146.1" r="2.3"/>
	<path fill="#4C8AE5" d="M179.9,176.9c-1.4,0-2.5-1.1-2.5-2.5c0-1.4,1.1-2.5,2.5-2.5c4.3,0,7.7-1.2,10-3.5c2.5-2.5,3.8-6.3,3.8-11.1
		c0-14.4,3.8-17.3,17.8-20.5c8.8-2,13.6-6.9,15.3-15.7c0.3-1.4,1.6-2.2,2.9-2c1.4,0.3,2.2,1.6,2,2.9c-2.1,10.7-8.4,17.1-19.1,19.6
		c-12.2,2.8-13.9,4-13.9,15.6c0,6.1-1.8,11.2-5.2,14.6C190.1,175.2,185.5,176.9,179.9,176.9z"/>
</g>
<path fill="#4C8AE5" stroke="#231F20" stroke-width="5" stroke-linecap="round" stroke-linejoin="round" stroke-miterlimit="10" d="
	M330.9,128.8"/>
<path fill="#4C8AE5" d="M315.3,514.7c-0.6,0-1.2-0.2-1.7-0.6l-60.3-54.3l-0.6,8.1c-0.1,1.4-1.3,2.4-2.7,2.3
	c-1.4-0.1-2.4-1.3-2.3-2.7l1-13.2c0.1-0.9,0.7-1.8,1.6-2.1c0.9-0.4,1.9-0.2,2.6,0.5l16.5,14.8l0.6-5.8c0.1-1,0.8-1.8,1.7-2.1
	c1-0.3,2,0,2.7,0.8l42.9,50.3c0.9,1,0.8,2.5-0.2,3.4C316.6,514.4,316,514.7,315.3,514.7z M274,471.6l14.8,13.3L274.3,468L274,471.6z
	"/>
<path fill="#4C8AE5" d="M315.3,514.7c-0.8,0-1.5-0.3-2-1c-0.8-1.1-0.6-2.7,0.5-3.5l68.2-51.8c0.8-0.6,1.8-0.7,2.7-0.2
	c0.9,0.5,1.4,1.4,1.3,2.4l-0.6,9.9c-0.1,1.4-1.3,2.4-2.6,2.4c-1.4-0.1-2.4-1.3-2.4-2.6l0.3-4.5l-63.9,48.5
	C316.4,514.5,315.9,514.7,315.3,514.7z"/>
<path fill="#4C8AE5" d="M315.3,512.7c-0.7,0-1.4-0.3-1.9-0.8c-0.9-1-0.8-2.6,0.2-3.5l56.3-50.8c0.7-0.7,1.8-0.8,2.7-0.4
	c0.9,0.4,1.5,1.3,1.5,2.3v10c0,1.4-1.1,2.5-2.5,2.5s-2.5-1.1-2.5-2.5V465L317,512C316.5,512.5,315.9,512.7,315.3,512.7z"/>
<path fill="#4C8AE5" stroke="#231F20" stroke-width="5" stroke-linecap="round" stroke-linejoin="round" stroke-miterlimit="10" d="
	M712.7,123.5"/>
<path fill="#4C8AE5" d="M712.7,151.5c-1.4,0-2.5-1.1-2.5-2.5c0-1.4,1.1-2.5,2.5-2.5c5.6,0,10.2-4.6,10.2-10.2c0-1.4,1.1-2.5,2.5-2.5
	s2.5,1.1,2.5,2.5C727.9,144.6,721.1,151.5,712.7,151.5z"/>
<path fill="#4C8AE5" d="M725.4,139c-1.4,0-2.5-1.1-2.5-2.5c0-5.6-4.6-10.2-10.2-10.2c-1.4,0-2.5-1.1-2.5-2.5s1.1-2.5,2.5-2.5
	c8.4,0,15.2,6.8,15.2,15.2C727.9,137.9,726.8,139,725.4,139z"/>
<path fill="#4C8AE5" stroke="#231F20" stroke-width="5" stroke-linecap="round" stroke-linejoin="round" stroke-miterlimit="10" d="
	M712.7,123.5"/>
<path fill="#4C8AE5" d="M684.9,197.5c-0.8,0-1.6-0.4-2-1.1c-0.8-1.1-0.5-2.7,0.6-3.5c7.1-5,11.4-13.2,11.4-21.9v-6.7
	c0-9.8,7.9-17.7,17.7-17.7c1.4,0,2.5,1.1,2.5,2.5c0,1.4-1.1,2.5-2.5,2.5c-7,0-12.7,5.7-12.7,12.7v6.7c0,10.3-5,20-13.5,25.9
	C685.9,197.3,685.4,197.5,684.9,197.5z"/>
<path fill="#4C8AE5" d="M584.4,520.2c-1.4,0-2.5-1.1-2.5-2.5s1.1-2.5,2.5-2.5c8.9,0,16.2-7.2,16.2-16.1c0-8.8-7.1-15.7-16.2-15.7
	c-1.4,0-2.5-1.1-2.5-2.5s1.1-2.5,2.5-2.5c11.9,0,21.2,9.1,21.2,20.7C605.6,510.7,596.1,520.2,584.4,520.2z"/>
<path fill="#4C8AE5" d="M583.6,483.4h-36c-1.4,0-2.5-1.1-2.5-2.5s1.1-2.5,2.5-2.5h36c1.4,0,2.5,1.1,2.5,2.5S585,483.4,583.6,483.4z"
	/>
<path fill="#4C8AE5" d="M508.1,451.4C508.1,451.4,508.1,451.4,508.1,451.4c-1.4,0-2.5-1.1-2.5-2.5l0.5-54.7c0-1.4,1.1-2.5,2.5-2.5
	c0,0,0,0,0,0c1.4,0,2.5,1.1,2.5,2.5l-0.5,54.7C510.6,450.3,509.5,451.4,508.1,451.4z"/>
<path fill="#4C8AE5" d="M492.6,176.9H387c-1.4,0-2.5-1.1-2.5-2.5c0-1.4,1.1-2.5,2.5-2.5h105.6c0.3,0,0.6-0.3,0.6-0.6
	s-0.3-0.6-0.6-0.6H391.7c-1.4,0-2.5-1.1-2.5-2.5s1.1-2.5,2.5-2.5h100.9c3.1,0,5.6,2.5,5.6,5.6S495.7,176.9,492.6,176.9z"/>
<path fill="#4C8AE5" d="M378.8,185.5c-1.4,0-2.5-1.1-2.5-2.5c0-5.2,4.1-11,10.1-11c1.4,0,2.5,1.1,2.5,2.5c0,1.4-1.1,2.5-2.5,2.5
	c-2.6,0-5.1,3-5.1,6C381.3,184.3,380.2,185.5,378.8,185.5z"/>
<path fill="#4C8AE5" d="M391.7,170.7c-5.2,0-11-4.1-11-10.1c0-1.4,1.1-2.5,2.5-2.5s2.5,1.1,2.5,2.5c0,2.6,3,5.1,6,5.1
	c1.4,0,2.5,1.1,2.5,2.5S393.1,170.7,391.7,170.7z"/>
<path fill="#4C8AE5" d="M368.8,193.1c-7.3,0-13.2-5.9-13.2-13.2c0-1.4,1.1-2.5,2.5-2.5c1.4,0,2.5,1.1,2.5,2.5c0,4.5,3.7,8.2,8.2,8.2
	c4.5,0,8.2-3.7,8.2-8.2c0-1.4,1.1-2.5,2.5-2.5s2.5,1.1,2.5,2.5C381.9,187.2,376,193.1,368.8,193.1z"/>
<path fill="#4C8AE5" d="M439.7,167c-1.4,0-2.5-1.1-2.5-2.5v-4c0-14.2-11.6-25.8-25.8-25.8s-25.8,11.6-25.8,25.8
	c0,1.4-1.1,2.5-2.5,2.5s-2.5-1.1-2.5-2.5c0-17,13.8-30.8,30.8-30.8s30.8,13.8,30.8,30.8v4C442.2,165.8,441.1,167,439.7,167z"/>
<path fill="#4C8AE5" d="M478.8,210.2c-7.5,0-13.6-6.1-13.6-13.6c0-1.4,1.1-2.5,2.5-2.5s2.5,1.1,2.5,2.5c0,4.8,3.9,8.6,8.6,8.6
	c4.6,0,7.9-3.6,7.9-8.6c0-1.4,1.1-2.5,2.5-2.5s2.5,1.1,2.5,2.5C491.6,204.3,486.1,210.2,478.8,210.2z"/>
<g>
	<path fill="#4C8AE5" d="M166.9,442.3h-3.7c-12.3,0-22.2-10-22.2-22.2v-94c0-2.7,2.2-4.9,4.9-4.9c3.8,0,5.7,1.9,5.7,5.7
		c0,1.4-1.1,2.5-2.5,2.5s-2.5-1.1-2.5-2.5c0-0.2,0-0.5,0-0.7c-0.1,0-0.4-0.1-0.7-0.1l0.1,94c0,9.5,7.7,17.2,17.2,17.2h3.7
		c1.4,0,2.5,1.1,2.5,2.5S168.3,442.3,166.9,442.3z"/>
	<path fill="#4C8AE5" d="M149.2,348c-1.4,0-2.5-1.1-2.5-2.5v-22.7c0-2.7,2.2-4.9,5-4.9c4.2,0,6.1,2.5,6.1,4.9c0,1.4-1.1,2.5-2.5,2.5
		c-1.3,0-2.4-1-2.5-2.3c-0.2-0.1-0.5-0.2-1.1-0.2l0,22.7C151.7,346.9,150.6,348,149.2,348z"/>
	<path fill="#4C8AE5" d="M155.3,348c-1.4,0-2.5-1.1-2.5-2.5v-22.7c0-2.7,2.2-4.9,4.9-4.9c5.5,0,5.9,3.8,5.9,4.9
		c0,1.4-1.1,2.5-2.5,2.5c-1.3,0-2.4-1.1-2.5-2.4c-0.2,0-0.5-0.1-0.9-0.1l0.1,22.7C157.8,346.9,156.7,348,155.3,348z"/>
	<g>
		<path fill="#4C8AE5" d="M167,349.3c-1.4,0-2.5-1.1-2.5-2.5v-22.5c-0.3-0.2-0.7-0.4-0.9-0.4l0,21.7c0,1.4-1.1,2.5-2.5,2.5
			c-1.4,0-2.5-1.1-2.5-2.5v-21.7c0-2.7,2.2-4.9,5-4.9c2.5,0,5.9,1.9,5.9,4.9v22.9C169.5,348.2,168.4,349.3,167,349.3z"/>
		<path fill="#4C8AE5" d="M169.4,353.5c-1.1,0-4.9-0.4-4.9-5.9c0-1.4,1.1-2.5,2.5-2.5s2.5,1.1,2.5,2.5c0,0.4,0,0.6,0.1,0.8
			c0.4-0.1,0.7-0.4,0.7-0.8c0-1.4,1.1-2.5,2.5-2.5s2.5,1.1,2.5,2.5C175.2,350.9,172.6,353.5,169.4,353.5z"/>
		<path fill="#4C8AE5" d="M178.8,368.1c-1.4,0-2.5-1.1-2.5-2.5v-18.3c0-0.3-0.2-0.5-0.5-0.5c-0.3,0-0.5,0.2-0.5,0.5
			c0,1.4-1.1,2.5-2.5,2.5s-2.5-1.1-2.5-2.5c0-3,2.5-5.5,5.5-5.5s5.5,2.5,5.5,5.5v18.3C181.3,367,180.2,368.1,178.8,368.1z"/>
	</g>
</g>
<path fill="#4C8AE5" d="M798,292.5c-8.9,0-15.8-6.8-15.8-15.4l-0.4-15.4c0-21.5-13.3-34.1-24.5-40.8c-2.2-1.3-4.6-2.7-7.2-3.8
	c-0.2,3-0.9,5.6-2.5,7.8c-1.8,2.5-4.7,4-8.4,4.4c-4.4,0.5-8.4-1.7-10.1-5.6c-1.6-3.7-0.6-7.9,2.6-10.7c3.7-3.3,8.4-3.7,13-2.9
	c-0.4-2.6-0.9-5.2-1.4-7.8c-1.3-6.8-2.5-12.7-1-16.7c2.2-5.6,6.9-4.8,9.7-4.4c2.2,0.4,3.3,0.4,4-0.3c0.8-0.8,1.1-1.5,1-2.6
	c-0.2-5.2-9.1-12.8-13.8-17c-1.5-1.3-2.7-2.3-3.5-3.1c-5.4-5.5-7.1-15.6-3.9-23.2c2.6-6.3,8-9.7,15.2-9.7h40.1
	c1.4,0,2.5,1.1,2.5,2.5s-1.1,2.5-2.5,2.5H751c-6.4,0-9.3,3.6-10.6,6.6c-2.4,5.6-1,13.7,2.9,17.7c0.6,0.7,1.8,1.7,3.2,2.9
	c6.1,5.3,15.3,13.2,15.5,20.6c0.1,2.4-0.8,4.5-2.5,6.3c-2.6,2.6-5.9,2.1-8.4,1.7c-3.2-0.5-3.6-0.4-4.2,1.3c-1,2.7,0.1,8.4,1.2,14
	c0.7,3.5,1.4,7,1.7,10.3c4.1,1.6,7.8,3.8,9.9,5.1c17.4,10.5,27,26.4,27,45l0.4,15.4c0,5.9,4.8,10.5,10.8,10.5c1.4,0,2.5,1.1,2.5,2.5
	C800.5,291.4,799.4,292.5,798,292.5z M740.8,214.6c-2.2,0-4.2,0.6-5.8,2c-1.6,1.4-2.1,3.3-1.3,5c0.6,1.4,2.3,2.9,5,2.6
	c2.3-0.2,3.9-1,4.9-2.3c1.2-1.6,1.6-3.9,1.5-6.6C743.6,214.8,742.2,214.6,740.8,214.6z"/>
<g>
	<path fill="#4C8AE5" d="M603.8,438.1h-20.6v-33h20.6V438.1z M588.2,433.1h10.6v-23h-10.6V433.1z"/>
	<path fill="#4C8AE5" d="M600.4,418h-14.7c-1.4,0-2.5-1.1-2.5-2.5s1.1-2.5,2.5-2.5h14.7c1.4,0,2.5,1.1,2.5,2.5S601.8,418,600.4,418z
		"/>
</g>
<g>
	<path fill="#4C8AE5" d="M578.8,453.3h-53.7v-49.2h53.7V453.3z M530.2,448.3h43.7v-39.2h-43.7V448.3z"/>
	<path fill="#4C8AE5" d="M575.5,418.5h-47.9c-1.4,0-2.5-1.1-2.5-2.5s1.1-2.5,2.5-2.5h47.9c1.4,0,2.5,1.1,2.5,2.5
		S576.9,418.5,575.5,418.5z"/>
</g>
<g>
	<path fill="#4C8AE5" d="M280.7,283.3h-16.6c-1.4,0-2.5-1.1-2.5-2.5c0-1.4,1.1-2.5,2.5-2.5h11.6v-33H231v4c0,1.4-1.1,2.5-2.5,2.5
		s-2.5-1.1-2.5-2.5v-9h54.7V283.3z"/>
	<path fill="#4C8AE5" d="M277.4,253.3h-48.9c-1.4,0-2.5-1.1-2.5-2.5s1.1-2.5,2.5-2.5h48.9c1.4,0,2.5,1.1,2.5,2.5
		S278.8,253.3,277.4,253.3z"/>
</g>
<circle fill="#4C8AE5" cx="361.1" cy="390.7" r="2.3"/>
<g>
	<path fill="#4C8AE5" d="M300,394.8h-0.2l-108.5-0.3c-1.4,0-2.5-1.1-2.5-2.5c0-1.4,1.1-2.5,2.5-2.5c0,0,0,0,0,0l108.2,0.3
		c2.7-0.6,5-2.1,6.5-4.3c1.6-2.3,2.2-5.1,1.7-7.9c-0.2-1.1-0.5-2.3-0.7-3.4c-0.2-0.7-0.3-1.5-0.5-2.2c-0.3-1.4,0.6-2.7,1.9-3
		c1.4-0.3,2.7,0.6,3,1.9c0.1,0.7,0.3,1.4,0.5,2.2c0.3,1.2,0.5,2.4,0.7,3.6c0.8,4.1-0.1,8.2-2.4,11.6c-2.3,3.4-5.9,5.7-9.9,6.5
		L300,394.8z"/>
	<path fill="#4C8AE5" d="M190.3,394.5c-7.9,0-14-6-14-13.8V366c0-1.4,1.1-2.5,2.5-2.5s2.5,1.1,2.5,2.5v14.7c0,4.9,4,8.8,9,8.8
		c1.4,0,2.5,1.1,2.5,2.5S191.7,394.5,190.3,394.5z"/>
</g>
<g>
	<path fill="#4C8AE5" d="M605.6,289.7c-1.4,0-2.5-1.1-2.5-2.5c0-1.4,0-2.8,0-4.2c0.2-7.8,0.3-15.2-5.9-19.7
		c-1.8-1.3-4.2-2.2-6.7-3.2c-5.8-2.2-13-4.9-13.1-14c-0.1-4.9,1.5-9.2,3.1-13.4c1.1-3,2.2-5.8,2.6-8.7c0.4-2.8,0-5.4-1-6.7
		c-0.5-0.7-1.2-1-2.1-1.1c-1.1-0.1-2.3,0-3.7,0.1c-3.6,0.3-9.6,0.7-10.9-6.2l-0.1-0.6l0.2-0.6c4.6-16.5,11.8-33.3,18.2-47.6
		c6-13.6,18.8-23.2,35-26.3c16.8-3.3,34.2,1.3,45.4,12.1c0.7,0.6,16.5,15.8,19,38.6c0.2,1.4-0.8,2.6-2.2,2.8
		c-1.4,0.2-2.6-0.8-2.8-2.2c-2.3-21-17.3-35.4-17.5-35.6c-10-9.7-25.7-13.8-41-10.8c-14.6,2.9-26,11.4-31.3,23.5
		c-6.2,14-13.3,30.3-17.8,46.4c0.4,1.7,1.4,1.9,5.5,1.6c1.5-0.1,3.1-0.2,4.6,0c2.3,0.3,4.2,1.3,5.5,3c2.6,3.4,2.2,8.4,2,10.4
		c-0.5,3.4-1.7,6.6-2.9,9.7c-1.5,3.9-2.8,7.6-2.8,11.5c0.1,5.4,3.8,7.1,9.9,9.5c2.7,1,5.5,2.1,7.9,3.8c8.4,6,8.2,15.5,8,23.9
		c0,1.4-0.1,2.7,0,4C608.1,288.5,607,289.6,605.6,289.7C605.6,289.7,605.6,289.7,605.6,289.7z"/>
</g>
<g>
	<path fill="#4C8AE5" d="M660.4,317.6l-2.2-0.1c-1.4-0.1-2.5-1.2-2.4-2.6c0.1-1.4,1.3-2.5,2.6-2.4l1.9,0.1c5.6-0.5,6.5-7.1,6.1-17.7
		c0-0.6,0-1.1-0.1-1.6c0-0.9-0.2-2.1-0.3-3.6c-0.8-7.2-2.2-20.5,7.7-21.6c1.5-0.2,3.1-0.1,4.6,0c4.1,0.3,5.1,0.1,5.5-1.6
		c-2.2-7.7-5.2-15.3-8.1-22.7c-1.1-2.7-2.1-5.3-3.1-8c-0.4-1-0.8-2.1-1.2-3.2c-3.5-8.8-7.9-19.8-3.1-28.9c2.6-4.9,7.2-8.4,14.1-10.6
		c1.3-0.4,2.7,0.3,3.1,1.6c0.4,1.3-0.3,2.7-1.6,3.1c-5.6,1.8-9.3,4.5-11.2,8.2c-3.7,7,0.2,16.8,3.3,24.7c0.4,1.1,0.9,2.2,1.3,3.2
		c1,2.7,2.1,5.3,3.1,8c3,7.7,6.2,15.6,8.4,23.8l0.2,0.6l-0.1,0.6c-1.3,6.9-7.3,6.5-10.9,6.2c-1.3-0.1-2.6-0.2-3.6-0.1
		c-4.5,0.5-4.1,8.6-3.3,16.1c0.2,1.5,0.3,2.9,0.3,4c0,0.5,0,1,0.1,1.5c0.3,7.7,0.8,22.1-10.9,22.8L660.4,317.6z"/>
</g>
<path fill="#4C8AE5" d="M523.2,483.3h-10.5c-11.3,0-20.9-9.9-20.9-21.6c0-1.4,1.1-2.5,2.5-2.5s2.5,1.1,2.5,2.5
	c0,9,7.3,16.6,15.9,16.6h10.5c1.4,0,2.5,1.1,2.5,2.5S524.6,483.3,523.2,483.3z"/>
<path fill="#4C8AE5" d="M677.1,173.6c-1.1,0-2.1-0.8-2.4-1.9c-0.4-1.7-0.9-3.6-1.3-5.5c-1.4-7.3-0.7-15.1,1.8-22.5
	c4.9-14.3,21.1-23.9,37.6-22.3c1.4,0.1,2.4,1.4,2.3,2.7c-0.1,1.4-1.3,2.4-2.7,2.3c-14.3-1.4-28.2,6.8-32.4,19
	c-2.3,6.6-2.8,13.5-1.6,20c0.3,1.8,0.8,3.5,1.2,5.2c0.3,1.3-0.5,2.7-1.8,3C677.5,173.5,677.3,173.6,677.1,173.6z"/>
<g>
	<path fill="#4C8AE5" d="M828.6,253.3c-0.8,0-1.6-0.4-2.1-1.2c-0.7-1.2-0.4-2.7,0.8-3.4l6.7-4.2c0.4-0.3,1-0.6,1.6-1
		c1.3-0.8,3.6-2.1,3.9-3.1c0.2-0.5-0.1-0.8-0.3-1c-0.5-0.4-1.2-0.4-2,0c-2.8,1.5-8.6,5.1-11.3,7c-1.1,0.8-2.7,0.5-3.5-0.6
		c-0.8-1.1-0.5-2.7,0.6-3.5c2.9-2.1,8.8-5.7,11.8-7.3c2.6-1.4,5.5-1.2,7.6,0.5c1.9,1.6,2.6,4.1,1.9,6.4c-0.9,2.8-3.8,4.5-6.1,5.9
		c-0.5,0.3-1,0.6-1.4,0.9l-6.8,4.3C829.6,253.2,829.1,253.3,828.6,253.3z"/>
	<path fill="#4C8AE5" d="M824,267.4c-1.9,0-2.5-1.2-2.7-1.8c-0.8-2.4,1.7-3.6,4.3-4.8c1.3-0.6,2.7,0,3.3,1.2c0,0.1,0.1,0.2,0.1,0.3
		h38.9c1.4,0,2.5,1.1,2.5,2.5s-1.1,2.5-2.5,2.5h-43C824.5,267.4,824.2,267.4,824,267.4z"/>
	<path fill="#4C8AE5" d="M867.9,259.2c-1.4,0-2.5-1.1-2.5-2.5v-31.8h-66.7c-1.4,0-2.5-1.1-2.5-2.5s1.1-2.5,2.5-2.5h71.7v36.8
		C870.4,258.1,869.2,259.2,867.9,259.2z"/>
	<path fill="#4C8AE5" d="M800,249.9c-8.3,0-15-6.7-15-15c0-8.3,6.7-15,15-15c1.4,0,2.5,1.1,2.5,2.5s-1.1,2.5-2.5,2.5
		c-5.5,0-10,4.5-10,10c0,5.5,4.5,10,10,10c2.7,0,6.9-1.7,9.5-3.3c1.2-0.7,2.7-0.4,3.4,0.8c0.7,1.2,0.4,2.7-0.8,3.4
		C809.7,247.3,804.4,249.9,800,249.9z"/>
	<path fill="#4C8AE5" d="M836.6,203.3h-52.5c-8.6,0-15.5-7-15.5-15.5v-46.4c0-1.4,1.1-2.5,2.5-2.5s2.5,1.1,2.5,2.5v46.4
		c0,5.8,4.7,10.5,10.5,10.5h52.5c5.8,0,10.5-4.7,10.5-10.5v-46.4c0-6-4.8-11.1-10.5-11.1h-52.5c-1.4,0-2.5-1.1-2.5-2.5
		s1.1-2.5,2.5-2.5h52.5c8.4,0,15.5,7.4,15.5,16.1v46.4C852.1,196.3,845.1,203.3,836.6,203.3z"/>
	<path fill="#4C8AE5" d="M863.8,203.3h-38.5c-1.4,0-2.5-1.1-2.5-2.5s1.1-2.5,2.5-2.5h38.5c5.8,0,10.5-4.7,10.5-10.5v-46.4
		c0-6-4.8-11.1-10.5-11.1h-38.5c-1.4,0-2.5-1.1-2.5-2.5s1.1-2.5,2.5-2.5h38.5c8.4,0,15.5,7.4,15.5,16.1v46.4
		C879.3,196.3,872.4,203.3,863.8,203.3z"/>
	<path fill="#4C8AE5" d="M798.6,225.1c-0.2,0-0.5,0-0.7-0.1c-1.3-0.4-2.1-1.8-1.7-3.1l6.7-22c0.4-1.3,1.8-2.1,3.1-1.7
		c1.3,0.4,2.1,1.8,1.7,3.1l-6.7,22C800.7,224.4,799.7,225.1,798.6,225.1z"/>
	<g>
		<path fill="#4C8AE5" d="M885.5,228.9c-1.4,0-2.5-1.1-2.5-2.5s1.1-2.5,2.5-2.5c7.3,0,13.2-5.9,13.2-13.2c0-7.3-5.9-13.2-13.2-13.2
			h-10.7c-1.4,0-2.5-1.1-2.5-2.5s1.1-2.5,2.5-2.5h10.7c10,0,18.2,8.2,18.2,18.2C903.7,220.7,895.5,228.9,885.5,228.9z"/>
		<path fill="#4C8AE5" d="M885.5,248.2c-1.4,0-2.5-1.1-2.5-2.5s1.1-2.5,2.5-2.5c7.3,0,13.2-5.9,13.2-13.2c0-7.3-5.8-12.9-13.2-12.9
			c-1.4,0-2.5-1.1-2.5-2.5s1.1-2.5,2.5-2.5c10.2,0,18.2,7.9,18.2,17.9C903.7,240,895.5,248.2,885.5,248.2z"/>
		<path fill="#4C8AE5" d="M884.2,228.9c-4.7,0-8.4-3.8-8.4-8.4s3.8-8.4,8.4-8.4c1.4,0,2.5,1.1,2.5,2.5c0,1.4-1.1,2.5-2.5,2.5
			c-1.9,0-3.4,1.5-3.4,3.4c0,1.9,1.5,3.4,3.4,3.4c1.4,0,2.5,1.1,2.5,2.5S885.6,228.9,884.2,228.9z"/>
		<g>
			<path fill="#4C8AE5" d="M885.5,267.3h-24.6c-1.4,0-2.5-1.1-2.5-2.5c0-1.4,1.1-2.5,2.5-2.5h24.6c7.3,0,13.2-5.9,13.2-13.1
				c0-7.3-5.8-12.9-13.2-12.9c-1.4,0-2.5-1.1-2.5-2.5s1.1-2.5,2.5-2.5c10.2,0,18.2,7.9,18.2,17.9
				C903.7,259.2,895.5,267.3,885.5,267.3z"/>
			<path fill="#4C8AE5" d="M884.2,248.2c-4.7,0-8.4-3.8-8.4-8.4s3.8-8.4,8.4-8.4c1.4,0,2.5,1.1,2.5,2.5s-1.1,2.5-2.5,2.5
				c-1.9,0-3.4,1.5-3.4,3.4c0,1.9,1.5,3.4,3.4,3.4c1.4,0,2.5,1.1,2.5,2.5S885.6,248.2,884.2,248.2z"/>
		</g>
	</g>
	<g>
		<path fill="#4C8AE5" d="M837.1,182.5h-31.9v-43h31.9V182.5z M810.2,177.5h21.9v-33h-21.9V177.5z"/>
		<path fill="#4C8AE5" d="M833.7,152.6h-26c-1.4,0-2.5-1.1-2.5-2.5c0-1.4,1.1-2.5,2.5-2.5h26c1.4,0,2.5,1.1,2.5,2.5
			C836.2,151.4,835.1,152.6,833.7,152.6z"/>
	</g>
	<path fill="#4C8AE5" d="M833.8,240.9c-0.8,0-1.7-0.4-2.1-1.2c-0.7-1.2-0.3-2.7,0.9-3.4c0.6-0.4,0.9-1.2,0.5-1.9
		c-0.2-0.3-0.5-0.5-0.8-0.6c-0.4-0.1-0.7,0-1,0.2c-1.2,0.7-2.7,0.3-3.4-0.9c-0.7-1.2-0.3-2.7,0.9-3.4c1.5-0.9,3.2-1.1,4.8-0.7
		c1.7,0.4,3,1.4,3.9,2.9c0.9,1.5,1.1,3.2,0.7,4.8c-0.4,1.7-1.4,3-2.9,3.9C834.7,240.8,834.3,240.9,833.8,240.9z"/>
	<path fill="#4C8AE5" d="M810.8,246.3c-0.8,0-1.6-0.4-2.1-1.2c-0.7-1.2-0.4-2.7,0.8-3.4c1.4-0.9,3.2-2.1,5.3-3.4
		c4.7-3.1,10-6.6,13.4-8.4c1.2-0.7,2.7-0.2,3.4,1c0.7,1.2,0.2,2.7-1,3.4c-3.2,1.7-8.6,5.3-13,8.2c-2,1.3-3.9,2.6-5.3,3.5
		C811.7,246.2,811.2,246.3,810.8,246.3z"/>
	<g>
		<path fill="#4C8AE5" d="M842.9,253.6c-0.8,0-1.5-0.4-2-1c-0.8-1.1-0.6-2.7,0.6-3.5c0.3-0.2,0.5-0.6,0.6-0.9c0.1-0.4,0-0.8-0.3-1.1
			s-0.6-0.5-0.9-0.6c-0.4-0.1-0.8,0-1.1,0.3c-1.1,0.8-2.7,0.6-3.5-0.5s-0.6-2.7,0.5-3.5c1.4-1,3.1-1.4,4.8-1.2
			c1.7,0.3,3.2,1.2,4.2,2.6c1,1.4,1.4,3.1,1.2,4.8c-0.3,1.7-1.2,3.2-2.6,4.2C843.9,253.5,843.4,253.6,842.9,253.6z"/>
		<path fill="#4C8AE5" d="M824,266.7c-0.8,0-1.6-0.4-2.1-1.1c-0.8-1.1-0.5-2.7,0.6-3.5c1.4-1,3.3-2.2,5.4-3.6c4.5-3,10-6.7,12.9-9
			c1.1-0.9,2.7-0.7,3.5,0.4s0.7,2.6-0.4,3.5c-3.1,2.4-8.5,6.1-13.3,9.2c-2,1.4-3.9,2.6-5.3,3.5C825,266.6,824.5,266.7,824,266.7z"/>
	</g>
</g>
<path fill="#4C8AE5" d="M268.7,343c-1.1,0-2.1-0.7-2.4-1.8c-0.9-3.1,0.9-6.2,4-7.1c3.1-0.9,6.2,0.9,7.1,4c0.4,1.3-0.4,2.7-1.7,3.1
	c-1.3,0.4-2.7-0.4-3.1-1.7c-0.1-0.4-0.5-0.6-0.9-0.5c-0.4,0.1-0.6,0.5-0.5,0.9c0.4,1.3-0.4,2.7-1.7,3.1
	C269.1,343,268.9,343,268.7,343z"/>
<path fill="#4C8AE5" d="M321.7,586.7c-0.4,0-0.9-0.1-1.3-0.4l-42.3-26c-5.1-3.2-6.7-9.7-3.6-14.8c1.5-2.4,3.8-4.1,6.6-4.8
	c2.8-0.7,5.6-0.2,8,1.3l43.1,26.6c1.2,0.7,1.5,2.3,0.8,3.4c-0.7,1.2-2.3,1.5-3.4,0.8l-43.1-26.6c-1.3-0.8-2.8-1-4.3-0.7
	c-1.5,0.3-2.7,1.2-3.5,2.5c-1.7,2.7-0.8,6.2,2,7.9l42.3,25.9c1.2,0.7,1.5,2.3,0.8,3.4C323.4,586.3,322.6,586.7,321.7,586.7z"/>
<path fill="#4C8AE5" d="M329.7,572.6c-0.5,0-0.9-0.1-1.3-0.4l-38.2-23.8c-5.2-3.1-6.9-9.5-3.9-14.6c1.4-2.4,3.7-4.2,6.5-4.9
	c2.8-0.7,5.6-0.3,8.1,1.1l43.6,25.7c1.2,0.7,1.6,2.2,0.9,3.4c-0.7,1.2-2.2,1.6-3.4,0.9l-43.6-25.7c-1.3-0.8-2.8-1-4.3-0.6
	c-1.5,0.4-2.7,1.3-3.4,2.6c-1.6,2.7-0.7,6.2,2.1,7.8L331,568c1.2,0.7,1.5,2.3,0.8,3.4C331.3,572.2,330.5,572.6,329.7,572.6z"/>
<path fill="#4C8AE5" d="M286.1,584c-0.4,0-0.9-0.1-1.3-0.4l-12.8-7.9c-2.4-1.5-4-3.8-4.7-6.5c-0.6-2.7-0.2-5.5,1.3-7.9
	c1.5-2.4,3.8-4.1,6.5-4.7c2.7-0.6,5.5-0.2,7.9,1.3l31.8,19.3c1.2,0.7,1.6,2.3,0.8,3.4s-2.3,1.6-3.4,0.8l-31.8-19.3
	c-1.3-0.8-2.7-1-4.2-0.7c-1.4,0.3-2.6,1.2-3.4,2.5c-0.8,1.2-1,2.7-0.7,4.2c0.3,1.4,1.2,2.6,2.5,3.4l12.8,7.9
	c1.2,0.7,1.5,2.3,0.8,3.4C287.8,583.6,287,584,286.1,584z"/>
<path fill="#4C8AE5" d="M335,683.1c-4.8,0-9.2-1.7-13.1-5c-11.1-9.5-14.7-29.4-14.4-39.7c0.2-7.2,0.2-14.7,0.2-23.3
	c-1.4-0.8-2.7-1.6-4-2.5l-5.4-3.2l-26.6-15.7c-2.3-1.4-4-3.6-4.6-6.2c-0.7-2.6-0.3-5.3,1.1-7.7c1.4-2.3,3.6-4,6.2-4.6
	c2.6-0.7,5.3-0.3,7.7,1.1l36.1,20.5c1.2,0.7,1.6,2.2,0.9,3.4s-2.2,1.6-3.4,0.9l-36.2-20.5c-1.2-0.7-2.6-0.9-3.9-0.6
	c-1.3,0.3-2.4,1.2-3.1,2.3c-0.7,1.2-0.9,2.5-0.6,3.9c0.3,1.3,1.2,2.4,2.3,3.1l32,19c1.7,1.1,3.4,2.1,5.2,3.2c0,0,0,0,0.1,0
	c0,0,0.1,0,0.1,0.1c17,10.3,38.2,23.1,41.9,45c1.9,11.1-2.9,23.8-14.3,26C337.9,682.9,336.4,683.1,335,683.1z M312.7,618.1
	c0,7.4,0,14-0.2,20.5c-0.3,10.1,3.4,27.8,12.7,35.7c3.9,3.3,8.2,4.4,13.2,3.5c5.5-1.1,12.4-8.1,10.3-20.3
	C345.5,639.1,328.7,627.8,312.7,618.1z"/>
<path fill="#4C8AE5" d="M398.3,602.5c-3.7,0-7.3-1.4-10.1-4.2c-7.4-7.3-13.8-17.4-19.6-26.4l-1.3-2.1l-25.9-38.9
	c-1.4-1.8-3.9-2.5-6.1-1.6c-2.7,1.1-4,4.1-2.9,6.8c0.5,1.3-0.1,2.7-1.4,3.3c-1.3,0.5-2.7-0.1-3.3-1.4c-2.1-5.2,0.4-11.2,5.7-13.3
	c4.3-1.7,9.2-0.4,12,3.3c0,0,0.1,0.1,0.1,0.1l26,39.1l1.3,2.1c5.6,8.7,11.9,18.7,18.8,25.5c2.8,2.8,6.8,3.5,10.6,1.9
	c4-1.7,6.6-5.4,6.6-9.6V583c0-0.1,0-0.1,0-0.2c0.1-1.2,0-1.9,0-2.9c-0.1-1.4-0.3-3.2,0-6.9c0.1-1.4,1.3-2.4,2.7-2.3
	c1.4,0.1,2.4,1.3,2.3,2.7c-0.3,3.4-0.1,4.8,0,6.1c0.1,1,0.2,2,0,3.6v4c0,6.2-3.8,11.7-9.7,14.2C402.3,602.1,400.3,602.5,398.3,602.5
	z"/>
<path fill="#4C8AE5" d="M343.3,560.2c-0.8,0-1.6-0.4-2.1-1.1l-13-20.1c-0.7-1.2-0.4-2.7,0.7-3.5c1.2-0.7,2.7-0.4,3.5,0.7l13,20.1
	c0.7,1.2,0.4,2.7-0.7,3.5C344.3,560.1,343.8,560.2,343.3,560.2z"/>
<circle fill="#4C8AE5" cx="190.4" cy="470.3" r="2.3"/>
<circle fill="#4C8AE5" cx="137.4" cy="579.5" r="2.3"/>
<g>
	<path fill="#4C8AE5" d="M189.3,597.6c-11.1,0-20.2-9-20.2-20.2c0-7.3,3.9-13.8,10.4-17.3c3.9-2.1,8-2.6,12-3.1
		c3.1-0.4,6-0.7,8.7-1.8c8.3-4.7,6.4-14.3,2.9-26.5c-0.2-0.8-0.5-1.6-0.7-2.4l-0.1-0.3c-0.3-2-0.7-7,2-10.4c1.3-1.7,3.2-2.8,5.5-3
		c1.5-0.2,3.1-0.1,4.6,0c4.1,0.3,5.1,0.1,5.5-1.6c-4.2-14.6-15-41.3-15.1-41.6c-1.8-4.8-3.5-8.7-6.3-13.2
		c-5.8-9.3-17.8-14.8-30.5-14c-1.4,0.1-2.6-1-2.6-2.4c-0.1-1.4,1-2.6,2.4-2.6c11.5-0.7,26.8,3.3,35,16.4c3,4.8,4.9,9.1,6.7,14
		c0.4,1.1,11.3,27.9,15.4,42.6l0.2,0.6l-0.1,0.6c-1.3,6.9-7.3,6.5-10.9,6.2c-1.3-0.1-2.6-0.2-3.6-0.1c-1,0.1-1.7,0.5-2.2,1.1
		c-1,1.3-1.4,3.7-1,6.5c0.2,0.7,0.4,1.5,0.6,2.2c3.1,10.7,7.2,25.3-5.4,32.3l-0.3,0.1c-3.4,1.4-6.8,1.8-10.1,2.1
		c-3.7,0.4-7.1,0.8-10.2,2.5c-4.9,2.7-7.8,7.4-7.8,12.9c0,8.4,6.8,15.2,15.2,15.2c1.4,0,2.5,1.1,2.5,2.5
		C191.8,596.5,190.7,597.6,189.3,597.6z"/>
</g>
<g>
	<path fill="#4C8AE5" d="M131.9,524.4c-1.4,0-2.5-1.1-2.5-2.5c0-6.1,1.6-10.4,4.7-13c2-1.7,4.6-1.9,6.6-2c1.9-0.1,3.1-0.3,3.6-1
		c0.8-1-1.8-4.6-2.8-5.9c-0.5-0.6-0.9-1.2-1.2-1.8c-0.2-0.4-0.5-0.7-0.7-1.2c-2.9-4.5-8.2-12.8-2.6-19.1c5.4-6.1,10.6-2.9,13.6-1
		c3,1.9,3.5,1.8,4.4,0.9c3.4-3.4,3.2-12.2,3-20.8c0-1.9-0.1-3.8-0.1-5.7c0-1.4,1.1-2.5,2.5-2.5s2.5,1.1,2.5,2.5c0,1.8,0,3.7,0.1,5.6
		c0.2,10.1,0.4,19.5-4.5,24.4c-3.9,3.9-7.9,1.4-10.5-0.2c-3.3-2-4.7-2.8-7.2,0.1c-2.9,3.2,0.1,8.4,3.1,13.1c0.3,0.5,0.6,0.9,0.8,1.3
		c0.2,0.4,0.6,0.9,1,1.5c2.2,3,5.8,8,2.6,12c-2,2.4-4.8,2.6-7.2,2.8c-1.5,0.1-3,0.2-3.7,0.9c-1.9,1.6-2.9,4.7-2.9,9.2
		C134.4,523.3,133.3,524.4,131.9,524.4z"/>
</g>
<path fill="#4C8AE5" d="M190.4,663.1c-3.6,0-7.4-0.6-11-1.7c-6.3-1.9-11.3-5-16.2-9.9c-0.8-0.8-1.6-1.6-2.4-2.5
	c-3.1-3.4-6.4-7-10.4-7.1c-1.8-0.1-4.4,0.6-7.2,1.3c-7,1.7-15.7,3.9-19.5-2.9c-0.2-0.3-0.4-0.8-0.6-0.9l-0.3-0.3l-0.1-0.3
	c-2.5-4.3-1.4-9.6-0.4-14.3c0.4-2.1,0.9-4.2,0.9-5.8c-0.1-1.2-0.5-3-1.5-3.2c-0.7,0-1.3,0.1-1.8,0.3l-0.2,0.1
	c-2.1,0.6-4.3,0-5.9-1.6c-1.6-1.6-2.3-4-1.7-6.2l0-0.1c1.2-3.6,2.3-6.6,3.4-9.5c1.4-3.6,2.7-7.1,4-11.5c0.5-1.5,1-2.8,1.5-4.1l0.4-1
	c0.3-0.9,0.7-1.8,1-2.7c3.1-8.2,6.2-16.7,12.9-23.1c-5.8-10.3-5.8-22-5.8-33.4v-0.8c0-1.4,1.1-2.5,2.5-2.5c1.4,0,2.5,1.1,2.5,2.5
	v0.8c0,11,0,21.4,4.8,30.4c5.5-3,13.8-3.1,18.2,1.4c2.9,3,3.7,6.5,2.2,9.4c-1.7,3.3-5.8,4.9-10.2,4.2c-4.3-0.7-8-3.2-11.4-7.6
	c-5.4,5.5-8.2,13.1-11,20.5c-0.3,0.9-0.7,1.8-1,2.7l-0.4,1c-0.5,1.3-1,2.6-1.4,3.8c-1.3,4.6-2.7,8.1-4.1,11.8
	c-1.1,2.8-2.2,5.7-3.3,9.2c-0.2,0.7,0.3,1.2,0.4,1.3c0.2,0.2,0.5,0.4,1,0.3c1.2-0.4,2.3-0.5,3.4-0.6l0.1,0l0.1,0
	c3.6,0.2,6.1,3.3,6.3,8l0,0.1c0,2.2-0.5,4.4-1,6.9c-0.8,3.9-1.6,7.8-0.3,10.6c0.4,0.5,0.8,1.1,1.1,1.7c1.8,3.2,7.2,2.2,14,0.5
	c3.1-0.8,6-1.5,8.5-1.4c6.2,0.1,10.5,4.9,14,8.7c0.8,0.9,1.5,1.7,2.2,2.4c4.3,4.3,8.6,6.9,14.2,8.6c11,3.4,22.2,0.8,30-6.9
	c6.2-6.2,9.6-13.9,9.6-22.1c0-16.6-13.6-30.1-30.4-30.1c-1.4,0-2.5-1.1-2.5-2.5s1.1-2.5,2.5-2.5c19.5,0,35.4,15.7,35.4,35.1
	c0,9.6-3.8,18.4-11,25.6C207.9,659.7,199.4,663.1,190.4,663.1z M141.9,557.3c2.6,3.4,5.3,5.3,8.3,5.8c2.5,0.4,4.4-0.5,5-1.6
	c0.7-1.3-0.6-2.8-1.3-3.6C151.2,555.3,145.6,555.5,141.9,557.3z"/>
<path fill="#4C8AE5" stroke="#231F20" stroke-width="5" stroke-linecap="round" stroke-linejoin="round" stroke-miterlimit="10" d="
	M750.4,565"/>
<path fill="#4C8AE5" d="M569.1,373.8c-21.5,0-39-17.5-39-39v-24.2c0-1.4,1.1-2.5,2.5-2.5s2.5,1.1,2.5,2.5v24.2c0,18.7,15.2,34,34,34
	s34-15.2,34-34v-47.6c0-1.4,1.1-2.5,2.5-2.5s2.5,1.1,2.5,2.5v47.6C608.1,356.3,590.6,373.8,569.1,373.8z"/>
<path fill="#4C8AE5" d="M820.3,642.3c-0.2,0-0.3,0-0.5,0c-2.4-0.5-3.3-3-3.3-5.2l0-0.3l0.1-0.3c1.9-9.4,19.7-9,27.3-8.8l0.8,0
	l28,1.8c11.6,0,25.1-7.9,25.3-29.9c0.1-14.7,0-29.7-0.1-44.2c-0.1-9.3-0.1-19-0.1-28.5c0-3.3-2.7-6-6-6h-6.2c-1.4,0-2.5-1.1-2.5-2.5
	s1.1-2.5,2.5-2.5h6.2c6.1,0,11,4.9,11,11c0,9.5,0.1,19.1,0.1,28.4c0.1,14.5,0.2,29.5,0.1,44.3c-0.1,9.3-2.8,17.8-7.5,24
	c-5.5,7.1-13.4,10.9-22.9,10.9l-0.2,0l-28.6-1.8c-17.7-0.4-21.5,2.6-22.2,4.5c0,0.1,0,0.3,0.1,0.4c0.9,0.5,1.4,1.6,1.2,2.6
	C822.5,641.5,821.5,642.3,820.3,642.3z"/>
<path fill="#4C8AE5" d="M754,562.7c-15,0-27.1-12.2-27.1-27.1l0-3.2c0-0.5-0.1-12.4,0.3-18.5l0.1-1c0.4-7.1,0.8-15.2-3.4-20.4
	c-1.4-1.8-4.1-2.4-6.5-1.5c-3.8,1.3-6,5.8-6,11.8v2.5h-15.8v-49.5c0-1.4,1.1-2.5,2.5-2.5s2.5,1.1,2.5,2.5v44.5h5.9
	c0.6-7,4-12.2,9.3-14c4.4-1.6,9.3-0.3,12.1,3.1c5.4,6.7,4.9,16.2,4.5,23.8l-0.1,1c-0.3,6-0.3,18.2-0.2,18.3l0,3.3
	c0,12.2,9.9,22.1,22.1,22.1c17.4,0,21.5-16,24.2-32.4c0.1-0.6,0.5-4.4,1.9-8.2c2.8-7.7,7.1-9.4,10.2-9.4c1.4,0,2.5,1.1,2.5,2.5
	s-1.1,2.5-2.5,2.5c-4.7,0-6.8,9.8-7.2,13.2l0,0.1C781.1,538.8,777.2,562.7,754,562.7z"/>
<path fill="#4C8AE5" d="M788.9,496.3c-6.5,0-13-1.5-18.7-4.6c-6.3-3.5-9.3-8.8-8.4-14.5c1.1-6.6,7.6-11.9,16.1-13.3
	c1.4-0.2,2.6,0.7,2.9,2.1c0.2,1.4-0.7,2.6-2.1,2.9c-6.4,1.1-11.2,4.8-12,9.2c-0.6,3.5,1.5,6.8,5.9,9.3c12.7,7.1,30.3,4.7,41.1-5.5
	c1-1,2.6-0.9,3.5,0.1c1,1,0.9,2.6-0.1,3.5C809.7,492.5,799.2,496.3,788.9,496.3z"/>
<path fill="#4C8AE5" d="M822.8,506.6c-1.4,0-2.5-1.1-2.5-2.5c0-19.8-16.1-35.8-35.8-35.8c-1.9,0-3.8,0.1-5.6,0.4
	c-1.4,0.2-2.6-0.7-2.9-2.1c-0.2-1.4,0.7-2.6,2.1-2.9c2.1-0.3,4.3-0.5,6.4-0.5c22.5,0,40.8,18.3,40.8,40.8
	C825.3,505.5,824.2,506.6,822.8,506.6z"/>
<g>
	<path fill="#4C8AE5" d="M252.2,337.5c-0.1,0-0.3,0-0.4,0c-1.4-0.1-2.4-1.2-2.4-2.6c0.1-1.4,1.2-2.4,2.6-2.4c0.9,0,1.6-0.2,2.2-0.8
		c3-3,2.6-13.2,2.3-19.3c-0.1-1.7-0.1-3.4-0.1-4.7c0-4.2,3.4-7.5,8-7.5c0.7,0,1.4,0.1,2.1,0.2c0.6,0.1,1.7,0.2,2.1,0.1
		c0,0,0-0.1,0.1-0.2c0.4-1.1-1.7-5-2.5-6.4c-0.4-0.8-0.8-1.5-1.1-2.1c-1.6-3.6-3.1-7.2-4.4-10.4c-2.9-7.3-6-14.2-11.5-19.1
		c-5.3-4.7-12.4-7.5-20-7.8c-1.4-0.1-2.5-1.2-2.4-2.6c0.1-1.4,1.2-2.5,2.6-2.4c8.7,0.4,16.9,3.6,23.1,9.1c6.4,5.7,9.8,13.5,12.8,21
		c1.2,3.1,2.7,6.7,4.3,10.1c0.2,0.5,0.6,1.1,0.9,1.8c1.7,3.2,3.9,7.2,2.8,10.4c-1.4,4.2-5.5,3.7-7.5,3.4c-0.5-0.1-1.1-0.1-1.4-0.1
		c-1.5,0-3.1,0.9-3.1,2.6c0,1.2,0.1,2.7,0.1,4.5c0.3,8.2,0.8,18.5-3.8,23.1C256.2,336.7,254.3,337.5,252.2,337.5z"/>
</g>
<g>
	<path fill="#4C8AE5" d="M316.5,515.5c-1.3,0-2.4-1.1-2.5-2.4c-0.5-13.2,1-27.9,16-37.3c0.6-0.4,1.2-0.8,1.9-1.2
		c9.7-6,17.5-11.6,14.9-20.1c-0.4-1.3-1.1-3.1-2-5.1c-3.4-8.3-9.2-22.1,1.5-27.2c2.3-1.1,4.7-0.9,6.8-0.7c1.3,0.1,2.4,0.2,3.4,0
		c1.4-0.3,1.8-0.9,2-1.3c1.3-2.6-1.6-9-3.1-12.4c-0.4-0.9-0.8-1.8-1.1-2.4c-1.7-4-3.1-8.3-4.5-12.3c-3.2-9.3-6.6-19-12.4-26.9
		c-6.6-9-18.2-14.6-29.6-14.1c-7.7,0.3-13.7,4.5-20.1,9c-3.3,2.3-6.7,4.7-10.4,6.5c-9.3,4.7-25.4,5.9-35.4-0.2
		c-5.7-3.5-8.7-9-8.7-15.8c0-10.5,8.4-19.1,18.8-19.1c1.4,0,2.5,1.1,2.5,2.5c0,1.4-1.1,2.5-2.5,2.5c-7.5,0-13.8,6.4-13.8,14.1
		c0,5.1,2.1,9,6.3,11.5c8.2,5.1,22.4,4.1,30.5,0c3.4-1.7,6.6-4,9.8-6.2c6.7-4.7,13.6-9.5,22.8-9.9c13-0.5,26.3,5.9,33.9,16.2
		c6.2,8.5,9.7,18.5,13.1,28.2c1.4,4,2.8,8.2,4.4,12.1c0.3,0.6,0.6,1.4,1,2.3c2.3,5,5.4,11.9,3,16.7c-0.7,1.4-2.2,3.2-5.4,4
		c-1.7,0.4-3.4,0.2-5,0.1c-1.6-0.2-3-0.3-4.1,0.2c-5.9,2.8-2.9,11.4,1,20.7c0.9,2.2,1.7,4,2.1,5.6c3.9,12.8-8.7,20.6-17.1,25.8
		c-0.6,0.4-1.3,0.8-1.9,1.1c-10.4,6.5-14.3,16-13.7,32.9C319,514.3,317.9,515.4,316.5,515.5C316.5,515.5,316.5,515.5,316.5,515.5z"
		/>
</g>
<g>
	<g>
		<path fill="#4C8AE5" d="M216,337.2c-1.3,0-2.4-1-2.5-2.4c-0.4-6.5-4.2-11.7-8.2-17.2l-0.7-0.9c-5.5-7.5-9-14.8-10.7-22.1
			c-3.4-15-0.1-28.6,8.7-36.4c5.8-5.1,14.6-8.4,23.6-8.8l3.2,0c1.4,0,2.5,1.1,2.5,2.5s-1.1,2.5-2.5,2.5h-3.1
			c-7.7,0.3-15.4,3.1-20.4,7.5c-8.7,7.7-9.4,21.3-7.1,31.6c1.5,6.7,4.7,13.3,9.8,20.3l0.7,0.9c4.3,5.8,8.7,11.8,9.2,19.9
			c0.1,1.4-1,2.6-2.4,2.6C216.1,337.2,216,337.2,216,337.2z"/>
	</g>
</g>
<g>
	<path fill="#4C8AE5" d="M160.4,465.6c-1.4,0-2.5-1.1-2.5-2.5c0-5,0-16.4-0.1-28.4c-0.1-13.6-0.1-27.6-0.1-34.6
		c0-8.6,1.8-24.2,14.2-31.8c5.6-3.5,11.9-5,17.9-6.4c4.4-1.1,8.6-2.1,12.5-3.8c9.4-4.1,11.2-11.6,11.2-23.2c0-1.4,1.1-2.5,2.5-2.5
		s2.5,1.1,2.5,2.5c0,10.5-1.1,22.1-14.2,27.8c-4.3,1.9-8.9,3-13.3,4c-5.9,1.4-11.6,2.8-16.5,5.8c-10.3,6.4-11.9,20-11.9,27.6
		c0,7,0.1,21,0.1,34.6c0.1,12,0.1,23.4,0.1,28.4C162.9,464.5,161.7,465.6,160.4,465.6z"/>
</g>
</svg>
