<?xml version="1.0" encoding="UTF-8" standalone="no"?>
<svg width="553px" height="89px" viewBox="0 0 553 89" version="1.1" xmlns="http://www.w3.org/2000/svg" xmlns:xlink="http://www.w3.org/1999/xlink" xmlns:sketch="http://www.bohemiancoding.com/sketch/ns">
    <!-- Generator: Sketch 3.3.2 (12043) - http://www.bohemiancoding.com/sketch -->
    <title>Imported Layers</title>
    <desc>Created with Sketch.</desc>
    <defs></defs>
    <g id="Page-1" stroke="none" stroke-width="1" fill="none" fill-rule="evenodd" sketch:type="MSPage">
        <g id="Imported-Layers" sketch:type="MSLayerGroup" fill="#414750">
            <path d="M0.667,15.502 L0.667,88.502 L56.667,73.497 L56.667,0.497 L0.667,15.502 L0.667,15.502 Z M40.666,26.381 L26.667,30.008 L26.667,44.281 L39.667,40.899 L39.667,49.161 L26.667,52.543 L26.667,73.144 L17.667,75.687 L17.667,24.29 L40.666,18.12 L40.666,26.381 L40.666,26.381 Z" id="Fill-1" sketch:type="MSShapeGroup"></path>
            <path d="M62.667,0.274 L62.667,73.273 L118.667,88.279 L118.667,15.28 L62.667,0.274 L62.667,0.274 Z M92.666,71.288 L83.667,68.877 L83.667,17.479 L92.666,19.89 L92.666,71.288 L92.666,71.288 Z" id="Fill-2" sketch:type="MSShapeGroup"></path>
            <path d="M124.667,15.502 L124.667,88.502 L180.667,73.497 L180.667,0.497 L124.667,15.502 L124.667,15.502 Z M166.667,65.574 L143.666,71.687 L143.666,20.289 L152.667,17.727 L152.667,60.758 L166.667,57.207 L166.667,65.574 L166.667,65.574 Z" id="Fill-3" sketch:type="MSShapeGroup"></path>
            <path d="M186.667,0.274 L186.667,73.273 L242.667,88.279 L242.667,15.28 L186.667,0.274 L186.667,0.274 Z M233.806,77.041 L226.464,74.609 L226.49,39.77 C226.492,36.887 226.626,33.978 226.895,31.042 L226.667,30.968 L218.753,72.059 L210.3,69.26 L202.395,22.871 L202.082,22.767 C202.442,26.261 202.624,29.415 202.623,32.227 L202.728,66.716 L195.667,64.342 L195.667,12.944 L207.466,16.882 L214.517,59.631 L214.715,59.706 L221.786,21.648 L233.856,25.643 L233.806,77.041 L233.806,77.041 Z" id="Fill-4" sketch:type="MSShapeGroup"></path>
            <path d="M248.667,15.502 L248.667,88.502 L304.666,73.497 L304.666,0.497 L248.667,15.502 L248.667,15.502 Z M285.184,65.26 C282.76,68.465 279.461,70.68 274.891,71.904 C270.415,73.103 266.667,73.246 263.667,72.33 L263.667,62.873 C266.667,64.352 270.836,64.659 274.049,63.799 C275.877,63.31 277.152,62.437 278.078,61.182 C279.002,59.925 279.416,58.43 279.416,56.695 C279.416,54.984 278.84,53.568 277.738,52.445 C276.637,51.322 274.807,50.232 272.277,49.177 C270.074,48.243 268.397,47.232 267.259,46.142 C266.123,45.052 265.24,43.723 264.62,42.155 C263.999,40.587 263.687,38.655 263.687,36.358 C263.687,31.952 264.911,28.131 267.359,24.897 C269.808,21.663 273.094,19.493 277.221,18.387 C281.158,17.332 284.943,17.419 288.574,18.649 L285.41,27.161 C284.285,26.806 283.107,26.536 281.877,26.349 C280.647,26.163 279.328,26.258 277.922,26.635 C276.375,27.05 275.185,27.878 274.353,29.12 C273.521,30.363 273.107,31.863 273.107,33.621 C273.107,35.355 273.603,36.733 274.6,37.756 C275.596,38.778 277.336,39.777 279.822,40.752 C283.174,42.104 285.51,43.774 286.836,45.763 C288.16,47.752 288.822,50.246 288.822,53.246 C288.824,58.051 287.609,62.057 285.184,65.26 L285.184,65.26 Z" id="Fill-5" sketch:type="MSShapeGroup"></path>
            <path d="M310.666,0.274 L310.666,73.273 L366.666,88.279 L366.666,15.28 L310.666,0.274 L310.666,0.274 Z M351.666,31.287 L342.666,28.649 L342.666,71.644 L332.666,69.092 L332.666,26.096 L322.666,23.458 L322.666,15.056 L351.666,22.885 L351.666,31.287 L351.666,31.287 Z" id="Fill-6" sketch:type="MSShapeGroup"></path>
            <path d="M372.666,15.502 L372.666,88.502 L428.666,73.497 L428.666,0.497 L372.666,15.502 L372.666,15.502 Z M411.738,67.169 L408.783,54.988 L395.389,58.577 L392.435,72.341 L382.873,74.902 L395.6,19.883 L408.574,16.407 L421.336,64.598 L411.738,67.169 L411.738,67.169 Z" id="Fill-7" sketch:type="MSShapeGroup"></path>
            <path d="M403.141,30.607 C402.568,27.842 402.221,25.984 402.106,25.031 C401.799,27.129 401.414,29.453 400.945,32.004 C400.475,34.555 399.256,40.419 397.289,49.596 L406.992,46.995 L404.25,35.777 C404.084,35.095 403.715,33.371 403.141,30.607" id="Fill-8" sketch:type="MSShapeGroup"></path>
            <path d="M434.666,0.274 L434.666,73.273 L490.666,88.279 L490.666,15.28 L434.666,0.274 L434.666,0.274 Z M479.666,74.552 L467.883,71.424 L451.935,29.936 L451.633,29.814 C452.219,32.807 452.666,35.933 452.666,39.19 L452.666,67.279 L443.666,64.906 L443.666,13.508 L455.297,16.654 L470.99,57.718 L471.356,57.822 C470.91,55.241 470.666,52.252 470.666,48.853 L470.666,20.799 L479.666,23.154 L479.666,74.552 L479.666,74.552 Z" id="Fill-9" sketch:type="MSShapeGroup"></path>
            <path d="M496.666,15.502 L496.666,88.502 L552.666,73.497 L552.666,0.497 L496.666,15.502 L496.666,15.502 Z M540.666,23.824 L531.666,26.462 L531.666,69.458 L521.666,72.011 L521.666,29.015 L511.666,31.653 L511.666,23.251 L540.666,15.423 L540.666,23.824 L540.666,23.824 Z" id="Fill-10" sketch:type="MSShapeGroup"></path>
        </g>
    </g>
</svg>