<?xml version="1.0" encoding="utf-8"?>
<!-- Generator: Adobe Illustrator 16.0.4, SVG Export Plug-In . SVG Version: 6.00 Build 0)  -->
<!DOCTYPE svg PUBLIC "-//W3C//DTD SVG 1.1//EN" "http://www.w3.org/Graphics/SVG/1.1/DTD/svg11.dtd">
<svg version="1.1" id="Layer_1" xmlns="http://www.w3.org/2000/svg" xmlns:xlink="http://www.w3.org/1999/xlink" x="0px" y="0px"
	 width="150px" height="150px" viewBox="0 0 150 150" enable-background="new 0 0 150 150" xml:space="preserve">
<path fill="none" d="M104.848,96.951c-1.8,1.65-3.75,3-5.85,3c-2.25,0-5.25-1.2-5.1-8.399l1.05-33.898
	c0.45-12.45-8.101-18.6-18.149-18.6c-11.549,0-29.998,10.5-29.998,18.449c0,3.3,2.399,5.25,5.399,5.25
	c4.8,0,8.85-3.149,8.999-10.199c0.15-4.65,5.25-7.5,10.65-7.5c5.699,0,10.049,4.35,9.749,12.149l-0.449,11.699
	c-9.75,2.55-36.448,9.9-36.448,24.899c0,7.801,5.85,14.549,15.3,14.549c8.549,0,16.049-3.148,20.999-8.248
	c1.499,4.648,5.999,7.648,11.55,7.648c5.85,0,10.499-2.85,13.949-6.898c0.449-0.451,0.449-0.75,0.6-1.352
	C107.098,97.701,105.598,96.352,104.848,96.951z M80.398,94.102c-1.949,4.2-8.25,6.899-13.049,6.899c-5.25,0-8.25-3.899-8.25-10.649
	c0-9.449,10.649-13.799,21.899-16.35L80.398,94.102z"/>
<path fill="#101F2E" d="M59.1,90.352c0,6.75,3,10.649,8.25,10.649c4.799,0,11.1-2.699,13.048-6.899L81,74.002
	C69.749,76.553,59.1,80.902,59.1,90.352z"/>
<path fill="#101F2E" d="M75,0.333C33.578,0.333,0,33.763,0,75c0,41.236,33.578,74.666,75,74.666c41.421,0,75-33.43,75-74.666
	C150,33.763,116.421,0.333,75,0.333z M106.498,100.852c-3.45,4.051-8.1,6.899-13.949,6.899c-5.551,0-10.051-3-11.55-7.649
	c-4.95,5.101-12.45,8.25-20.999,8.25c-9.45,0-15.3-6.75-15.3-14.55c0-14.999,26.699-22.35,36.448-24.899l0.449-11.699
	c0.301-7.8-4.05-12.149-9.749-12.149c-5.4,0-10.5,2.85-10.65,7.5C61.05,59.604,57,62.753,52.2,62.753c-3,0-5.399-1.95-5.399-5.25
	c0-7.949,18.449-18.449,29.998-18.449c10.051,0,18.6,6.149,18.149,18.6l-1.05,33.898c-0.15,7.199,2.85,8.399,5.1,8.399
	c2.1,0,4.05-1.35,5.85-3c0.75-0.6,2.25,0.75,2.25,2.55C106.947,100.102,106.947,100.4,106.498,100.852z"/>
</svg>
