<?xml version="1.0" encoding="UTF-8" standalone="no"?>
<svg width="220px" height="450px" viewBox="0 0 220 450" version="1.1" xmlns="http://www.w3.org/2000/svg" xmlns:xlink="http://www.w3.org/1999/xlink" xmlns:sketch="http://www.bohemiancoding.com/sketch/ns">
    <!-- Generator: Sketch 3.3.1 (12002) - http://www.bohemiancoding.com/sketch -->
    <title>iPhone6_</title>
    <desc>Created with Sketch.</desc>
    <defs></defs>
    <g id="Page-1" stroke="none" stroke-width="1" fill="none" fill-rule="evenodd" sketch:type="MSPage">
        <g id="iPhone6_" sketch:type="MSLayerGroup" transform="translate(0.000000, 1.000000)">
            <g id="Group" sketch:type="MSShapeGroup">
                <path d="M194.9814,448.2151 L24.8174,448.2151 C11.6194,448.2151 0.8204,437.4161 0.8204,424.2181 L0.8204,23.9971 C0.8204,10.7991 11.6194,0.0001 24.8174,0.0001 L194.9814,0.0001 C208.1794,0.0001 218.9784,10.7991 218.9784,23.9971 L218.9784,424.2181 C218.9784,437.4161 208.1794,448.2151 194.9814,448.2151" id="Fill-1"></path>
                <path d="M194.9814,448.2151 L24.8174,448.2151 C11.6194,448.2151 0.8204,437.4161 0.8204,424.2181 L0.8204,23.9971 C0.8204,10.7991 11.6194,0.0001 24.8174,0.0001 L194.9814,0.0001 C208.1794,0.0001 218.9784,10.7991 218.9784,23.9971 L218.9784,424.2181 C218.9784,437.4161 208.1794,448.2151 194.9814,448.2151 L194.9814,448.2151 Z" id="Stroke-3" stroke="#FFFFFF"></path>
                <path d="M205.403,398.596 L14.511,398.596 L14.511,58.102 L205.403,58.102 L205.403,398.596 Z" id="Fill-5"></path>
                <path d="M205.403,398.596 L14.511,398.596 L14.511,58.102 L205.403,58.102 L205.403,398.596 Z" id="Stroke-7" stroke="#FFFFFF"></path>
                <path d="M125.5905,33.4176 L93.8745,33.4176 C92.6815,33.4176 91.7055,32.4416 91.7055,31.2486 C91.7055,30.0556 92.6815,29.0796 93.8745,29.0796 L125.5905,29.0796 C126.7835,29.0796 127.7595,30.0556 127.7595,31.2486 C127.7595,32.4416 126.7835,33.4176 125.5905,33.4176" id="Fill-12"></path>
                <path d="M125.5905,33.4176 L93.8745,33.4176 C92.6815,33.4176 91.7055,32.4416 91.7055,31.2486 C91.7055,30.0556 92.6815,29.0796 93.8745,29.0796 L125.5905,29.0796 C126.7835,29.0796 127.7595,30.0556 127.7595,31.2486 C127.7595,32.4416 126.7835,33.4176 125.5905,33.4176 L125.5905,33.4176 Z" id="Stroke-13" stroke="#FFFFFF"></path>
                <path d="M109.658,442.579 L109.658,442.579 C99.949,442.579 92.005,434.635 92.005,424.926 L92.005,424.926 C92.005,415.217 99.949,407.273 109.658,407.273 L109.658,407.273 C119.367,407.273 127.311,415.217 127.311,424.926 L127.311,424.926 C127.311,434.635 119.367,442.579 109.658,442.579" id="Fill-14"></path>
                <path d="M109.658,442.579 L109.658,442.579 C99.949,442.579 92.005,434.635 92.005,424.926 L92.005,424.926 C92.005,415.217 99.949,407.273 109.658,407.273 L109.658,407.273 C119.367,407.273 127.311,415.217 127.311,424.926 L127.311,424.926 C127.311,434.635 119.367,442.579 109.658,442.579 L109.658,442.579 Z" id="Stroke-15" stroke="#FFFFFF"></path>
                <path d="M34,108.721916 L34,94.5411306 C34,87.9132412 39.3741699,82.5402752 46.0065744,82.5402752 L172.993426,82.5402752 C179.624474,82.5402752 185,87.9161272 185,94.5318458 L185,108.137931" id="Rectangle-2-Copy" stroke="#FFFFFF"></path>
                <path d="M34,121.181641 L34,107.000855 C34,100.372966 39.3741699,95 46.0065744,95 L172.993426,95 C179.624474,95 185,100.375852 185,106.991571 L185,120.597656" id="Rectangle-2-Copy-4" stroke="#FFFFFF"></path>
                <path d="M34,136.181641 L34,122.000855 C34,115.372966 39.3741699,110 46.0065744,110 L172.993426,110 C179.624474,110 185,115.375852 185,121.991571 L185,135.597656" id="Rectangle-2-Copy-2" stroke="#FFFFFF"></path>
                <path d="M34,148.641365 L34,134.46058 C34,127.832691 39.3741699,122.459725 46.0065744,122.459725 L172.993426,122.459725 C179.624474,122.459725 185,127.835577 185,134.451295 L185,148.057381" id="Rectangle-2-Copy-8" stroke="#FFFFFF"></path>
                <path d="M34,163.641365 L34,149.46058 C34,142.832691 39.3741699,137.459725 46.0065744,137.459725 L172.993426,137.459725 C179.624474,137.459725 185,142.835577 185,149.451295 L185,163.057381" id="Rectangle-2-Copy-5" stroke="#FFFFFF"></path>
                <path d="M34,176.10109 L34,161.920305 C34,155.292416 39.3741699,149.91945 46.0065744,149.91945 L172.993426,149.91945 C179.624474,149.91945 185,155.295302 185,161.91102 L185,175.517106" id="Rectangle-2-Copy-6" stroke="#FFFFFF"></path>
                <path d="M34,191.10109 L34,176.920305 C34,170.292416 39.3741699,164.91945 46.0065744,164.91945 L172.993426,164.91945 C179.624474,164.91945 185,170.295302 185,176.91102 L185,190.517106" id="Rectangle-2-Copy-7" stroke="#FFFFFF"></path>
                <rect id="Rectangle-2-Copy-3" stroke="#FFFFFF" x="34" y="272.459725" width="151" height="94" rx="12"></rect>
                <path d="M34,203.560815 L34,189.38003 C34,182.75214 39.3741699,177.379174 46.0065744,177.379174 L172.993426,177.379174 C179.624474,177.379174 185,182.755026 185,189.370745 L185,202.976831" id="Rectangle-2-Copy-12" stroke="#FFFFFF"></path>
                <path d="M34,218.560815 L34,204.38003 C34,197.75214 39.3741699,192.379174 46.0065744,192.379174 L172.993426,192.379174 C179.624474,192.379174 185,197.755026 185,204.370745 L185,217.976831" id="Rectangle-2-Copy-9" stroke="#FFFFFF"></path>
                <path d="M34,231.02054 L34,216.839755 C34,210.211865 39.3741699,204.838899 46.0065744,204.838899 L172.993426,204.838899 C179.624474,204.838899 185,210.214751 185,216.83047 L185,230.436555" id="Rectangle-2-Copy-10" stroke="#FFFFFF"></path>
                <path d="M34,246.02054 L34,231.839755 C34,225.211865 39.3741699,219.838899 46.0065744,219.838899 L172.993426,219.838899 C179.624474,219.838899 185,225.214751 185,231.83047 L185,245.436555" id="Rectangle-2-Copy-11" stroke="#FFFFFF"></path>
                <path d="M34,258.480265 L34,244.299479 C34,237.67159 39.3741699,232.298624 46.0065744,232.298624 L172.993426,232.298624 C179.624474,232.298624 185,237.674476 185,244.290194 L185,257.89628" id="Rectangle-2-Copy-16" stroke="#FFFFFF"></path>
                <path d="M34,273.480265 L34,259.299479 C34,252.67159 39.3741699,247.298624 46.0065744,247.298624 L172.993426,247.298624 C179.624474,247.298624 185,252.674476 185,259.290194 L185,272.89628" id="Rectangle-2-Copy-13" stroke="#FFFFFF"></path>
                <path d="M34,285.939989 L34,271.759204 C34,265.131315 39.3741699,259.758349 46.0065744,259.758349 L172.993426,259.758349 C179.624474,259.758349 185,265.134201 185,271.749919 L185,285.356005" id="Rectangle-2-Copy-14" stroke="#FFFFFF"></path>
                <rect id="Rectangle-17" stroke="#FFFFFF" x="45" y="332" width="61" height="24" rx="6"></rect>
                <rect id="Rectangle-17-Copy" stroke="#FFFFFF" x="113.5" y="332" width="61" height="24" rx="6"></rect>
            </g>
        </g>
    </g>
</svg>