<?xml version="1.0" encoding="utf-8"?>
<!-- Generator: Adobe Illustrator 15.0.0, SVG Export Plug-In . SVG Version: 6.00 Build 0)  -->
<!DOCTYPE svg PUBLIC "-//W3C//DTD SVG 1.1//EN" "http://www.w3.org/Graphics/SVG/1.1/DTD/svg11.dtd">
<svg version="1.1" id="Layer_1" xmlns="http://www.w3.org/2000/svg" xmlns:xlink="http://www.w3.org/1999/xlink" x="0px" y="0px"
	 width="150px" height="150px" viewBox="0 0 150 150" enable-background="new 0 0 150 150" xml:space="preserve">
<g>
	<path fill="none" d="M104.8476563,96.9511719c-1.7998047,1.6503906-3.75,3-5.8496094,3c-2.25,0-5.25-1.2001953-5.0996094-8.3994141
		l1.0498047-33.8984375c0.4501953-12.4501953-8.0996094-18.5996094-18.1494141-18.5996094
		c-11.5488281,0-29.9980469,10.5-29.9980469,18.4492188c0,3.2998047,2.3994141,5.25,5.3994141,5.25
		c4.7998047,0,8.8496094-3.1494141,8.9990234-10.1992188c0.1503906-4.6503906,5.25-7.5,10.6503906-7.5
		c5.6992188,0,10.0488281,4.3496094,9.7490234,12.1494141l-0.4501953,11.6992188
		c-9.7490234,2.5498047-36.4482422,9.9003906-36.4482422,24.8994141c0,7.7998047,5.8496094,14.5488281,15.2998047,14.5488281
		c8.5488281,0,16.0488281-3.1494141,20.9990234-8.2490234c1.4990234,4.6494141,5.9990234,7.6494141,11.5498047,7.6494141
		c5.8496094,0,10.4990234-2.8496094,13.9492188-6.8994141c0.4492188-0.4501953,0.4492188-0.75,0.5996094-1.3505859
		C107.0976563,97.7011719,105.5976563,96.3515625,104.8476563,96.9511719z M80.3984375,94.1015625
		c-1.9492188,4.2001953-8.25,6.8994141-13.0488281,6.8994141c-5.25,0-8.25-3.8994141-8.25-10.6494141
		c0-9.4492188,10.6494141-13.7988281,21.8994141-16.3496094L80.3984375,94.1015625z"/>
	<path fill="#222328" d="M59.0996094,90.3515625c0,6.75,3,10.6494141,8.25,10.6494141
		c4.7988281,0,11.0996094-2.6992188,13.0488281-6.8994141l0.6005859-20.0996094
		C69.7490234,76.5527344,59.0996094,80.9023438,59.0996094,90.3515625z"/>
	<path fill="#222328" d="M75,0.3334961C33.578125,0.3334961,0,33.7626953,0,75s33.578125,74.6660156,75,74.6660156
		c41.4208984,0,75-33.4287109,75-74.6660156S116.4208984,0.3334961,75,0.3334961z M106.4980469,100.8515625
		c-3.4501953,4.0498047-8.0996094,6.8994141-13.9492188,6.8994141c-5.5507813,0-10.0507813-3-11.5498047-7.6494141
		C76.0488281,105.2011719,68.5488281,108.3505859,60,108.3505859c-9.4501953,0-15.2998047-6.7490234-15.2998047-14.5488281
		c0-14.9990234,26.6992188-22.3496094,36.4482422-24.8994141l0.4501953-11.6992188
		c0.2998047-7.7998047-4.0498047-12.1494141-9.7490234-12.1494141c-5.4003906,0-10.5,2.8496094-10.6503906,7.5
		C61.0498047,59.6035156,57,62.7529297,52.2001953,62.7529297c-3,0-5.3994141-1.9501953-5.3994141-5.25
		c0-7.9492188,18.4492188-18.4492188,29.9980469-18.4492188c10.0498047,0,18.5996094,6.1494141,18.1494141,18.5996094
		l-1.0498047,33.8984375c-0.1503906,7.1992188,2.8496094,8.3994141,5.0996094,8.3994141
		c2.0996094,0,4.0498047-1.3496094,5.8496094-3c0.75-0.5996094,2.25,0.75,2.25,2.5498047
		C106.9472656,100.1015625,106.9472656,100.4013672,106.4980469,100.8515625z"/>
</g>
</svg>
